Public Sans-Light.ufo
<glyph name="exclam" format="1">
  <advance width="220"/>
  <unicode hex="0021"/>
  <outline>
    <contour>
      <point x="140" y="77" type="line"/>
      <point x="80" y="77" type="line"/>
      <point x="80" y="0" type="line"/>
      <point x="140" y="0" type="line"/>
    </contour>
    <contour>
      <point x="136" y="723" type="line"/>
      <point x="85" y="723" type="line"/>
      <point x="94" y="144" type="line"/>
      <point x="126" y="144" type="line"/>
    </contour>
  </outline>
</glyph>
<glyph name="numbersign" format="1">
  <advance width="590"/>
  <unicode hex="0023"/>
  <outline>
    <contour>
      <point x="276" y="719" type="line"/>
      <point x="239" y="724" type="line"/>
      <point x="128" y="5" type="line"/>
      <point x="165" y="-1" type="line"/>
    </contour>
    <contour>
      <point x="474" y="719" type="line"/>
      <point x="437" y="724" type="line"/>
      <point x="326" y="5" type="line"/>
      <point x="363" y="-1" type="line"/>
    </contour>
    <contour>
      <point x="513" y="281" type="line"/>
      <point x="45" y="281" type="line"/>
      <point x="45" y="244" type="line"/>
      <point x="513" y="244" type="line"/>
    </contour>
    <contour>
      <point x="545" y="486" type="line"/>
      <point x="77" y="486" type="line"/>
      <point x="77" y="449" type="line"/>
      <point x="545" y="449" type="line"/>
    </contour>
  </outline>
</glyph>
<glyph name="dollar" format="1">
  <advance width="636"/>
  <unicode hex="0024"/>
  <outline>
    <contour>
      <point x="324" y="-10" type="curve" smooth="yes"/>
      <point x="465" y="-10"/>
      <point x="566" y="71"/>
      <point x="566" y="177" type="curve" smooth="yes"/>
      <point x="566" y="256"/>
      <point x="524" y="327"/>
      <point x="411" y="364" type="curve" smooth="yes"/>
      <point x="287" y="404" type="line" smooth="yes"/>
      <point x="174" y="441"/>
      <point x="136" y="471"/>
      <point x="136" y="533" type="curve" smooth="yes"/>
      <point x="136" y="643"/>
      <point x="243" y="691"/>
      <point x="329" y="691" type="curve" smooth="yes"/>
      <point x="427" y="691"/>
      <point x="492" y="640"/>
      <point x="512" y="532" type="curve"/>
      <point x="552" y="540" type="line"/>
      <point x="542" y="640"/>
      <point x="465" y="732"/>
      <point x="331" y="732" type="curve" smooth="yes"/>
      <point x="185" y="732"/>
      <point x="93" y="646"/>
      <point x="93" y="532" type="curve" smooth="yes"/>
      <point x="93" y="446"/>
      <point x="156" y="398"/>
      <point x="260" y="366" type="curve" smooth="yes"/>
      <point x="391" y="326" type="line" smooth="yes"/>
      <point x="483" y="298"/>
      <point x="523" y="249"/>
      <point x="523" y="175" type="curve" smooth="yes"/>
      <point x="523" y="86"/>
      <point x="420" y="32"/>
      <point x="324" y="32" type="curve" smooth="yes"/>
      <point x="218" y="32"/>
      <point x="138" y="78"/>
      <point x="112" y="176" type="curve"/>
      <point x="70" y="167" type="line"/>
      <point x="92" y="55"/>
      <point x="192" y="-10"/>
    </contour>
    <contour>
      <point x="309" y="836" type="line"/>
      <point x="309" y="707" type="line"/>
      <point x="354" y="707" type="line"/>
      <point x="354" y="836" type="line"/>
    </contour>
    <contour>
      <point x="300" y="15" type="line"/>
      <point x="300" y="-114" type="line"/>
      <point x="345" y="-114" type="line"/>
      <point x="345" y="15" type="line"/>
    </contour>
  </outline>
</glyph>
<glyph name="percent" format="1">
  <advance width="869"/>
  <unicode hex="0025"/>
  <outline>
    <contour>
      <point x="220" y="734" type="curve" smooth="yes"/>
      <point x="127" y="734"/>
      <point x="60" y="663"/>
      <point x="60" y="527" type="curve" smooth="yes"/>
      <point x="60" y="390"/>
      <point x="127" y="319"/>
      <point x="220" y="319" type="curve" smooth="yes"/>
      <point x="313" y="319"/>
      <point x="378" y="390"/>
      <point x="378" y="527" type="curve" smooth="yes"/>
      <point x="378" y="663"/>
      <point x="313" y="734"/>
    </contour>
    <contour>
      <point x="219" y="348" type="curve" smooth="yes"/>
      <point x="143" y="348"/>
      <point x="94" y="424"/>
      <point x="94" y="527" type="curve" smooth="yes"/>
      <point x="94" y="629"/>
      <point x="143" y="705"/>
      <point x="219" y="705" type="curve" smooth="yes"/>
      <point x="295" y="705"/>
      <point x="344" y="630"/>
      <point x="344" y="527" type="curve" smooth="yes"/>
      <point x="344" y="423"/>
      <point x="295" y="348"/>
    </contour>
    <contour>
      <point x="651" y="406" type="curve" smooth="yes"/>
      <point x="558" y="406"/>
      <point x="491" y="334"/>
      <point x="491" y="199" type="curve" smooth="yes"/>
      <point x="491" y="61"/>
      <point x="558" y="-10"/>
      <point x="651" y="-10" type="curve" smooth="yes"/>
      <point x="744" y="-10"/>
      <point x="809" y="61"/>
      <point x="809" y="199" type="curve" smooth="yes"/>
      <point x="809" y="334"/>
      <point x="744" y="406"/>
    </contour>
    <contour>
      <point x="650" y="20" type="curve" smooth="yes"/>
      <point x="577" y="20"/>
      <point x="525" y="98"/>
      <point x="525" y="198" type="curve" smooth="yes"/>
      <point x="525" y="297"/>
      <point x="577" y="376"/>
      <point x="650" y="376" type="curve" smooth="yes"/>
      <point x="723" y="376"/>
      <point x="775" y="298"/>
      <point x="775" y="198" type="curve" smooth="yes"/>
      <point x="775" y="98"/>
      <point x="723" y="20"/>
    </contour>
    <component base="fraction" xOffset="328"/>
  </outline>
</glyph>
<glyph name="ampersand" format="1">
  <advance width="633"/>
  <unicode hex="0026"/>
  <outline>
    <contour>
      <point x="267" y="734" type="curve" smooth="yes"/>
      <point x="173" y="734"/>
      <point x="108" y="668"/>
      <point x="108" y="585" type="curve" smooth="yes"/>
      <point x="108" y="521"/>
      <point x="140" y="461"/>
      <point x="201" y="398" type="curve"/>
      <point x="92" y="340"/>
      <point x="40" y="272"/>
      <point x="40" y="182" type="curve" smooth="yes"/>
      <point x="40" y="70"/>
      <point x="119" y="-5"/>
      <point x="243" y="-5" type="curve" smooth="yes"/>
      <point x="321" y="-5"/>
      <point x="393" y="26"/>
      <point x="461" y="90" type="curve"/>
      <point x="540" y="0" type="line"/>
      <point x="588" y="0" type="line"/>
      <point x="487" y="119" type="line"/>
      <point x="539" y="183"/>
      <point x="572" y="251"/>
      <point x="575" y="368" type="curve"/>
      <point x="542" y="368" type="line"/>
      <point x="539" y="248"/>
      <point x="488" y="170"/>
      <point x="464" y="146" type="curve"/>
      <point x="260" y="384" type="line"/>
      <point x="428" y="468"/>
      <point x="442" y="546"/>
      <point x="442" y="583" type="curve" smooth="yes"/>
      <point x="442" y="677"/>
      <point x="357" y="734"/>
    </contour>
    <contour>
      <point x="267" y="696" type="curve" smooth="yes"/>
      <point x="331" y="696"/>
      <point x="401" y="668"/>
      <point x="401" y="585" type="curve" smooth="yes"/>
      <point x="401" y="536"/>
      <point x="374" y="490"/>
      <point x="238" y="414" type="curve"/>
      <point x="223" y="431" type="line" smooth="yes"/>
      <point x="203" y="453"/>
      <point x="149" y="520"/>
      <point x="149" y="586" type="curve" smooth="yes"/>
      <point x="149" y="643"/>
      <point x="189" y="696"/>
    </contour>
    <contour>
      <point x="224" y="369" type="curve"/>
      <point x="439" y="118" type="line"/>
      <point x="388" y="68"/>
      <point x="320" y="32"/>
      <point x="247" y="32" type="curve" smooth="yes"/>
      <point x="153" y="32"/>
      <point x="81" y="91"/>
      <point x="81" y="178" type="curve" smooth="yes"/>
      <point x="81" y="258"/>
      <point x="138" y="322"/>
    </contour>
  </outline>
</glyph>
<glyph name="quotesingle" format="1">
  <advance width="235"/>
  <unicode hex="0027"/>
  <outline>
    <contour>
      <point x="155" y="723" type="line"/>
      <point x="80" y="723" type="line"/>
      <point x="100" y="536" type="line"/>
      <point x="133" y="536" type="line"/>
    </contour>
  </outline>
</glyph>
<glyph name="parenleft" format="1">
  <advance width="272"/>
  <unicode hex="0028"/>
  <outline>
    <contour>
      <point x="247" y="780" type="curve"/>
      <point x="223" y="780" type="line"/>
      <point x="140" y="657"/>
      <point x="80" y="499"/>
      <point x="80" y="335" type="curve" smooth="yes"/>
      <point x="80" y="166"/>
      <point x="130" y="36"/>
      <point x="211" y="-104" type="curve"/>
      <point x="235" y="-104" type="line"/>
      <point x="165" y="44"/>
      <point x="128" y="185"/>
      <point x="128" y="334" type="curve" smooth="yes"/>
      <point x="128" y="491"/>
      <point x="180" y="651"/>
    </contour>
  </outline>
</glyph>
<glyph name="asterisk" format="1">
  <advance width="315"/>
  <unicode hex="002A"/>
  <outline>
    <contour>
      <point x="237" y="444" type="line"/>
      <point x="269" y="468" type="line"/>
      <point x="186" y="573" type="line"/>
      <point x="300" y="613" type="line"/>
      <point x="290" y="644" type="line"/>
      <point x="177" y="597" type="line"/>
      <point x="182" y="723" type="line"/>
      <point x="141" y="723" type="line"/>
      <point x="148" y="597" type="line"/>
      <point x="36" y="638" type="line"/>
      <point x="25" y="606" type="line"/>
      <point x="141" y="572" type="line"/>
      <point x="55" y="461" type="line"/>
      <point x="87" y="440" type="line"/>
      <point x="164" y="560" type="line"/>
    </contour>
  </outline>
</glyph>
<glyph name="plus" format="1">
  <advance width="521"/>
  <unicode hex="002B"/>
  <outline>
    <contour>
      <point x="456" y="382" type="line"/>
      <point x="65" y="381" type="line"/>
      <point x="65" y="344" type="line"/>
      <point x="456" y="345" type="line"/>
    </contour>
    <contour>
      <point x="280" y="168" type="line"/>
      <point x="279" y="559" type="line"/>
      <point x="242" y="559" type="line"/>
      <point x="243" y="168" type="line"/>
    </contour>
  </outline>
</glyph>
<glyph name="comma" format="1">
  <advance width="206"/>
  <unicode hex="002C"/>
  <outline>
    <contour>
      <point x="40" y="-111" type="line"/>
      <point x="72" y="-111" type="line"/>
      <point x="141" y="12" type="line"/>
      <point x="141" y="80" type="line"/>
      <point x="58" y="80" type="line"/>
      <point x="58" y="0" type="line"/>
      <point x="94" y="0" type="line"/>
    </contour>
  </outline>
</glyph>
<glyph name="hyphen" format="1">
  <advance width="365"/>
  <unicode hex="002D"/>
  <outline>
    <contour>
      <point x="300" y="279" type="line"/>
      <point x="65" y="278" type="line"/>
      <point x="65" y="239" type="line"/>
      <point x="300" y="240" type="line"/>
    </contour>
  </outline>
</glyph>
<glyph name="period" format="1">
  <advance width="181"/>
  <unicode hex="002E"/>
  <outline>
    <contour>
      <point x="121" y="77" type="line"/>
      <point x="60" y="77" type="line"/>
      <point x="60" y="0" type="line"/>
      <point x="121" y="0" type="line"/>
    </contour>
  </outline>
</glyph>
<glyph name="slash" format="1">
  <advance width="320"/>
  <unicode hex="002F"/>
  <outline>
    <contour>
      <point x="15" y="-59" type="line"/>
      <point x="57" y="-59" type="line"/>
      <point x="305" y="723" type="line"/>
      <point x="263" y="723" type="line"/>
    </contour>
  </outline>
</glyph>
<glyph name="zero" format="1">
  <advance width="584"/>
  <unicode hex="0030"/>
  <outline>
    <contour>
      <point x="292" y="733" type="curve" smooth="yes"/>
      <point x="151" y="733"/>
      <point x="55" y="611"/>
      <point x="55" y="358" type="curve" smooth="yes"/>
      <point x="55" y="108"/>
      <point x="149" y="-10"/>
      <point x="291" y="-10" type="curve" smooth="yes"/>
      <point x="433" y="-10"/>
      <point x="529" y="109"/>
      <point x="529" y="360" type="curve" smooth="yes"/>
      <point x="529" y="612"/>
      <point x="433" y="733"/>
    </contour>
    <contour>
      <point x="293" y="31" type="curve" smooth="yes"/>
      <point x="173" y="31"/>
      <point x="98" y="130"/>
      <point x="98" y="360" type="curve" smooth="yes"/>
      <point x="98" y="592"/>
      <point x="173" y="692"/>
      <point x="292" y="692" type="curve" smooth="yes"/>
      <point x="411" y="692"/>
      <point x="485" y="593"/>
      <point x="485" y="360" type="curve" smooth="yes"/>
      <point x="485" y="129"/>
      <point x="413" y="31"/>
    </contour>
  </outline>
</glyph>
<glyph name="one" format="1">
  <advance width="383"/>
  <unicode hex="0031"/>
  <outline>
    <contour>
      <point x="200" y="0" type="line"/>
      <point x="243" y="0" type="line"/>
      <point x="243" y="723" type="line"/>
      <point x="208" y="723" type="line"/>
      <point x="208" y="668"/>
      <point x="185" y="648"/>
      <point x="50" y="648" type="curve"/>
      <point x="50" y="609" type="line"/>
      <point x="200" y="609" type="line"/>
    </contour>
  </outline>
</glyph>
<glyph name="two" format="1">
  <advance width="575"/>
  <unicode hex="0032"/>
  <outline>
    <contour>
      <point x="78" y="0" type="line"/>
      <point x="515" y="0" type="line"/>
      <point x="515" y="41" type="line"/>
      <point x="121" y="41" type="line"/>
      <point x="121" y="63" type="line" smooth="yes"/>
      <point x="121" y="298"/>
      <point x="507" y="277"/>
      <point x="507" y="540" type="curve" smooth="yes"/>
      <point x="507" y="656"/>
      <point x="422" y="733"/>
      <point x="294" y="733" type="curve" smooth="yes"/>
      <point x="146" y="733"/>
      <point x="64" y="636"/>
      <point x="60" y="524" type="curve"/>
      <point x="104" y="524" type="line"/>
      <point x="108" y="618"/>
      <point x="174" y="691"/>
      <point x="290" y="691" type="curve" smooth="yes"/>
      <point x="396" y="691"/>
      <point x="465" y="631"/>
      <point x="465" y="541" type="curve" smooth="yes"/>
      <point x="465" y="308"/>
      <point x="78" y="325"/>
      <point x="78" y="63" type="curve" smooth="yes"/>
      <point x="78" y="41" type="line"/>
    </contour>
  </outline>
</glyph>
<glyph name="three" format="1">
  <advance width="600"/>
  <unicode hex="0033"/>
  <outline>
    <contour>
      <point x="64" y="524" type="curve"/>
      <point x="108" y="524" type="line"/>
      <point x="108" y="636"/>
      <point x="204" y="692"/>
      <point x="290" y="692" type="curve" smooth="yes"/>
      <point x="414" y="692"/>
      <point x="474" y="622"/>
      <point x="474" y="554" type="curve" smooth="yes"/>
      <point x="474" y="475"/>
      <point x="384" y="401"/>
      <point x="271" y="401" type="curve" smooth="yes"/>
      <point x="210" y="401" type="line"/>
      <point x="210" y="360" type="line"/>
      <point x="271" y="360" type="line" smooth="yes"/>
      <point x="394" y="360"/>
      <point x="496" y="304"/>
      <point x="496" y="191" type="curve" smooth="yes"/>
      <point x="496" y="95"/>
      <point x="413" y="31"/>
      <point x="289" y="31" type="curve" smooth="yes"/>
      <point x="180" y="31"/>
      <point x="107" y="95"/>
      <point x="94" y="192" type="curve"/>
      <point x="50" y="192" type="line"/>
      <point x="56" y="71"/>
      <point x="159" y="-8"/>
      <point x="284" y="-10" type="curve" smooth="yes"/>
      <point x="439" y="-12"/>
      <point x="540" y="72"/>
      <point x="540" y="194" type="curve" smooth="yes"/>
      <point x="540" y="284"/>
      <point x="484" y="354"/>
      <point x="374" y="384" type="curve"/>
      <point x="468" y="417"/>
      <point x="518" y="482"/>
      <point x="518" y="554" type="curve" smooth="yes"/>
      <point x="518" y="661"/>
      <point x="427" y="733"/>
      <point x="288" y="733" type="curve" smooth="yes"/>
      <point x="168" y="733"/>
      <point x="64" y="649"/>
    </contour>
  </outline>
</glyph>
<glyph name="four" format="1">
  <advance width="607"/>
  <unicode hex="0034"/>
  <outline>
    <contour>
      <point x="394" y="723" type="line"/>
      <point x="50" y="258" type="line"/>
      <point x="50" y="209" type="line"/>
      <point x="398" y="209" type="line"/>
      <point x="398" y="0" type="line"/>
      <point x="439" y="0" type="line"/>
      <point x="439" y="209" type="line"/>
      <point x="567" y="209" type="line"/>
      <point x="567" y="250" type="line"/>
      <point x="439" y="250" type="line"/>
      <point x="439" y="723" type="line"/>
    </contour>
    <contour>
      <point x="92" y="250" type="line"/>
      <point x="394" y="656" type="line"/>
      <point x="394" y="250" type="line"/>
    </contour>
  </outline>
</glyph>
<glyph name="five" format="1">
  <advance width="626"/>
  <unicode hex="0035"/>
  <outline>
    <contour>
      <point x="122" y="723" type="line"/>
      <point x="90" y="338" type="line"/>
      <point x="139" y="338" type="line" smooth="yes"/>
      <point x="139" y="338"/>
      <point x="139" y="338"/>
      <point x="139" y="338" type="curve" smooth="yes"/>
      <point x="199" y="420"/>
      <point x="255" y="432"/>
      <point x="328" y="432" type="curve" smooth="yes"/>
      <point x="426" y="432"/>
      <point x="517" y="359"/>
      <point x="517" y="236" type="curve" smooth="yes"/>
      <point x="517" y="104"/>
      <point x="438" y="29"/>
      <point x="319" y="29" type="curve" smooth="yes"/>
      <point x="215" y="29"/>
      <point x="136" y="93"/>
      <point x="106" y="190" type="curve"/>
      <point x="60" y="190" type="line"/>
      <point x="89" y="70"/>
      <point x="192" y="-10"/>
      <point x="317" y="-10" type="curve" smooth="yes"/>
      <point x="463" y="-10"/>
      <point x="561" y="89"/>
      <point x="561" y="237" type="curve" smooth="yes"/>
      <point x="561" y="393"/>
      <point x="445" y="471"/>
      <point x="328" y="471" type="curve" smooth="yes"/>
      <point x="253" y="471"/>
      <point x="184" y="449"/>
      <point x="141" y="390" type="curve"/>
      <point x="164" y="683" type="line"/>
      <point x="521" y="683" type="line"/>
      <point x="521" y="723" type="line"/>
    </contour>
  </outline>
</glyph>
<glyph name="six" format="1">
  <advance width="585"/>
  <unicode hex="0036"/>
  <outline>
    <contour>
      <point x="317" y="741" type="curve" smooth="yes"/>
      <point x="141" y="741"/>
      <point x="55" y="589"/>
      <point x="55" y="362" type="curve" smooth="yes"/>
      <point x="55" y="129"/>
      <point x="156" y="-2"/>
      <point x="307" y="-2" type="curve" smooth="yes"/>
      <point x="452" y="-2"/>
      <point x="535" y="97"/>
      <point x="535" y="245" type="curve" smooth="yes"/>
      <point x="535" y="395"/>
      <point x="442" y="481"/>
      <point x="303" y="481" type="curve" smooth="yes"/>
      <point x="201" y="481"/>
      <point x="117" y="411"/>
      <point x="96" y="312" type="curve"/>
      <point x="86" y="577"/>
      <point x="165" y="702"/>
      <point x="317" y="702" type="curve" smooth="yes"/>
      <point x="406" y="702"/>
      <point x="469" y="650"/>
      <point x="490" y="574" type="curve"/>
      <point x="531" y="574" type="line"/>
      <point x="507" y="680"/>
      <point x="421" y="741"/>
    </contour>
    <contour>
      <point x="308" y="440" type="curve" smooth="yes"/>
      <point x="434" y="440"/>
      <point x="490" y="361"/>
      <point x="490" y="243" type="curve" smooth="yes"/>
      <point x="490" y="121"/>
      <point x="418" y="39"/>
      <point x="310" y="39" type="curve" smooth="yes"/>
      <point x="193" y="39"/>
      <point x="116" y="137"/>
      <point x="118" y="262" type="curve"/>
      <point x="118" y="364"/>
      <point x="210" y="440"/>
    </contour>
  </outline>
</glyph>
<glyph name="seven" format="1">
  <advance width="575"/>
  <unicode hex="0037"/>
  <outline>
    <contour>
      <point x="50" y="723" type="line"/>
      <point x="50" y="683" type="line"/>
      <point x="474" y="683" type="line"/>
      <point x="316" y="436"/>
      <point x="212" y="147"/>
      <point x="179" y="0" type="curve"/>
      <point x="223" y="0" type="line"/>
      <point x="251" y="137"/>
      <point x="382" y="473"/>
      <point x="525" y="683" type="curve"/>
      <point x="525" y="723" type="line"/>
    </contour>
  </outline>
</glyph>
<glyph name="eight" format="1">
  <advance width="639"/>
  <unicode hex="0038"/>
  <outline>
    <contour>
      <point x="319" y="737" type="curve" smooth="yes"/>
      <point x="191" y="737"/>
      <point x="92" y="667"/>
      <point x="92" y="546" type="curve" smooth="yes"/>
      <point x="92" y="463"/>
      <point x="140" y="415"/>
      <point x="214" y="387" type="curve"/>
      <point x="135" y="373"/>
      <point x="60" y="286"/>
      <point x="60" y="201" type="curve" smooth="yes"/>
      <point x="60" y="80"/>
      <point x="161" y="-1"/>
      <point x="319" y="-1" type="curve" smooth="yes"/>
      <point x="478" y="-1"/>
      <point x="579" y="80"/>
      <point x="579" y="201" type="curve" smooth="yes"/>
      <point x="579" y="286"/>
      <point x="504" y="373"/>
      <point x="425" y="387" type="curve"/>
      <point x="499" y="415"/>
      <point x="546" y="463"/>
      <point x="546" y="546" type="curve" smooth="yes"/>
      <point x="546" y="667"/>
      <point x="448" y="737"/>
    </contour>
    <contour>
      <point x="319" y="409" type="curve" smooth="yes"/>
      <point x="210" y="409"/>
      <point x="136" y="456"/>
      <point x="136" y="548" type="curve" smooth="yes"/>
      <point x="136" y="639"/>
      <point x="210" y="697"/>
      <point x="319" y="697" type="curve" smooth="yes"/>
      <point x="428" y="697"/>
      <point x="502" y="640"/>
      <point x="502" y="548" type="curve" smooth="yes"/>
      <point x="502" y="456"/>
      <point x="429" y="409"/>
    </contour>
    <contour>
      <point x="319" y="38" type="curve" smooth="yes"/>
      <point x="190" y="38"/>
      <point x="104" y="101"/>
      <point x="104" y="198" type="curve" smooth="yes"/>
      <point x="104" y="294"/>
      <point x="190" y="364"/>
      <point x="319" y="364" type="curve" smooth="yes"/>
      <point x="449" y="364"/>
      <point x="535" y="294"/>
      <point x="535" y="198" type="curve" smooth="yes"/>
      <point x="535" y="101"/>
      <point x="449" y="38"/>
    </contour>
  </outline>
</glyph>
<glyph name="nine" format="1">
  <advance width="595"/>
  <unicode hex="0039"/>
  <outline>
    <contour>
      <point x="274" y="-2" type="curve" smooth="yes"/>
      <point x="450" y="-2"/>
      <point x="540" y="150"/>
      <point x="540" y="377" type="curve" smooth="yes"/>
      <point x="540" y="610"/>
      <point x="440" y="741"/>
      <point x="289" y="741" type="curve" smooth="yes"/>
      <point x="144" y="741"/>
      <point x="62" y="642"/>
      <point x="62" y="494" type="curve" smooth="yes"/>
      <point x="62" y="344"/>
      <point x="154" y="258"/>
      <point x="293" y="258" type="curve" smooth="yes"/>
      <point x="395" y="258"/>
      <point x="479" y="328"/>
      <point x="500" y="427" type="curve"/>
      <point x="510" y="162"/>
      <point x="426" y="37"/>
      <point x="274" y="37" type="curve" smooth="yes"/>
      <point x="185" y="37"/>
      <point x="117" y="88"/>
      <point x="96" y="164" type="curve"/>
      <point x="55" y="164" type="line"/>
      <point x="79" y="58"/>
      <point x="170" y="-2"/>
    </contour>
    <contour>
      <point x="288" y="299" type="curve" smooth="yes"/>
      <point x="162" y="299"/>
      <point x="106" y="378"/>
      <point x="106" y="496" type="curve" smooth="yes"/>
      <point x="106" y="618"/>
      <point x="178" y="700"/>
      <point x="286" y="700" type="curve" smooth="yes"/>
      <point x="403" y="700"/>
      <point x="480" y="602"/>
      <point x="478" y="477" type="curve"/>
      <point x="478" y="375"/>
      <point x="386" y="299"/>
    </contour>
  </outline>
</glyph>
<glyph name="colon" format="1">
  <advance width="181"/>
  <unicode hex="003A"/>
  <outline>
    <contour>
      <point x="121" y="488" type="line"/>
      <point x="60" y="488" type="line"/>
      <point x="60" y="410" type="line"/>
      <point x="121" y="410" type="line"/>
    </contour>
    <contour>
      <point x="121" y="80" type="line"/>
      <point x="60" y="80" type="line"/>
      <point x="60" y="3" type="line"/>
      <point x="121" y="3" type="line"/>
    </contour>
  </outline>
</glyph>
<glyph name="semicolon" format="1">
  <advance width="202"/>
  <unicode hex="003B"/>
  <outline>
    <contour>
      <point x="60" y="-131" type="line"/>
      <point x="81" y="-131" type="line"/>
      <point x="142" y="9" type="line"/>
      <point x="142" y="77" type="line"/>
      <point x="81" y="77" type="line"/>
      <point x="81" y="0" type="line"/>
      <point x="109" y="0" type="line"/>
    </contour>
    <contour>
      <point x="76" y="410" type="line"/>
      <point x="137" y="410" type="line"/>
      <point x="137" y="488" type="line"/>
      <point x="76" y="488" type="line"/>
    </contour>
  </outline>
</glyph>
<glyph name="less" format="1">
  <advance width="514"/>
  <unicode hex="003C"/>
  <outline>
    <contour>
      <point x="448" y="219" type="line"/>
      <point x="125" y="349" type="line"/>
      <point x="449" y="478" type="line"/>
      <point x="449" y="527" type="line"/>
      <point x="65" y="372" type="line"/>
      <point x="65" y="325" type="line"/>
      <point x="448" y="174" type="line"/>
    </contour>
  </outline>
</glyph>
<glyph name="equal" format="1">
  <advance width="521"/>
  <unicode hex="003D"/>
  <outline>
    <contour>
      <point x="456" y="480" type="line"/>
      <point x="65" y="479" type="line"/>
      <point x="65" y="442" type="line"/>
      <point x="456" y="443" type="line"/>
    </contour>
    <contour>
      <point x="456" y="265" type="line"/>
      <point x="65" y="264" type="line"/>
      <point x="65" y="227" type="line"/>
      <point x="456" y="228" type="line"/>
    </contour>
  </outline>
</glyph>
<glyph name="greater" format="1">
  <advance width="513"/>
  <unicode hex="003E"/>
  <outline>
    <contour>
      <point x="66" y="219" type="line"/>
      <point x="66" y="174" type="line"/>
      <point x="448" y="325" type="line"/>
      <point x="448" y="372" type="line"/>
      <point x="65" y="527" type="line"/>
      <point x="65" y="478" type="line"/>
      <point x="389" y="349" type="line"/>
    </contour>
  </outline>
</glyph>
<glyph name="question" format="1">
  <advance width="517"/>
  <unicode hex="003F"/>
  <outline>
    <contour>
      <point x="266" y="77" type="line"/>
      <point x="206" y="77" type="line"/>
      <point x="206" y="0" type="line"/>
      <point x="266" y="0" type="line"/>
    </contour>
    <contour>
      <point x="35" y="608" type="curve"/>
      <point x="76" y="589" type="line"/>
      <point x="98" y="644"/>
      <point x="180" y="692"/>
      <point x="256" y="692" type="curve" smooth="yes"/>
      <point x="354" y="692"/>
      <point x="417" y="640"/>
      <point x="417" y="556" type="curve" smooth="yes"/>
      <point x="417" y="394"/>
      <point x="215" y="341"/>
      <point x="215" y="146" type="curve"/>
      <point x="256" y="146" type="line"/>
      <point x="256" y="328"/>
      <point x="462" y="380"/>
      <point x="462" y="556" type="curve" smooth="yes"/>
      <point x="462" y="664"/>
      <point x="382" y="733"/>
      <point x="256" y="733" type="curve" smooth="yes"/>
      <point x="163" y="733"/>
      <point x="77" y="684"/>
    </contour>
  </outline>
</glyph>
<glyph name="at" format="1">
  <advance width="810"/>
  <unicode hex="0040"/>
  <outline>
    <contour>
      <point x="646" y="-35" type="curve"/>
      <point x="620" y="-1" type="line"/>
      <point x="568" y="-37"/>
      <point x="525" y="-67"/>
      <point x="436" y="-67" type="curve" smooth="yes"/>
      <point x="209" y="-67"/>
      <point x="97" y="84"/>
      <point x="97" y="252" type="curve" smooth="yes"/>
      <point x="97" y="443"/>
      <point x="228" y="603"/>
      <point x="435" y="603" type="curve" smooth="yes"/>
      <point x="570" y="603"/>
      <point x="726" y="523"/>
      <point x="726" y="326" type="curve" smooth="yes"/>
      <point x="726" y="203"/>
      <point x="665" y="121"/>
      <point x="590" y="121" type="curve" smooth="yes"/>
      <point x="550" y="121"/>
      <point x="534" y="143"/>
      <point x="545" y="209" type="curve" smooth="yes"/>
      <point x="583" y="438" type="line"/>
      <point x="542" y="438" type="line"/>
      <point x="531" y="396" type="line" smooth="yes"/>
      <point x="530" y="391"/>
      <point x="526" y="391"/>
      <point x="525" y="393" type="curve" smooth="yes"/>
      <point x="503" y="436"/>
      <point x="461" y="463"/>
      <point x="408" y="463" type="curve" smooth="yes"/>
      <point x="303" y="463"/>
      <point x="225" y="364"/>
      <point x="225" y="237" type="curve" smooth="yes"/>
      <point x="225" y="133"/>
      <point x="288" y="65"/>
      <point x="356" y="65" type="curve" smooth="yes"/>
      <point x="424" y="65"/>
      <point x="466" y="96"/>
      <point x="495" y="137" type="curve" smooth="yes"/>
      <point x="501" y="144"/>
      <point x="504" y="144"/>
      <point x="506" y="135" type="curve" smooth="yes"/>
      <point x="515" y="92"/>
      <point x="542" y="79"/>
      <point x="589" y="79" type="curve" smooth="yes"/>
      <point x="693" y="79"/>
      <point x="775" y="182"/>
      <point x="775" y="332" type="curve" smooth="yes"/>
      <point x="775" y="550"/>
      <point x="600" y="644"/>
      <point x="436" y="644" type="curve" smooth="yes"/>
      <point x="208" y="644"/>
      <point x="50" y="465"/>
      <point x="50" y="254" type="curve" smooth="yes"/>
      <point x="50" y="54"/>
      <point x="189" y="-110"/>
      <point x="424" y="-110" type="curve" smooth="yes"/>
      <point x="506" y="-110"/>
      <point x="581" y="-83"/>
    </contour>
    <contour>
      <point x="274" y="238" type="curve" smooth="yes"/>
      <point x="274" y="338"/>
      <point x="327" y="420"/>
      <point x="410" y="420" type="curve" smooth="yes"/>
      <point x="466" y="420"/>
      <point x="524" y="371"/>
      <point x="507" y="259" type="curve" smooth="yes"/>
      <point x="493" y="176"/>
      <point x="431" y="108"/>
      <point x="361" y="108" type="curve" smooth="yes"/>
      <point x="307" y="108"/>
      <point x="274" y="156"/>
    </contour>
  </outline>
</glyph>
<glyph name="A" format="1">
  <advance width="1388"/>
  <unicode hex="0041"/>
  <outline>
    <contour>
      <point x="110" y="0" type="line"/>
      <point x="194" y="0" type="line"/>
      <point x="364" y="456" type="line"/>
      <point x="1026" y="456" type="line"/>
      <point x="1192" y="0" type="line"/>
      <point x="1278" y="0" type="line"/>
      <point x="750" y="1446" type="line"/>
      <point x="640" y="1446" type="line"/>
    </contour>
    <contour>
      <point x="392" y="542" type="line"/>
      <point x="696" y="1362" type="line"/>
      <point x="996" y="542" type="line"/>
    </contour>
    <contour>
      <point x="694" y="0" type="move" name="bottom"/>
    </contour>
    <contour>
      <point x="1274" y="24" type="move" name="ogonek"/>
    </contour>
    <contour>
      <point x="694" y="1446" type="move" name="top"/>
    </contour>
  </outline>
</glyph>
<glyph name="B" format="1">
  <advance width="647"/>
  <unicode hex="0042"/>
  <outline>
    <contour>
      <point x="105" y="0" type="line"/>
      <point x="311" y="0" type="line"/>
      <point x="482" y="0"/>
      <point x="582" y="64"/>
      <point x="582" y="193" type="curve"/>
      <point x="582" y="289"/>
      <point x="528" y="349"/>
      <point x="421" y="367" type="curve"/>
      <point x="525" y="397"/>
      <point x="564" y="454"/>
      <point x="564" y="536" type="curve" smooth="yes"/>
      <point x="564" y="657"/>
      <point x="470" y="723"/>
      <point x="308" y="723" type="curve" smooth="yes"/>
      <point x="105" y="723" type="line"/>
    </contour>
    <contour>
      <point x="144" y="41" type="line"/>
      <point x="144" y="345" type="line"/>
      <point x="320" y="345" type="line" smooth="yes"/>
      <point x="442" y="345"/>
      <point x="543" y="304"/>
      <point x="543" y="187" type="curve" smooth="yes"/>
      <point x="543" y="81"/>
      <point x="460" y="41"/>
      <point x="306" y="41" type="curve"/>
    </contour>
    <contour>
      <point x="144" y="386" type="line"/>
      <point x="144" y="683" type="line"/>
      <point x="304" y="683" type="line" smooth="yes"/>
      <point x="436" y="683"/>
      <point x="525" y="637"/>
      <point x="525" y="531" type="curve" smooth="yes"/>
      <point x="525" y="412"/>
      <point x="410" y="386"/>
      <point x="320" y="386" type="curve" smooth="yes"/>
    </contour>
  </outline>
</glyph>
<glyph name="C" format="1">
  <advance width="674"/>
  <unicode hex="0043"/>
  <outline>
    <contour>
      <point x="352" y="733" type="curve" smooth="yes"/>
      <point x="170" y="733"/>
      <point x="70" y="595"/>
      <point x="70" y="359" type="curve" smooth="yes"/>
      <point x="70" y="124"/>
      <point x="172" y="-10"/>
      <point x="360" y="-10" type="curve" smooth="yes"/>
      <point x="479" y="-10"/>
      <point x="594" y="69"/>
      <point x="605" y="173" type="curve"/>
      <point x="563" y="184" type="line"/>
      <point x="540" y="87"/>
      <point x="461" y="31"/>
      <point x="362" y="31" type="curve" smooth="yes"/>
      <point x="193" y="31"/>
      <point x="114" y="149"/>
      <point x="114" y="359" type="curve" smooth="yes"/>
      <point x="114" y="576"/>
      <point x="195" y="692"/>
      <point x="354" y="692" type="curve" smooth="yes"/>
      <point x="478" y="692"/>
      <point x="547" y="623"/>
      <point x="566" y="529" type="curve"/>
      <point x="609" y="536" type="line"/>
      <point x="597" y="640"/>
      <point x="500" y="733"/>
    </contour>
    <contour>
      <point x="360" y="0" type="move" name="bottom"/>
    </contour>
    <contour>
      <point x="353" y="723" type="move" name="top"/>
    </contour>
  </outline>
</glyph>
<glyph name="D" format="1">
  <advance width="667"/>
  <unicode hex="0044"/>
  <outline>
    <contour>
      <point x="105" y="723" type="curve"/>
      <point x="105" y="0" type="line"/>
      <point x="211" y="0" type="line" smooth="yes"/>
      <point x="477" y="0"/>
      <point x="602" y="112"/>
      <point x="602" y="367" type="curve" smooth="yes"/>
      <point x="602" y="608"/>
      <point x="493" y="721"/>
      <point x="225" y="722" type="curve" smooth="yes"/>
      <point x="165" y="722"/>
      <point x="107" y="723"/>
    </contour>
    <contour>
      <point x="148" y="682" type="line"/>
      <point x="214" y="682" type="line" smooth="yes"/>
      <point x="435" y="682"/>
      <point x="560" y="612"/>
      <point x="560" y="363" type="curve" smooth="yes"/>
      <point x="560" y="127"/>
      <point x="442" y="41"/>
      <point x="208" y="41" type="curve" smooth="yes"/>
      <point x="148" y="41" type="line"/>
    </contour>
    <contour>
      <point x="352" y="0" type="move" name="bottom"/>
    </contour>
    <contour>
      <point x="326" y="362" type="move" name="center"/>
    </contour>
    <contour>
      <point x="320" y="723" type="move" name="top"/>
    </contour>
  </outline>
</glyph>
<glyph name="E" format="1">
  <advance width="1208"/>
  <unicode hex="0045"/>
  <outline>
    <contour>
      <point x="210" y="0" type="line"/>
      <point x="1068" y="0" type="line"/>
      <point x="1068" y="82" type="line"/>
      <point x="288" y="84" type="line"/>
      <point x="288" y="690" type="line"/>
      <point x="988" y="690" type="line"/>
      <point x="988" y="772" type="line"/>
      <point x="288" y="772" type="line"/>
      <point x="288" y="1366" type="line"/>
      <point x="1040" y="1366" type="line"/>
      <point x="1040" y="1446" type="line"/>
      <point x="210" y="1446" type="line"/>
    </contour>
    <contour>
      <point x="684" y="0" type="move" name="bottom"/>
    </contour>
    <contour>
      <point x="1058" y="20" type="move" name="ogonek"/>
    </contour>
    <contour>
      <point x="630" y="1446" type="move" name="top"/>
    </contour>
  </outline>
</glyph>
<glyph name="F" format="1">
  <advance width="559"/>
  <unicode hex="0046"/>
  <outline>
    <contour>
      <point x="105" y="723" type="line"/>
      <point x="105" y="0" type="line"/>
      <point x="148" y="0" type="line"/>
      <point x="148" y="346" type="line"/>
      <point x="488" y="346" type="line"/>
      <point x="488" y="387" type="line"/>
      <point x="148" y="387" type="line"/>
      <point x="148" y="683" type="line"/>
      <point x="514" y="683" type="line"/>
      <point x="514" y="723" type="line"/>
    </contour>
  </outline>
</glyph>
<glyph name="G" format="1">
  <advance width="712"/>
  <unicode hex="0047"/>
  <outline>
    <contour>
      <point x="358" y="-10" type="curve" smooth="yes"/>
      <point x="470" y="-10"/>
      <point x="544" y="50"/>
      <point x="583" y="126" type="curve"/>
      <point x="583" y="0" type="line"/>
      <point x="622" y="0" type="line"/>
      <point x="622" y="368" type="line"/>
      <point x="381" y="368" type="line"/>
      <point x="381" y="333" type="line"/>
      <point x="583" y="333" type="line"/>
      <point x="583" y="249" type="line" smooth="yes"/>
      <point x="583" y="157"/>
      <point x="513" y="29"/>
      <point x="359" y="29" type="curve" smooth="yes"/>
      <point x="200" y="29"/>
      <point x="111" y="149"/>
      <point x="111" y="365" type="curve" smooth="yes"/>
      <point x="111" y="569"/>
      <point x="202" y="692"/>
      <point x="359" y="692" type="curve" smooth="yes"/>
      <point x="463" y="692"/>
      <point x="546" y="621"/>
      <point x="561" y="530" type="curve"/>
      <point x="607" y="538" type="line"/>
      <point x="596" y="644"/>
      <point x="479" y="733"/>
      <point x="359" y="733" type="curve" smooth="yes"/>
      <point x="182" y="733"/>
      <point x="70" y="599"/>
      <point x="70" y="359" type="curve" smooth="yes"/>
      <point x="70" y="126"/>
      <point x="177" y="-10"/>
    </contour>
    <contour>
      <point x="358" y="0" type="move" name="bottom"/>
    </contour>
    <contour>
      <point x="359" y="723" type="move" name="top"/>
    </contour>
  </outline>
</glyph>
<glyph name="H" format="1">
  <advance width="682"/>
  <unicode hex="0048"/>
  <outline>
    <contour>
      <point x="543" y="356" type="line"/>
      <point x="543" y="0" type="line"/>
      <point x="582" y="0" type="line"/>
      <point x="582" y="723" type="line"/>
      <point x="543" y="723" type="line"/>
      <point x="543" y="397" type="line"/>
      <point x="144" y="397" type="line"/>
      <point x="144" y="723" type="line"/>
      <point x="105" y="723" type="line"/>
      <point x="105" y="0" type="line"/>
      <point x="144" y="0" type="line"/>
      <point x="144" y="356" type="line"/>
    </contour>
    <contour>
      <point x="344" y="0" type="move" name="bottom"/>
    </contour>
    <contour>
      <point x="344" y="723" type="move" name="top"/>
    </contour>
  </outline>
</glyph>
<glyph name="I" format="1">
  <advance width="244"/>
  <unicode hex="0049"/>
  <outline>
    <contour>
      <point x="105" y="723" type="line"/>
      <point x="105" y="0" type="line"/>
      <point x="144" y="0" type="line"/>
      <point x="144" y="723" type="line"/>
    </contour>
    <contour>
      <point x="126" y="0" type="move" name="bottom"/>
    </contour>
    <contour>
      <point x="139" y="10" type="move" name="ogonek"/>
    </contour>
    <contour>
      <point x="125" y="723" type="move" name="top"/>
    </contour>
  </outline>
</glyph>
<glyph name="J" format="1">
  <advance width="362"/>
  <unicode hex="004A"/>
  <outline>
    <contour>
      <point x="257" y="140" type="curve" smooth="yes"/>
      <point x="257" y="723" type="line"/>
      <point x="218" y="723" type="line"/>
      <point x="218" y="154" type="line" smooth="yes"/>
      <point x="218" y="63"/>
      <point x="196" y="31"/>
      <point x="133" y="31" type="curve" smooth="yes"/>
      <point x="82" y="31"/>
      <point x="57" y="52"/>
      <point x="35" y="62" type="curve"/>
      <point x="25" y="19" type="line"/>
      <point x="32" y="13"/>
      <point x="78" y="-10"/>
      <point x="135" y="-10" type="curve" smooth="yes"/>
      <point x="229" y="-10"/>
      <point x="257" y="48"/>
    </contour>
    <contour>
      <point x="237" y="723" type="move" name="top"/>
    </contour>
  </outline>
</glyph>
<glyph name="K" format="1">
  <advance width="1282"/>
  <unicode hex="004B"/>
  <outline>
    <contour>
      <point x="1202" y="0" type="line"/>
      <point x="646" y="876" type="line"/>
      <point x="1168" y="1446" type="line"/>
      <point x="1060" y="1446" type="line"/>
      <point x="292" y="612" type="line"/>
      <point x="292" y="1446" type="line"/>
      <point x="210" y="1446" type="line"/>
      <point x="210" y="0" type="line"/>
      <point x="292" y="0" type="line"/>
      <point x="292" y="496" type="line"/>
      <point x="578" y="814" type="line"/>
      <point x="1098" y="0" type="line"/>
    </contour>
    <contour>
      <point x="654" y="0" type="move" name="bottom"/>
    </contour>
    <contour>
      <point x="688" y="1446" type="move" name="top"/>
    </contour>
  </outline>
</glyph>
<glyph name="L" format="1">
  <advance width="552"/>
  <unicode hex="004C"/>
  <outline>
    <contour>
      <point x="106" y="723" type="line"/>
      <point x="105" y="0" type="line"/>
      <point x="517" y="0" type="line"/>
      <point x="517" y="43" type="line"/>
      <point x="148" y="43" type="line"/>
      <point x="148" y="723" type="line"/>
    </contour>
    <contour>
      <point x="305" y="0" type="move" name="bottom"/>
    </contour>
    <contour>
      <point x="128" y="723" type="move" name="top"/>
    </contour>
    <contour>
      <point x="405" y="723" type="move" name="topright"/>
    </contour>
  </outline>
</glyph>
<glyph name="M" format="1">
  <advance width="838"/>
  <unicode hex="004D"/>
  <outline>
    <contour>
      <point x="105" y="0" type="line"/>
      <point x="148" y="0" type="line"/>
      <point x="148" y="608" type="line"/>
      <point x="391" y="0" type="line"/>
      <point x="449" y="0" type="line"/>
      <point x="695" y="616" type="line"/>
      <point x="695" y="0" type="line"/>
      <point x="738" y="0" type="line"/>
      <point x="738" y="723" type="line"/>
      <point x="695" y="723" type="line"/>
      <point x="420" y="44" type="line"/>
      <point x="149" y="723" type="line"/>
      <point x="105" y="723" type="line"/>
    </contour>
  </outline>
</glyph>
<glyph name="N" format="1">
  <advance width="711"/>
  <unicode hex="004E"/>
  <outline>
    <contour>
      <point x="572" y="723" type="line"/>
      <point x="572" y="78" type="line"/>
      <point x="137" y="723" type="line"/>
      <point x="105" y="723" type="line"/>
      <point x="105" y="0" type="line"/>
      <point x="144" y="0" type="line"/>
      <point x="144" y="643" type="line"/>
      <point x="577" y="0" type="line"/>
      <point x="611" y="0" type="line"/>
      <point x="611" y="723" type="line"/>
    </contour>
    <contour>
      <point x="334" y="0" type="move" name="bottom"/>
    </contour>
    <contour>
      <point x="358" y="723" type="move" name="top"/>
    </contour>
  </outline>
</glyph>
<glyph name="O" format="1">
  <advance width="727"/>
  <unicode hex="004F"/>
  <outline>
    <contour>
      <point x="364" y="-10" type="curve" smooth="yes"/>
      <point x="547" y="-10"/>
      <point x="657" y="119"/>
      <point x="657" y="360" type="curve" smooth="yes"/>
      <point x="657" y="603"/>
      <point x="547" y="733"/>
      <point x="365" y="733" type="curve" smooth="yes"/>
      <point x="181" y="733"/>
      <point x="70" y="602"/>
      <point x="70" y="358" type="curve" smooth="yes"/>
      <point x="70" y="118"/>
      <point x="180" y="-10"/>
    </contour>
    <contour>
      <point x="366" y="31" type="curve" smooth="yes"/>
      <point x="204" y="31"/>
      <point x="114" y="139"/>
      <point x="114" y="360" type="curve" smooth="yes"/>
      <point x="114" y="582"/>
      <point x="204" y="692"/>
      <point x="365" y="692" type="curve" smooth="yes"/>
      <point x="525" y="692"/>
      <point x="613" y="583"/>
      <point x="613" y="360" type="curve" smooth="yes"/>
      <point x="613" y="138"/>
      <point x="527" y="31"/>
    </contour>
    <contour>
      <point x="366" y="0" type="move" name="bottom"/>
    </contour>
    <contour>
      <point x="554" y="606" type="move" name="horn"/>
    </contour>
    <contour>
      <point x="434" y="9" type="move" name="ogonek"/>
    </contour>
    <contour>
      <point x="366" y="723" type="move" name="top"/>
    </contour>
  </outline>
</glyph>
<glyph name="P" format="1">
  <advance width="623"/>
  <unicode hex="0050"/>
  <outline>
    <contour>
      <point x="105" y="0" type="line"/>
      <point x="148" y="0" type="line"/>
      <point x="148" y="277" type="line"/>
      <point x="334" y="277" type="line" smooth="yes"/>
      <point x="482" y="277"/>
      <point x="588" y="358"/>
      <point x="588" y="503" type="curve" smooth="yes"/>
      <point x="588" y="648"/>
      <point x="480" y="723"/>
      <point x="328" y="723" type="curve" smooth="yes"/>
      <point x="105" y="723" type="line"/>
    </contour>
    <contour>
      <point x="148" y="320" type="line"/>
      <point x="148" y="681" type="line"/>
      <point x="327" y="681" type="line" smooth="yes"/>
      <point x="459" y="681"/>
      <point x="544" y="626"/>
      <point x="544" y="506" type="curve" smooth="yes"/>
      <point x="544" y="386"/>
      <point x="459" y="320"/>
      <point x="334" y="320" type="curve" smooth="yes"/>
    </contour>
  </outline>
</glyph>
<glyph name="Q" format="1">
  <advance width="1414"/>
  <unicode hex="0051"/>
  <outline>
    <contour>
      <point x="110" y="720" type="curve" smooth="yes"/>
      <point x="110" y="226"/>
      <point x="340" y="-20"/>
      <point x="698" y="-20" type="curve" smooth="yes"/>
      <point x="754" y="-20"/>
      <point x="810" y="-12"/>
      <point x="874" y="2" type="curve"/>
      <point x="976" y="-196"/>
      <point x="1170" y="-238"/>
      <point x="1266" y="-238" type="curve"/>
      <point x="1266" y="-158" type="line"/>
      <point x="1138" y="-152"/>
      <point x="1026" y="-100"/>
      <point x="960" y="36" type="curve"/>
      <point x="1194" y="158"/>
      <point x="1284" y="388"/>
      <point x="1284" y="720" type="curve" smooth="yes"/>
      <point x="1284" y="1210"/>
      <point x="1064" y="1466"/>
      <point x="698" y="1466" type="curve" smooth="yes"/>
      <point x="332" y="1466"/>
      <point x="110" y="1210"/>
    </contour>
    <contour>
      <point x="198" y="716" type="curve" smooth="yes"/>
      <point x="198" y="1154"/>
      <point x="372" y="1384"/>
      <point x="698" y="1384" type="curve" smooth="yes"/>
      <point x="1024" y="1384"/>
      <point x="1198" y="1154"/>
      <point x="1198" y="720" type="curve" smooth="yes"/>
      <point x="1198" y="274"/>
      <point x="1018" y="62"/>
      <point x="698" y="62" type="curve" smooth="yes"/>
      <point x="378" y="62"/>
      <point x="198" y="274"/>
    </contour>
  </outline>
</glyph>
<glyph name="R" format="1">
  <advance width="657"/>
  <unicode hex="0052"/>
  <outline>
    <contour>
      <point x="578" y="0" type="line"/>
      <point x="428" y="353" type="line"/>
      <point x="498" y="371"/>
      <point x="582" y="423"/>
      <point x="582" y="544" type="curve" smooth="yes"/>
      <point x="582" y="663"/>
      <point x="500" y="723"/>
      <point x="360" y="723" type="curve" smooth="yes"/>
      <point x="105" y="723" type="line"/>
      <point x="105" y="0" type="line"/>
      <point x="144" y="0" type="line"/>
      <point x="144" y="344" type="line"/>
      <point x="387" y="344" type="line"/>
      <point x="533" y="0" type="line"/>
    </contour>
    <contour>
      <point x="326" y="385" type="curve" smooth="yes"/>
      <point x="144" y="385" type="line"/>
      <point x="144" y="683" type="line"/>
      <point x="359" y="683" type="line" smooth="yes"/>
      <point x="477" y="683"/>
      <point x="540" y="640"/>
      <point x="540" y="537" type="curve" smooth="yes"/>
      <point x="540" y="428"/>
      <point x="465" y="385"/>
    </contour>
    <contour>
      <point x="321" y="0" type="move" name="bottom"/>
    </contour>
    <contour>
      <point x="314" y="723" type="move" name="top"/>
    </contour>
  </outline>
</glyph>
<glyph name="S" format="1">
  <advance width="676"/>
  <unicode hex="0053"/>
  <outline>
    <contour>
      <point x="339" y="-10" type="curve" smooth="yes"/>
      <point x="510" y="-10"/>
      <point x="596" y="75"/>
      <point x="596" y="177" type="curve" smooth="yes"/>
      <point x="596" y="259"/>
      <point x="555" y="334"/>
      <point x="441" y="364" type="curve" smooth="yes"/>
      <point x="287" y="404" type="line" smooth="yes"/>
      <point x="173" y="434"/>
      <point x="136" y="471"/>
      <point x="136" y="533" type="curve" smooth="yes"/>
      <point x="136" y="643"/>
      <point x="247" y="691"/>
      <point x="333" y="691" type="curve" smooth="yes"/>
      <point x="431" y="691"/>
      <point x="522" y="650"/>
      <point x="542" y="532" type="curve"/>
      <point x="582" y="540" type="line"/>
      <point x="572" y="640"/>
      <point x="499" y="732"/>
      <point x="335" y="732" type="curve" smooth="yes"/>
      <point x="189" y="732"/>
      <point x="93" y="646"/>
      <point x="93" y="532" type="curve" smooth="yes"/>
      <point x="93" y="446"/>
      <point x="153" y="399"/>
      <point x="260" y="372" type="curve" smooth="yes"/>
      <point x="421" y="332" type="line" smooth="yes"/>
      <point x="514" y="309"/>
      <point x="553" y="252"/>
      <point x="553" y="175" type="curve" smooth="yes"/>
      <point x="553" y="90"/>
      <point x="465" y="29"/>
      <point x="339" y="29" type="curve" smooth="yes"/>
      <point x="233" y="29"/>
      <point x="134" y="78"/>
      <point x="112" y="176" type="curve"/>
      <point x="70" y="167" type="line"/>
      <point x="92" y="55"/>
      <point x="207" y="-10"/>
    </contour>
    <contour>
      <point x="327" y="0" type="move" name="bottom"/>
    </contour>
    <contour>
      <point x="333" y="723" type="move" name="top"/>
    </contour>
  </outline>
</glyph>
<glyph name="T" format="1">
  <advance width="545"/>
  <unicode hex="0054"/>
  <outline>
    <contour>
      <point x="15" y="683" type="line"/>
      <point x="263" y="683" type="line"/>
      <point x="263" y="0" type="line"/>
      <point x="302" y="0" type="line"/>
      <point x="302" y="683" type="line"/>
      <point x="530" y="683" type="line"/>
      <point x="530" y="723" type="line"/>
      <point x="15" y="723" type="line"/>
    </contour>
    <contour>
      <point x="284" y="2" type="move" name="bottom"/>
    </contour>
    <contour>
      <point x="284" y="723" type="move" name="top"/>
    </contour>
  </outline>
</glyph>
<glyph name="U" format="1">
  <advance width="1378"/>
  <unicode hex="0055"/>
  <outline>
    <contour>
      <point x="1168" y="448" type="curve" smooth="yes"/>
      <point x="1168" y="1446" type="line"/>
      <point x="1090" y="1446" type="line"/>
      <point x="1090" y="444" type="line" smooth="yes"/>
      <point x="1090" y="188"/>
      <point x="956" y="56"/>
      <point x="688" y="56" type="curve" smooth="yes"/>
      <point x="422" y="56"/>
      <point x="296" y="192"/>
      <point x="296" y="444" type="curve" smooth="yes"/>
      <point x="296" y="1446" type="line"/>
      <point x="210" y="1446" type="line"/>
      <point x="210" y="478" type="line" smooth="yes"/>
      <point x="210" y="138"/>
      <point x="360" y="-20"/>
      <point x="688" y="-20" type="curve" smooth="yes"/>
      <point x="1010" y="-20"/>
      <point x="1168" y="134"/>
    </contour>
    <contour>
      <point x="686" y="4" type="move" name="bottom"/>
    </contour>
    <contour>
      <point x="1138" y="1212" type="move" name="horn"/>
    </contour>
    <contour>
      <point x="828" y="18" type="move" name="ogonek"/>
    </contour>
    <contour>
      <point x="692" y="1446" type="move" name="top"/>
    </contour>
  </outline>
</glyph>
<glyph name="V" format="1">
  <advance width="606"/>
  <unicode hex="0056"/>
  <outline>
    <contour>
      <point x="591" y="723" type="line"/>
      <point x="549" y="723" type="line"/>
      <point x="300" y="41" type="line"/>
      <point x="58" y="723" type="line"/>
      <point x="15" y="723" type="line"/>
      <point x="271" y="0" type="line"/>
      <point x="329" y="0" type="line"/>
    </contour>
  </outline>
</glyph>
<glyph name="W" format="1">
  <advance width="1888"/>
  <unicode hex="0057"/>
  <outline>
    <contour>
      <point x="1828" y="1446" type="line"/>
      <point x="1742" y="1446" type="line"/>
      <point x="1358" y="98" type="line"/>
      <point x="980" y="1446" type="line"/>
      <point x="902" y="1446" type="line"/>
      <point x="518" y="98" type="line"/>
      <point x="148" y="1446" type="line"/>
      <point x="60" y="1446" type="line"/>
      <point x="466" y="0" type="line"/>
      <point x="570" y="0" type="line"/>
      <point x="940" y="1296" type="line"/>
      <point x="1302" y="0" type="line"/>
      <point x="1412" y="0" type="line"/>
    </contour>
    <contour>
      <point x="942" y="1446" type="move" name="top"/>
    </contour>
  </outline>
</glyph>
<glyph name="X" format="1">
  <advance width="612"/>
  <unicode hex="0058"/>
  <outline>
    <contour>
      <point x="582" y="0" type="line"/>
      <point x="331" y="371" type="line"/>
      <point x="569" y="723" type="line"/>
      <point x="519" y="723" type="line"/>
      <point x="305" y="408" type="line"/>
      <point x="93" y="723" type="line"/>
      <point x="41" y="723" type="line"/>
      <point x="280" y="371" type="line"/>
      <point x="30" y="0" type="line"/>
      <point x="80" y="0" type="line"/>
      <point x="306" y="332" type="line"/>
      <point x="532" y="0" type="line"/>
    </contour>
  </outline>
</glyph>
<glyph name="Y" format="1">
  <advance width="1078"/>
  <unicode hex="0059"/>
  <outline>
    <contour>
      <point x="1058" y="1446" type="line"/>
      <point x="972" y="1446" type="line"/>
      <point x="544" y="702" type="line"/>
      <point x="108" y="1446" type="line"/>
      <point x="20" y="1446" type="line"/>
      <point x="504" y="624" type="line"/>
      <point x="504" y="0" type="line"/>
      <point x="582" y="0" type="line"/>
      <point x="582" y="622" type="line"/>
    </contour>
    <contour>
      <point x="544" y="0" type="move" name="bottom"/>
    </contour>
    <contour>
      <point x="540" y="1450" type="move" name="top"/>
    </contour>
  </outline>
</glyph>
<glyph name="Z" format="1">
  <advance width="586"/>
  <unicode hex="005A"/>
  <outline>
    <contour>
      <point x="55" y="0" type="line"/>
      <point x="531" y="0" type="line"/>
      <point x="531" y="39" type="line"/>
      <point x="104" y="39" type="line"/>
      <point x="531" y="693" type="line"/>
      <point x="531" y="723" type="line"/>
      <point x="64" y="723" type="line"/>
      <point x="64" y="684" type="line"/>
      <point x="480" y="684" type="line"/>
      <point x="55" y="31" type="line"/>
    </contour>
    <contour>
      <point x="305" y="0" type="move" name="bottom"/>
    </contour>
    <contour>
      <point x="298" y="723" type="move" name="top"/>
    </contour>
  </outline>
</glyph>
<glyph name="bracketleft" format="1">
  <advance width="269"/>
  <unicode hex="005B"/>
  <outline>
    <contour>
      <point x="105" y="723" type="line"/>
      <point x="106" y="-161" type="line"/>
      <point x="248" y="-161" type="line"/>
      <point x="248" y="-125" type="line"/>
      <point x="147" y="-125" type="line"/>
      <point x="148" y="687" type="line"/>
      <point x="249" y="687" type="line"/>
      <point x="249" y="723" type="line"/>
    </contour>
  </outline>
</glyph>
<glyph name="backslash" format="1">
  <advance width="320"/>
  <unicode hex="005C"/>
  <outline>
    <contour>
      <point x="262" y="-59" type="line"/>
      <point x="305" y="-59" type="line"/>
      <point x="57" y="723" type="line"/>
      <point x="15" y="723" type="line"/>
    </contour>
  </outline>
</glyph>
<glyph name="asciicircum" format="1">
  <advance width="462"/>
  <unicode hex="005E"/>
  <outline>
    <contour>
      <point x="359" y="134" type="line"/>
      <point x="407" y="134" type="line"/>
      <point x="263" y="491" type="line" smooth="yes"/>
      <point x="244" y="540"/>
      <point x="214" y="536"/>
      <point x="197" y="491" type="curve" smooth="yes"/>
      <point x="55" y="136" type="line"/>
      <point x="100" y="136" type="line"/>
      <point x="230" y="463" type="line"/>
    </contour>
  </outline>
</glyph>
<glyph name="underscore" format="1">
  <advance width="482"/>
  <unicode hex="005F"/>
  <outline>
    <contour>
      <point x="417" y="-59" type="line"/>
      <point x="65" y="-60" type="line"/>
      <point x="65" y="-99" type="line"/>
      <point x="417" y="-98" type="line"/>
    </contour>
  </outline>
</glyph>
<glyph name="a" format="1">
  <advance width="534"/>
  <unicode hex="0061"/>
  <outline>
    <contour>
      <point x="221" y="-10" type="curve" smooth="yes"/>
      <point x="297" y="-10"/>
      <point x="371" y="14"/>
      <point x="416" y="100" type="curve"/>
      <point x="418" y="0" type="line"/>
      <point x="454" y="0" type="line"/>
      <point x="454" y="358" type="line" smooth="yes"/>
      <point x="454" y="463"/>
      <point x="377" y="527"/>
      <point x="267" y="527" type="curve" smooth="yes"/>
      <point x="147" y="527"/>
      <point x="81" y="452"/>
      <point x="76" y="379" type="curve"/>
      <point x="118" y="379" type="line"/>
      <point x="129" y="450"/>
      <point x="190" y="489"/>
      <point x="265" y="489" type="curve" smooth="yes"/>
      <point x="353" y="489"/>
      <point x="415" y="440"/>
      <point x="415" y="357" type="curve" smooth="yes"/>
      <point x="415" y="307" type="line"/>
      <point x="296" y="303" type="line" smooth="yes"/>
      <point x="124" y="297"/>
      <point x="55" y="248"/>
      <point x="55" y="132" type="curve" smooth="yes"/>
      <point x="55" y="44"/>
      <point x="119" y="-10"/>
    </contour>
    <contour>
      <point x="227" y="27" type="curve" smooth="yes"/>
      <point x="148" y="27"/>
      <point x="96" y="67"/>
      <point x="96" y="135" type="curve" smooth="yes"/>
      <point x="96" y="225"/>
      <point x="150" y="263"/>
      <point x="315" y="266" type="curve" smooth="yes"/>
      <point x="415" y="268" type="line"/>
      <point x="415" y="167" type="line" smooth="yes"/>
      <point x="415" y="97"/>
      <point x="313" y="27"/>
    </contour>
    <contour>
      <point x="268" y="0" type="move" name="bottom"/>
    </contour>
    <contour>
      <point x="448" y="14" type="move" name="ogonek"/>
    </contour>
    <contour>
      <point x="268" y="517" type="move" name="top"/>
    </contour>
  </outline>
</glyph>
<glyph name="b" format="1">
  <advance width="581"/>
  <unicode hex="0062"/>
  <outline>
    <contour>
      <point x="314" y="-10" type="curve" smooth="yes"/>
      <point x="455" y="-10"/>
      <point x="526" y="94"/>
      <point x="526" y="260" type="curve" smooth="yes"/>
      <point x="526" y="406"/>
      <point x="463" y="527"/>
      <point x="314" y="527" type="curve" smooth="yes"/>
      <point x="184" y="527"/>
      <point x="144" y="442"/>
      <point x="134" y="420" type="curve"/>
      <point x="134" y="743" type="line"/>
      <point x="95" y="743" type="line"/>
      <point x="95" y="0" type="line"/>
      <point x="130" y="0" type="line"/>
      <point x="133" y="106" type="line"/>
      <point x="141" y="82"/>
      <point x="176" y="-10"/>
    </contour>
    <contour>
      <point x="313" y="27" type="curve" smooth="yes"/>
      <point x="206" y="27"/>
      <point x="136" y="104"/>
      <point x="134" y="178" type="curve"/>
      <point x="134" y="339" type="line"/>
      <point x="138" y="361"/>
      <point x="153" y="489"/>
      <point x="310" y="489" type="curve" smooth="yes"/>
      <point x="427" y="489"/>
      <point x="484" y="399"/>
      <point x="484" y="260" type="curve" smooth="yes"/>
      <point x="484" y="100"/>
      <point x="415" y="27"/>
    </contour>
  </outline>
</glyph>
<glyph name="c" format="1">
  <advance width="531"/>
  <unicode hex="0063"/>
  <outline>
    <contour>
      <point x="281" y="527" type="curve" smooth="yes"/>
      <point x="141" y="527"/>
      <point x="57" y="415"/>
      <point x="57" y="256" type="curve" smooth="yes"/>
      <point x="57" y="98"/>
      <point x="141" y="-10"/>
      <point x="281" y="-10" type="curve" smooth="yes"/>
      <point x="366" y="-10"/>
      <point x="453" y="28"/>
      <point x="477" y="138" type="curve"/>
      <point x="435" y="138" type="line"/>
      <point x="418" y="61"/>
      <point x="355" y="27"/>
      <point x="285" y="27" type="curve" smooth="yes"/>
      <point x="168" y="27"/>
      <point x="98" y="119"/>
      <point x="98" y="258" type="curve" smooth="yes"/>
      <point x="98" y="396"/>
      <point x="170" y="489"/>
      <point x="286" y="489" type="curve" smooth="yes"/>
      <point x="351" y="489"/>
      <point x="412" y="459"/>
      <point x="435" y="377" type="curve"/>
      <point x="477" y="379" type="line"/>
      <point x="456" y="483"/>
      <point x="368" y="527"/>
    </contour>
    <contour>
      <point x="282" y="0" type="move" name="bottom"/>
    </contour>
    <contour>
      <point x="280" y="517" type="move" name="top"/>
    </contour>
  </outline>
</glyph>
<glyph name="d" format="1">
  <advance width="581"/>
  <unicode hex="0064"/>
  <outline>
    <contour>
      <point x="267" y="-10" type="curve" smooth="yes"/>
      <point x="405" y="-10"/>
      <point x="440" y="82"/>
      <point x="448" y="106" type="curve"/>
      <point x="451" y="0" type="line"/>
      <point x="486" y="0" type="line"/>
      <point x="486" y="743" type="line"/>
      <point x="447" y="743" type="line"/>
      <point x="447" y="428" type="line"/>
      <point x="437" y="450"/>
      <point x="388" y="527"/>
      <point x="267" y="527" type="curve" smooth="yes"/>
      <point x="118" y="527"/>
      <point x="55" y="406"/>
      <point x="55" y="260" type="curve" smooth="yes"/>
      <point x="55" y="94"/>
      <point x="126" y="-10"/>
    </contour>
    <contour>
      <point x="268" y="27" type="curve" smooth="yes"/>
      <point x="166" y="27"/>
      <point x="97" y="100"/>
      <point x="97" y="260" type="curve" smooth="yes"/>
      <point x="97" y="399"/>
      <point x="154" y="489"/>
      <point x="271" y="489" type="curve" smooth="yes"/>
      <point x="416" y="489"/>
      <point x="443" y="361"/>
      <point x="447" y="339" type="curve"/>
      <point x="447" y="178" type="line"/>
      <point x="445" y="104"/>
      <point x="375" y="27"/>
    </contour>
    <contour>
      <point x="282" y="0" type="move" name="bottom"/>
    </contour>
    <contour>
      <point x="294" y="258" type="move" name="center"/>
    </contour>
    <contour>
      <point x="599" y="723" type="move" name="topright"/>
    </contour>
  </outline>
</glyph>
<glyph name="e" format="1">
  <advance width="542"/>
  <unicode hex="0065"/>
  <outline>
    <contour>
      <point x="97" y="248" type="curve"/>
      <point x="487" y="248" type="line"/>
      <point x="487" y="277" type="line"/>
      <point x="487" y="436"/>
      <point x="409" y="527"/>
      <point x="277" y="527" type="curve" smooth="yes"/>
      <point x="136" y="527"/>
      <point x="55" y="425"/>
      <point x="55" y="254" type="curve" smooth="yes"/>
      <point x="55" y="85"/>
      <point x="148" y="-10"/>
      <point x="283" y="-10" type="curve" smooth="yes"/>
      <point x="375" y="-10"/>
      <point x="452" y="33"/>
      <point x="481" y="138" type="curve"/>
      <point x="439" y="138" type="line"/>
      <point x="417" y="69"/>
      <point x="364" y="29"/>
      <point x="283" y="29" type="curve" smooth="yes"/>
      <point x="153" y="29"/>
      <point x="97" y="131"/>
    </contour>
    <contour>
      <point x="98" y="287" type="line"/>
      <point x="97" y="384"/>
      <point x="150" y="488"/>
      <point x="276" y="488" type="curve" smooth="yes"/>
      <point x="392" y="488"/>
      <point x="446" y="402"/>
      <point x="446" y="287" type="curve"/>
    </contour>
    <contour>
      <point x="276" y="0" type="move" name="bottom"/>
    </contour>
    <contour>
      <point x="370" y="18" type="move" name="ogonek"/>
    </contour>
    <contour>
      <point x="277" y="517" type="move" name="top"/>
    </contour>
  </outline>
</glyph>
<glyph name="f" format="1">
  <advance width="399"/>
  <unicode hex="0066"/>
  <outline>
    <contour>
      <point x="349" y="517" type="line"/>
      <point x="207" y="517" type="line"/>
      <point x="207" y="611" type="line" smooth="yes"/>
      <point x="207" y="661"/>
      <point x="220" y="689"/>
      <point x="268" y="689" type="curve" smooth="yes"/>
      <point x="354" y="689" type="line"/>
      <point x="354" y="723" type="line"/>
      <point x="278" y="723" type="line" smooth="yes"/>
      <point x="200" y="723"/>
      <point x="168" y="683"/>
      <point x="168" y="603" type="curve" smooth="yes"/>
      <point x="168" y="517" type="line"/>
      <point x="45" y="517" type="line"/>
      <point x="45" y="483" type="line"/>
      <point x="168" y="483" type="line"/>
      <point x="168" y="0" type="line"/>
      <point x="207" y="0" type="line"/>
      <point x="207" y="483" type="line"/>
      <point x="349" y="483" type="line"/>
    </contour>
  </outline>
</glyph>
<glyph name="g" format="1">
  <advance width="1198"/>
  <unicode hex="0067"/>
  <outline>
    <contour>
      <point x="558" y="-342" type="curve" smooth="yes"/>
      <point x="852" y="-342"/>
      <point x="1024" y="-232"/>
      <point x="1024" y="-38" type="curve" smooth="yes"/>
      <point x="1024" y="118"/>
      <point x="932" y="214"/>
      <point x="724" y="226" type="curve" smooth="yes"/>
      <point x="626" y="232"/>
      <point x="550" y="236"/>
      <point x="490" y="240" type="curve" smooth="yes"/>
      <point x="324" y="252"/>
      <point x="276" y="268"/>
      <point x="276" y="312" type="curve" smooth="yes"/>
      <point x="276" y="356"/>
      <point x="338" y="404"/>
      <point x="544" y="408" type="curve" smooth="yes"/>
      <point x="552" y="408"/>
      <point x="558" y="408"/>
      <point x="566" y="408" type="curve" smooth="yes"/>
      <point x="840" y="408"/>
      <point x="960" y="546"/>
      <point x="960" y="720" type="curve" smooth="yes"/>
      <point x="960" y="772"/>
      <point x="936" y="852"/>
      <point x="914" y="892" type="curve"/>
      <point x="1098" y="932" type="line"/>
      <point x="1098" y="1048" type="line"/>
      <point x="1072" y="1038"/>
      <point x="900" y="964"/>
      <point x="874" y="952" type="curve"/>
      <point x="794" y="1018"/>
      <point x="708" y="1050"/>
      <point x="580" y="1050" type="curve" smooth="yes"/>
      <point x="322" y="1050"/>
      <point x="170" y="926"/>
      <point x="170" y="720" type="curve" smooth="yes"/>
      <point x="170" y="590"/>
      <point x="218" y="514"/>
      <point x="348" y="444" type="curve"/>
      <point x="248" y="414"/>
      <point x="194" y="366"/>
      <point x="194" y="310" type="curve" smooth="yes"/>
      <point x="194" y="248"/>
      <point x="242" y="226"/>
      <point x="280" y="202" type="curve"/>
      <point x="250" y="176"/>
      <point x="90" y="104"/>
      <point x="90" y="-52" type="curve" smooth="yes"/>
      <point x="90" y="-234"/>
      <point x="258" y="-342"/>
    </contour>
    <contour>
      <point x="576" y="-268" type="curve" smooth="yes"/>
      <point x="320" y="-268"/>
      <point x="172" y="-188"/>
      <point x="172" y="-44" type="curve" smooth="yes"/>
      <point x="172" y="84"/>
      <point x="316" y="172"/>
      <point x="378" y="168" type="curve" smooth="yes"/>
      <point x="722" y="146" type="line" smooth="yes"/>
      <point x="886" y="136"/>
      <point x="942" y="70"/>
      <point x="942" y="-38" type="curve" smooth="yes"/>
      <point x="942" y="-196"/>
      <point x="814" y="-268"/>
    </contour>
    <contour>
      <point x="568" y="482" type="curve" smooth="yes"/>
      <point x="362" y="482"/>
      <point x="248" y="566"/>
      <point x="248" y="724" type="curve" smooth="yes"/>
      <point x="248" y="884"/>
      <point x="364" y="976"/>
      <point x="568" y="976" type="curve" smooth="yes"/>
      <point x="756" y="976"/>
      <point x="882" y="896"/>
      <point x="882" y="724" type="curve" smooth="yes"/>
      <point x="882" y="564"/>
      <point x="778" y="482"/>
    </contour>
    <contour>
      <point x="574" y="1034" type="move" name="top"/>
    </contour>
  </outline>
</glyph>
<glyph name="h" format="1">
  <advance width="1122"/>
  <unicode hex="0068"/>
  <outline>
    <contour>
      <point x="180" y="0" type="line"/>
      <point x="258" y="0" type="line"/>
      <point x="258" y="720" type="line"/>
      <point x="258" y="896"/>
      <point x="416" y="978"/>
      <point x="600" y="978" type="curve" smooth="yes"/>
      <point x="776" y="978"/>
      <point x="884" y="888"/>
      <point x="884" y="736" type="curve" smooth="yes"/>
      <point x="884" y="0" type="line"/>
      <point x="962" y="0" type="line"/>
      <point x="962" y="766" type="line" smooth="yes"/>
      <point x="962" y="936"/>
      <point x="808" y="1054"/>
      <point x="602" y="1054" type="curve" smooth="yes"/>
      <point x="434" y="1054"/>
      <point x="306" y="978"/>
      <point x="252" y="880" type="curve"/>
      <point x="252" y="1486" type="line"/>
      <point x="180" y="1486" type="line"/>
    </contour>
    <contour>
      <point x="592" y="0" type="move" name="bottom"/>
    </contour>
    <contour>
      <point x="636" y="1034" type="move" name="top"/>
    </contour>
  </outline>
</glyph>
<glyph name="i" format="1">
  <advance width="248"/>
  <unicode hex="0069"/>
  <outline>
    <contour>
      <point x="144" y="517" type="line"/>
      <point x="105" y="517" type="line"/>
      <point x="105" y="0" type="line"/>
      <point x="144" y="0" type="line"/>
    </contour>
    <contour>
      <point x="148" y="707" type="line"/>
      <point x="100" y="707" type="line"/>
      <point x="100" y="647" type="line"/>
      <point x="148" y="647" type="line"/>
    </contour>
    <contour>
      <point x="124" y="0" type="move" name="bottom"/>
    </contour>
  </outline>
</glyph>
<glyph name="j" format="1">
  <advance width="238"/>
  <unicode hex="006A"/>
  <outline>
    <contour>
      <point x="143" y="-50" type="curve" smooth="yes"/>
      <point x="143" y="517" type="line"/>
      <point x="104" y="517" type="line"/>
      <point x="104" y="-45" type="line" smooth="yes"/>
      <point x="104" y="-107"/>
      <point x="84" y="-129"/>
      <point x="32" y="-130" type="curve" smooth="yes"/>
      <point x="-30" y="-131" type="line"/>
      <point x="-30" y="-157" type="line" smooth="yes"/>
      <point x="-30" y="-157"/>
      <point x="-25" y="-166"/>
      <point x="33" y="-166" type="curve" smooth="yes"/>
      <point x="122" y="-166"/>
      <point x="143" y="-130"/>
    </contour>
    <contour>
      <point x="148" y="707" type="line"/>
      <point x="100" y="707" type="line"/>
      <point x="100" y="647" type="line"/>
      <point x="148" y="647" type="line"/>
    </contour>
  </outline>
</glyph>
<glyph name="k" format="1">
  <advance width="548"/>
  <unicode hex="006B"/>
  <outline>
    <contour>
      <point x="504" y="0" type="line"/>
      <point x="300" y="329" type="line"/>
      <point x="485" y="517" type="line"/>
      <point x="430" y="517" type="line"/>
      <point x="134" y="214" type="line"/>
      <point x="134" y="743" type="line"/>
      <point x="95" y="743" type="line"/>
      <point x="95" y="0" type="line"/>
      <point x="134" y="0" type="line"/>
      <point x="134" y="158" type="line"/>
      <point x="270" y="296" type="line"/>
      <point x="454" y="0" type="line"/>
    </contour>
    <contour>
      <point x="272" y="0" type="move" name="bottom"/>
    </contour>
  </outline>
</glyph>
<glyph name="l" format="1">
  <advance width="269"/>
  <unicode hex="006C"/>
  <outline>
    <contour>
      <point x="191" y="-4" type="curve" smooth="yes"/>
      <point x="198" y="-4"/>
      <point x="212" y="-3"/>
      <point x="224" y="0" type="curve"/>
      <point x="224" y="29" type="line"/>
      <point x="192" y="29" type="line"/>
      <point x="164" y="29"/>
      <point x="134" y="54"/>
      <point x="134" y="121" type="curve"/>
      <point x="134" y="743" type="line"/>
      <point x="95" y="743" type="line"/>
      <point x="95" y="121" type="line"/>
      <point x="95" y="50"/>
      <point x="122" y="-4"/>
    </contour>
    <contour>
      <point x="135" y="1" type="move" name="bottom"/>
    </contour>
    <contour>
      <point x="111" y="762" type="move" name="top"/>
    </contour>
    <contour>
      <point x="253" y="723" type="move" name="topright"/>
    </contour>
  </outline>
</glyph>
<glyph name="m" format="1">
  <advance width="849"/>
  <unicode hex="006D"/>
  <outline>
    <contour>
      <point x="95" y="0" type="line"/>
      <point x="134" y="0" type="line"/>
      <point x="134" y="360" type="line" smooth="yes"/>
      <point x="134" y="453"/>
      <point x="214" y="489"/>
      <point x="279" y="489" type="curve" smooth="yes"/>
      <point x="337" y="489"/>
      <point x="407" y="452"/>
      <point x="407" y="376" type="curve" smooth="yes"/>
      <point x="407" y="0" type="line"/>
      <point x="446" y="0" type="line"/>
      <point x="446" y="360" type="line" smooth="yes"/>
      <point x="446" y="462"/>
      <point x="532" y="489"/>
      <point x="591" y="489" type="curve" smooth="yes"/>
      <point x="659" y="489"/>
      <point x="720" y="460"/>
      <point x="720" y="335" type="curve" smooth="yes"/>
      <point x="720" y="0" type="line"/>
      <point x="759" y="0" type="line"/>
      <point x="759" y="335" type="line" smooth="yes"/>
      <point x="759" y="501"/>
      <point x="661" y="527"/>
      <point x="591" y="527" type="curve" smooth="yes"/>
      <point x="521" y="527"/>
      <point x="464" y="495"/>
      <point x="433" y="441" type="curve"/>
      <point x="410" y="497"/>
      <point x="340" y="527"/>
      <point x="280" y="527" type="curve" smooth="yes"/>
      <point x="200" y="527"/>
      <point x="156" y="486"/>
      <point x="131" y="440" type="curve"/>
      <point x="131" y="517" type="line"/>
      <point x="95" y="517" type="line"/>
    </contour>
  </outline>
</glyph>
<glyph name="n" format="1">
  <advance width="576"/>
  <unicode hex="006E"/>
  <outline>
    <contour>
      <point x="95" y="0" type="line"/>
      <point x="134" y="0" type="line"/>
      <point x="134" y="360" type="line" smooth="yes"/>
      <point x="134" y="448"/>
      <point x="213" y="489"/>
      <point x="305" y="489" type="curve" smooth="yes"/>
      <point x="393" y="489"/>
      <point x="447" y="435"/>
      <point x="447" y="335" type="curve" smooth="yes"/>
      <point x="447" y="0" type="line"/>
      <point x="486" y="0" type="line"/>
      <point x="486" y="335" type="line" smooth="yes"/>
      <point x="486" y="467"/>
      <point x="408" y="527"/>
      <point x="305" y="527" type="curve" smooth="yes"/>
      <point x="221" y="527"/>
      <point x="158" y="489"/>
      <point x="131" y="440" type="curve"/>
      <point x="131" y="517" type="line"/>
      <point x="95" y="517" type="line"/>
    </contour>
    <contour>
      <point x="292" y="0" type="move" name="bottom"/>
    </contour>
    <contour>
      <point x="301" y="517" type="move" name="top"/>
    </contour>
  </outline>
</glyph>
<glyph name="o" format="1">
  <advance width="555"/>
  <unicode hex="006F"/>
  <outline>
    <contour>
      <point x="278" y="-10" type="curve" smooth="yes"/>
      <point x="420" y="-10"/>
      <point x="500" y="99"/>
      <point x="500" y="257" type="curve" smooth="yes"/>
      <point x="500" y="415"/>
      <point x="420" y="527"/>
      <point x="279" y="527" type="curve" smooth="yes"/>
      <point x="136" y="527"/>
      <point x="55" y="414"/>
      <point x="55" y="255" type="curve" smooth="yes"/>
      <point x="55" y="98"/>
      <point x="134" y="-10"/>
    </contour>
    <contour>
      <point x="280" y="27" type="curve" smooth="yes"/>
      <point x="159" y="27"/>
      <point x="96" y="120"/>
      <point x="96" y="257" type="curve" smooth="yes"/>
      <point x="96" y="395"/>
      <point x="159" y="489"/>
      <point x="279" y="489" type="curve" smooth="yes"/>
      <point x="398" y="489"/>
      <point x="459" y="396"/>
      <point x="459" y="257" type="curve" smooth="yes"/>
      <point x="459" y="119"/>
      <point x="400" y="27"/>
    </contour>
    <contour>
      <point x="280" y="0" type="move" name="bottom"/>
    </contour>
    <contour>
      <point x="469" y="357" type="move" name="horn"/>
    </contour>
    <contour>
      <point x="340" y="10" type="move" name="ogonek"/>
    </contour>
    <contour>
      <point x="280" y="517" type="move" name="top"/>
    </contour>
  </outline>
</glyph>
<glyph name="p" format="1">
  <advance width="580"/>
  <unicode hex="0070"/>
  <outline>
    <contour>
      <point x="95" y="-161" type="line"/>
      <point x="134" y="-161" type="line"/>
      <point x="134" y="68" type="line"/>
      <point x="179" y="16"/>
      <point x="231" y="-10"/>
      <point x="291" y="-10" type="curve" smooth="yes"/>
      <point x="434" y="-10"/>
      <point x="525" y="102"/>
      <point x="525" y="268" type="curve" smooth="yes"/>
      <point x="525" y="441"/>
      <point x="427" y="527"/>
      <point x="302" y="527" type="curve" smooth="yes"/>
      <point x="193" y="527"/>
      <point x="148" y="459"/>
      <point x="132" y="440" type="curve"/>
      <point x="132" y="517" type="line"/>
      <point x="95" y="517" type="line"/>
    </contour>
    <contour>
      <point x="290" y="27" type="curve" smooth="yes"/>
      <point x="230" y="27"/>
      <point x="181" y="56"/>
      <point x="134" y="101" type="curve"/>
      <point x="134" y="355" type="line" smooth="yes"/>
      <point x="134" y="413"/>
      <point x="200" y="489"/>
      <point x="297" y="489" type="curve" smooth="yes"/>
      <point x="395" y="489"/>
      <point x="484" y="419"/>
      <point x="484" y="264" type="curve" smooth="yes"/>
      <point x="484" y="116"/>
      <point x="402" y="27"/>
    </contour>
  </outline>
</glyph>
<glyph name="q" format="1">
  <advance width="575"/>
  <unicode hex="0071"/>
  <outline>
    <contour>
      <point x="485" y="-161" type="line"/>
      <point x="485" y="517" type="line"/>
      <point x="448" y="517" type="line"/>
      <point x="448" y="440" type="line"/>
      <point x="431" y="459"/>
      <point x="386" y="527"/>
      <point x="277" y="527" type="curve" smooth="yes"/>
      <point x="152" y="527"/>
      <point x="55" y="441"/>
      <point x="55" y="268" type="curve" smooth="yes"/>
      <point x="55" y="102"/>
      <point x="145" y="-10"/>
      <point x="289" y="-10" type="curve" smooth="yes"/>
      <point x="368" y="-10"/>
      <point x="425" y="31"/>
      <point x="446" y="96" type="curve"/>
      <point x="446" y="-161" type="line"/>
    </contour>
    <contour>
      <point x="290" y="27" type="curve" smooth="yes"/>
      <point x="178" y="27"/>
      <point x="96" y="116"/>
      <point x="96" y="264" type="curve" smooth="yes"/>
      <point x="96" y="419"/>
      <point x="184" y="489"/>
      <point x="282" y="489" type="curve" smooth="yes"/>
      <point x="379" y="489"/>
      <point x="446" y="413"/>
      <point x="446" y="355" type="curve" smooth="yes"/>
      <point x="446" y="182" type="line"/>
      <point x="446" y="116"/>
      <point x="399" y="27"/>
    </contour>
  </outline>
</glyph>
<glyph name="r" format="1">
  <advance width="358"/>
  <unicode hex="0072"/>
  <outline>
    <contour>
      <point x="95" y="0" type="line"/>
      <point x="134" y="0" type="line"/>
      <point x="134" y="360" type="line" smooth="yes"/>
      <point x="134" y="440"/>
      <point x="200" y="488"/>
      <point x="328" y="487" type="curve"/>
      <point x="328" y="527" type="line"/>
      <point x="230" y="527"/>
      <point x="158" y="489"/>
      <point x="131" y="440" type="curve"/>
      <point x="131" y="517" type="line"/>
      <point x="95" y="517" type="line"/>
    </contour>
    <contour>
      <point x="114" y="0" type="move" name="bottom"/>
    </contour>
    <contour>
      <point x="204" y="517" type="move" name="top"/>
    </contour>
  </outline>
</glyph>
<glyph name="s" format="1">
  <advance width="996"/>
  <unicode hex="0073"/>
  <outline>
    <contour>
      <point x="506" y="-20" type="curve" smooth="yes"/>
      <point x="700" y="-20"/>
      <point x="866" y="80"/>
      <point x="866" y="270" type="curve" smooth="yes"/>
      <point x="866" y="380"/>
      <point x="810" y="484"/>
      <point x="660" y="526" type="curve" smooth="yes"/>
      <point x="414" y="594" type="line" smooth="yes"/>
      <point x="298" y="626"/>
      <point x="230" y="670"/>
      <point x="230" y="764" type="curve" smooth="yes"/>
      <point x="230" y="930"/>
      <point x="390" y="974"/>
      <point x="504" y="974" type="curve" smooth="yes"/>
      <point x="650" y="974"/>
      <point x="740" y="896"/>
      <point x="754" y="780" type="curve"/>
      <point x="840" y="780" type="line"/>
      <point x="830" y="956"/>
      <point x="696" y="1054"/>
      <point x="504" y="1054" type="curve" smooth="yes"/>
      <point x="306" y="1054"/>
      <point x="148" y="964"/>
      <point x="148" y="764" type="curve" smooth="yes"/>
      <point x="148" y="626"/>
      <point x="242" y="560"/>
      <point x="392" y="516" type="curve" smooth="yes"/>
      <point x="622" y="448" type="line" smooth="yes"/>
      <point x="718" y="420"/>
      <point x="784" y="362"/>
      <point x="784" y="266" type="curve" smooth="yes"/>
      <point x="784" y="134"/>
      <point x="672" y="60"/>
      <point x="506" y="60" type="curve" smooth="yes"/>
      <point x="340" y="60"/>
      <point x="226" y="132"/>
      <point x="198" y="276" type="curve"/>
      <point x="110" y="276" type="line"/>
      <point x="132" y="86"/>
      <point x="288" y="-20"/>
    </contour>
    <contour>
      <point x="480" y="0" type="move" name="bottom"/>
    </contour>
    <contour>
      <point x="464" y="1034" type="move" name="top"/>
    </contour>
  </outline>
</glyph>
<glyph name="t" format="1">
  <advance width="658"/>
  <unicode hex="0074"/>
  <outline>
    <contour>
      <point x="548" y="966" type="line"/>
      <point x="548" y="1034" type="line"/>
      <point x="310" y="1034" type="line"/>
      <point x="310" y="1324" type="line"/>
      <point x="248" y="1324" type="line"/>
      <point x="228" y="1034" type="line"/>
      <point x="60" y="1034" type="line"/>
      <point x="60" y="966" type="line"/>
      <point x="228" y="966" type="line"/>
      <point x="228" y="232" type="line" smooth="yes"/>
      <point x="228" y="66"/>
      <point x="276" y="0"/>
      <point x="432" y="0" type="curve" smooth="yes"/>
      <point x="482" y="0"/>
      <point x="532" y="2"/>
      <point x="558" y="10" type="curve"/>
      <point x="558" y="78" type="line"/>
      <point x="470" y="78" type="line" smooth="yes"/>
      <point x="350" y="78"/>
      <point x="310" y="98"/>
      <point x="310" y="242" type="curve" smooth="yes"/>
      <point x="310" y="966" type="line"/>
    </contour>
    <contour>
      <point x="382" y="0" type="move" name="bottom"/>
    </contour>
    <contour>
      <point x="324" y="620" type="move" name="center"/>
    </contour>
    <contour>
      <point x="664" y="1472" type="move" name="topright"/>
    </contour>
  </outline>
</glyph>
<glyph name="u" format="1">
  <advance width="576"/>
  <unicode hex="0075"/>
  <outline>
    <contour>
      <point x="290" y="-9" type="curve" smooth="yes"/>
      <point x="366" y="-10"/>
      <point x="429" y="34"/>
      <point x="447" y="96" type="curve"/>
      <point x="450" y="1" type="line"/>
      <point x="486" y="1" type="line"/>
      <point x="486" y="519" type="line"/>
      <point x="447" y="519" type="line"/>
      <point x="447" y="182" type="line"/>
      <point x="447" y="76"/>
      <point x="367" y="29"/>
      <point x="287" y="29" type="curve" smooth="yes"/>
      <point x="224" y="29"/>
      <point x="134" y="60"/>
      <point x="134" y="174" type="curve" smooth="yes"/>
      <point x="134" y="519" type="line"/>
      <point x="95" y="519" type="line"/>
      <point x="95" y="174" type="line" smooth="yes"/>
      <point x="95" y="35"/>
      <point x="204" y="-8"/>
    </contour>
    <contour>
      <point x="289" y="0" type="move" name="bottom"/>
    </contour>
    <contour>
      <point x="471" y="428" type="move" name="horn"/>
    </contour>
    <contour>
      <point x="477" y="11" type="move" name="ogonek"/>
    </contour>
    <contour>
      <point x="290" y="517" type="move" name="top"/>
    </contour>
  </outline>
</glyph>
<glyph name="v" format="1">
  <advance width="960"/>
  <unicode hex="0076"/>
  <outline>
    <contour>
      <point x="900" y="1034" type="line"/>
      <point x="822" y="1034" type="line"/>
      <point x="492" y="88" type="line"/>
      <point x="466" y="88" type="line"/>
      <point x="144" y="1034" type="line"/>
      <point x="60" y="1034" type="line"/>
      <point x="418" y="0" type="line"/>
      <point x="544" y="0" type="line"/>
    </contour>
  </outline>
</glyph>
<glyph name="w" format="1">
  <advance width="776"/>
  <unicode hex="0077"/>
  <outline>
    <contour>
      <point x="736" y="517" type="line"/>
      <point x="695" y="517" type="line"/>
      <point x="564" y="45" type="line"/>
      <point x="552" y="45" type="line"/>
      <point x="406" y="517" type="line"/>
      <point x="370" y="517" type="line"/>
      <point x="232" y="43" type="line"/>
      <point x="220" y="43" type="line"/>
      <point x="82" y="517" type="line"/>
      <point x="40" y="517" type="line"/>
      <point x="192" y="0" type="line"/>
      <point x="260" y="0" type="line"/>
      <point x="388" y="450" type="line"/>
      <point x="527" y="0" type="line"/>
      <point x="593" y="0" type="line"/>
    </contour>
    <contour>
      <point x="392" y="517" type="move" name="top"/>
    </contour>
  </outline>
</glyph>
<glyph name="x" format="1">
  <advance width="541"/>
  <unicode hex="0078"/>
  <outline>
    <contour>
      <point x="496" y="0" type="line"/>
      <point x="296" y="268" type="line"/>
      <point x="481" y="517" type="line"/>
      <point x="432" y="517" type="line"/>
      <point x="270" y="299" type="line"/>
      <point x="109" y="517" type="line"/>
      <point x="60" y="517" type="line"/>
      <point x="245" y="268" type="line"/>
      <point x="45" y="0" type="line"/>
      <point x="94" y="0" type="line"/>
      <point x="270" y="237" type="line"/>
      <point x="447" y="0" type="line"/>
    </contour>
  </outline>
</glyph>
<glyph name="y" format="1">
  <advance width="998"/>
  <unicode hex="0079"/>
  <outline>
    <contour>
      <point x="216" y="-330" type="curve" smooth="yes"/>
      <point x="340" y="-330"/>
      <point x="434" y="-280"/>
      <point x="486" y="-150" type="curve" smooth="yes"/>
      <point x="938" y="1034" type="line"/>
      <point x="862" y="1034" type="line"/>
      <point x="506" y="112" type="line"/>
      <point x="144" y="1034" type="line"/>
      <point x="60" y="1034" type="line"/>
      <point x="464" y="6" type="line"/>
      <point x="412" y="-132" type="line"/>
      <point x="382" y="-204"/>
      <point x="330" y="-260"/>
      <point x="202" y="-260" type="curve" smooth="yes"/>
      <point x="92" y="-260" type="line"/>
      <point x="92" y="-314" type="line" smooth="yes"/>
      <point x="92" y="-314"/>
      <point x="116" y="-330"/>
    </contour>
    <contour>
      <point x="504" y="1034" type="move" name="top"/>
    </contour>
  </outline>
</glyph>
<glyph name="z" format="1">
  <advance width="486"/>
  <unicode hex="007A"/>
  <outline>
    <contour>
      <point x="55" y="0" type="line"/>
      <point x="431" y="0" type="line"/>
      <point x="431" y="34" type="line"/>
      <point x="100" y="34" type="line"/>
      <point x="424" y="476" type="line"/>
      <point x="424" y="517" type="line"/>
      <point x="76" y="517" type="line"/>
      <point x="76" y="483" type="line"/>
      <point x="381" y="483" type="line"/>
      <point x="55" y="38" type="line"/>
    </contour>
    <contour>
      <point x="258" y="517" type="move" name="top"/>
    </contour>
  </outline>
</glyph>
<glyph name="braceleft" format="1">
  <advance width="271"/>
  <unicode hex="007B"/>
  <outline>
    <contour>
      <point x="118" y="636" type="curve" smooth="yes"/>
      <point x="118" y="409" type="line" smooth="yes"/>
      <point x="118" y="350"/>
      <point x="81" y="301"/>
      <point x="5" y="300" type="curve"/>
      <point x="5" y="262" type="line"/>
      <point x="80" y="262"/>
      <point x="118" y="205"/>
      <point x="118" y="158" type="curve" smooth="yes"/>
      <point x="118" y="-71" type="line" smooth="yes"/>
      <point x="118" y="-121"/>
      <point x="147" y="-161"/>
      <point x="224" y="-161" type="curve" smooth="yes"/>
      <point x="251" y="-161" type="line"/>
      <point x="251" y="-125" type="line"/>
      <point x="224" y="-125" type="line" smooth="yes"/>
      <point x="175" y="-125"/>
      <point x="161" y="-108"/>
      <point x="161" y="-71" type="curve" smooth="yes"/>
      <point x="161" y="158" type="line" smooth="yes"/>
      <point x="161" y="239"/>
      <point x="119" y="274"/>
      <point x="69" y="278" type="curve" smooth="yes"/>
      <point x="60" y="279"/>
      <point x="61" y="284"/>
      <point x="69" y="285" type="curve" smooth="yes"/>
      <point x="120" y="290"/>
      <point x="161" y="330"/>
      <point x="161" y="409" type="curve" smooth="yes"/>
      <point x="161" y="636" type="line" smooth="yes"/>
      <point x="161" y="672"/>
      <point x="178" y="687"/>
      <point x="223" y="687" type="curve" smooth="yes"/>
      <point x="251" y="687" type="line"/>
      <point x="251" y="723" type="line"/>
      <point x="223" y="723" type="line" smooth="yes"/>
      <point x="151" y="723"/>
      <point x="118" y="686"/>
    </contour>
  </outline>
</glyph>
<glyph name="bar" format="1">
  <advance width="243"/>
  <unicode hex="007C"/>
  <outline>
    <contour>
      <point x="143" y="-161" type="line"/>
      <point x="143" y="826" type="line"/>
      <point x="105" y="826" type="line"/>
      <point x="106" y="-161" type="line"/>
    </contour>
  </outline>
</glyph>
<glyph name="asciitilde" format="1">
  <advance width="524"/>
  <unicode hex="007E"/>
  <outline>
    <contour>
      <point x="464" y="369" type="curve"/>
      <point x="451" y="403" type="line"/>
      <point x="433" y="384"/>
      <point x="409" y="362"/>
      <point x="357" y="362" type="curve" smooth="yes"/>
      <point x="288" y="362"/>
      <point x="242" y="406"/>
      <point x="172" y="406" type="curve" smooth="yes"/>
      <point x="117" y="406"/>
      <point x="86" y="382"/>
      <point x="60" y="359" type="curve"/>
      <point x="72" y="327" type="line"/>
      <point x="93" y="348"/>
      <point x="124" y="370"/>
      <point x="175" y="370" type="curve" smooth="yes"/>
      <point x="244" y="370"/>
      <point x="278" y="327"/>
      <point x="356" y="327" type="curve" smooth="yes"/>
      <point x="416" y="327"/>
      <point x="450" y="351"/>
    </contour>
  </outline>
</glyph>
<glyph name="exclamdown" format="1">
  <advance width="220"/>
  <unicode hex="00A1"/>
  <outline>
    <contour>
      <point x="140" y="440" type="line"/>
      <point x="140" y="517" type="line"/>
      <point x="80" y="517" type="line"/>
      <point x="80" y="440" type="line"/>
    </contour>
    <contour>
      <point x="136" y="-161" type="line"/>
      <point x="126" y="372" type="line"/>
      <point x="94" y="372" type="line"/>
      <point x="85" y="-161" type="line"/>
    </contour>
  </outline>
</glyph>
<glyph name="cent" format="1">
  <advance width="525"/>
  <unicode hex="00A2"/>
  <outline>
    <contour>
      <point x="297" y="0" type="line"/>
      <point x="297" y="118" type="line"/>
      <point x="257" y="118" type="line"/>
      <point x="257" y="0" type="line"/>
    </contour>
    <contour>
      <point x="297" y="605" type="line"/>
      <point x="297" y="723" type="line"/>
      <point x="257" y="723" type="line"/>
      <point x="257" y="605" type="line"/>
    </contour>
    <component base="c" yOffset="111"/>
  </outline>
</glyph>
<glyph name="sterling" format="1">
  <advance width="578"/>
  <unicode hex="00A3"/>
  <outline>
    <contour>
      <point x="10" y="0" type="line"/>
      <point x="343" y="0" type="line" smooth="yes"/>
      <point x="430" y="0"/>
      <point x="493" y="35"/>
      <point x="523" y="107" type="curve"/>
      <point x="487" y="122" type="line"/>
      <point x="463" y="60"/>
      <point x="415" y="39"/>
      <point x="343" y="39" type="curve" smooth="yes"/>
      <point x="130" y="39" type="line"/>
      <point x="146" y="57"/>
      <point x="188" y="112"/>
      <point x="188" y="226" type="curve" smooth="yes"/>
      <point x="188" y="265"/>
      <point x="184" y="301"/>
      <point x="174" y="350" type="curve"/>
      <point x="345" y="350" type="line"/>
      <point x="345" y="387" type="line"/>
      <point x="169" y="387" type="line"/>
      <point x="151" y="438"/>
      <point x="139" y="505"/>
      <point x="139" y="553" type="curve" smooth="yes"/>
      <point x="139" y="641"/>
      <point x="209" y="691"/>
      <point x="294" y="691" type="curve" smooth="yes"/>
      <point x="366" y="691"/>
      <point x="406" y="665"/>
      <point x="430" y="620" type="curve"/>
      <point x="467" y="639" type="line"/>
      <point x="448" y="685"/>
      <point x="374" y="733"/>
      <point x="292" y="733" type="curve" smooth="yes"/>
      <point x="168" y="733"/>
      <point x="65" y="627"/>
      <point x="108" y="461" type="curve" smooth="yes"/>
      <point x="128" y="386" type="line"/>
      <point x="33" y="386" type="line"/>
      <point x="33" y="349" type="line"/>
      <point x="133" y="349" type="line"/>
      <point x="143" y="288"/>
      <point x="146" y="245"/>
      <point x="146" y="209" type="curve" smooth="yes"/>
      <point x="146" y="91"/>
      <point x="102" y="38"/>
      <point x="51" y="38" type="curve" smooth="yes"/>
      <point x="10" y="38" type="line"/>
    </contour>
  </outline>
</glyph>
<glyph name="currency" format="1">
  <advance width="501"/>
  <unicode hex="00A4"/>
  <outline>
    <contour>
      <point x="249" y="199" type="curve" smooth="yes"/>
      <point x="287" y="199"/>
      <point x="322" y="213"/>
      <point x="351" y="235" type="curve"/>
      <point x="408" y="179" type="line"/>
      <point x="436" y="208" type="line"/>
      <point x="384" y="257" type="line" smooth="yes"/>
      <point x="379" y="262"/>
      <point x="380" y="266"/>
      <point x="383" y="271" type="curve" smooth="yes"/>
      <point x="402" y="296"/>
      <point x="412" y="329"/>
      <point x="412" y="364" type="curve" smooth="yes"/>
      <point x="412" y="401"/>
      <point x="399" y="436"/>
      <point x="378" y="464" type="curve"/>
      <point x="435" y="521" type="line"/>
      <point x="407" y="550" type="line"/>
      <point x="355" y="498" type="line" smooth="yes"/>
      <point x="351" y="494"/>
      <point x="347" y="494"/>
      <point x="342" y="497" type="curve" smooth="yes"/>
      <point x="316" y="517"/>
      <point x="283" y="527"/>
      <point x="249" y="527" type="curve" smooth="yes"/>
      <point x="212" y="527"/>
      <point x="175" y="515"/>
      <point x="148" y="493" type="curve"/>
      <point x="95" y="548" type="line"/>
      <point x="66" y="520" type="line"/>
      <point x="114" y="471" type="line" smooth="yes"/>
      <point x="117" y="468"/>
      <point x="118" y="464"/>
      <point x="115" y="459" type="curve" smooth="yes"/>
      <point x="96" y="433"/>
      <point x="85" y="400"/>
      <point x="85" y="364" type="curve" smooth="yes"/>
      <point x="85" y="326"/>
      <point x="96" y="291"/>
      <point x="118" y="261" type="curve"/>
      <point x="65" y="209" type="line"/>
      <point x="93" y="178" type="line"/>
      <point x="141" y="228" type="line" smooth="yes"/>
      <point x="145" y="233"/>
      <point x="149" y="232"/>
      <point x="153" y="229" type="curve" smooth="yes"/>
      <point x="180" y="210"/>
      <point x="213" y="199"/>
    </contour>
    <contour>
      <point x="251" y="242" type="curve" smooth="yes"/>
      <point x="181" y="242"/>
      <point x="129" y="299"/>
      <point x="129" y="364" type="curve" smooth="yes"/>
      <point x="129" y="428"/>
      <point x="181" y="486"/>
      <point x="251" y="486" type="curve" smooth="yes"/>
      <point x="320" y="486"/>
      <point x="372" y="428"/>
      <point x="372" y="364" type="curve" smooth="yes"/>
      <point x="372" y="299"/>
      <point x="320" y="242"/>
    </contour>
  </outline>
</glyph>
<glyph name="yen" format="1">
  <advance width="564"/>
  <unicode hex="00A5"/>
  <outline>
    <contour>
      <point x="549" y="723" type="line"/>
      <point x="504" y="723" type="line"/>
      <point x="284" y="351" type="line"/>
      <point x="66" y="723" type="line"/>
      <point x="15" y="723" type="line"/>
      <point x="262" y="303" type="line"/>
      <point x="262" y="0" type="line"/>
      <point x="307" y="0" type="line"/>
      <point x="307" y="319" type="line"/>
    </contour>
    <contour>
      <point x="463" y="329" type="line"/>
      <point x="106" y="328" type="line"/>
      <point x="106" y="291" type="line"/>
      <point x="463" y="292" type="line"/>
    </contour>
    <contour>
      <point x="463" y="192" type="line"/>
      <point x="106" y="191" type="line"/>
      <point x="106" y="154" type="line"/>
      <point x="463" y="155" type="line"/>
    </contour>
  </outline>
</glyph>
<glyph name="brokenbar" format="1">
  <advance width="486"/>
  <unicode hex="00A6"/>
  <outline>
    <contour>
      <point x="286" y="864" type="line"/>
      <point x="286" y="1652" type="line"/>
      <point x="210" y="1652" type="line"/>
      <point x="212" y="864" type="line"/>
    </contour>
    <contour>
      <point x="286" y="-322" type="line"/>
      <point x="286" y="466" type="line"/>
      <point x="210" y="466" type="line"/>
      <point x="212" y="-322" type="line"/>
    </contour>
  </outline>
</glyph>
<glyph name="section" format="1">
  <advance width="468"/>
  <unicode hex="00A7"/>
  <outline>
    <contour>
      <point x="246" y="-66" type="curve" smooth="yes"/>
      <point x="350" y="-66"/>
      <point x="423" y="-11"/>
      <point x="423" y="62" type="curve" smooth="yes"/>
      <point x="423" y="117"/>
      <point x="386" y="156"/>
      <point x="326" y="190" type="curve"/>
      <point x="375" y="213"/>
      <point x="423" y="247"/>
      <point x="423" y="316" type="curve" smooth="yes"/>
      <point x="423" y="378"/>
      <point x="386" y="430"/>
      <point x="288" y="471" type="curve" smooth="yes"/>
      <point x="200" y="507" type="line" smooth="yes"/>
      <point x="119" y="540"/>
      <point x="101" y="575"/>
      <point x="101" y="609" type="curve" smooth="yes"/>
      <point x="101" y="660"/>
      <point x="151" y="694"/>
      <point x="237" y="694" type="curve" smooth="yes"/>
      <point x="296" y="694"/>
      <point x="343" y="662"/>
      <point x="376" y="618" type="curve"/>
      <point x="409" y="639" type="line"/>
      <point x="374" y="689"/>
      <point x="311" y="733"/>
      <point x="232" y="733" type="curve" smooth="yes"/>
      <point x="129" y="733"/>
      <point x="59" y="679"/>
      <point x="59" y="607" type="curve" smooth="yes"/>
      <point x="59" y="561"/>
      <point x="76" y="518"/>
      <point x="167" y="473" type="curve"/>
      <point x="106" y="451"/>
      <point x="59" y="406"/>
      <point x="59" y="344" type="curve" smooth="yes"/>
      <point x="59" y="289"/>
      <point x="90" y="242"/>
      <point x="170" y="211" type="curve" smooth="yes"/>
      <point x="265" y="174" type="line" smooth="yes"/>
      <point x="355" y="138"/>
      <point x="380" y="102"/>
      <point x="380" y="62" type="curve" smooth="yes"/>
      <point x="380" y="5"/>
      <point x="324" y="-27"/>
      <point x="249" y="-27" type="curve" smooth="yes"/>
      <point x="174" y="-27"/>
      <point x="110" y="12"/>
      <point x="77" y="69" type="curve"/>
      <point x="45" y="49" type="line"/>
      <point x="82" y="-22"/>
      <point x="165" y="-66"/>
    </contour>
    <contour>
      <point x="267" y="216" type="curve"/>
      <point x="198" y="246" type="line" smooth="yes"/>
      <point x="119" y="279"/>
      <point x="101" y="305"/>
      <point x="101" y="347" type="curve" smooth="yes"/>
      <point x="101" y="397"/>
      <point x="158" y="446"/>
      <point x="221" y="451" type="curve"/>
      <point x="285" y="426" type="line" smooth="yes"/>
      <point x="364" y="394"/>
      <point x="379" y="360"/>
      <point x="379" y="310" type="curve" smooth="yes"/>
      <point x="379" y="257"/>
      <point x="325" y="212"/>
    </contour>
  </outline>
</glyph>
<glyph name="copyright" format="1">
  <advance width="803"/>
  <unicode hex="00A9"/>
  <outline>
    <contour>
      <point x="402" y="-10" type="curve" smooth="yes"/>
      <point x="606" y="-10"/>
      <point x="773" y="155"/>
      <point x="773" y="362" type="curve" smooth="yes"/>
      <point x="773" y="566"/>
      <point x="606" y="733"/>
      <point x="402" y="733" type="curve" smooth="yes"/>
      <point x="196" y="733"/>
      <point x="30" y="566"/>
      <point x="30" y="362" type="curve" smooth="yes"/>
      <point x="30" y="155"/>
      <point x="196" y="-10"/>
    </contour>
    <contour>
      <point x="402" y="33" type="curve" smooth="yes"/>
      <point x="225" y="33"/>
      <point x="74" y="162"/>
      <point x="74" y="362" type="curve" smooth="yes"/>
      <point x="74" y="559"/>
      <point x="225" y="691"/>
      <point x="402" y="691" type="curve" smooth="yes"/>
      <point x="574" y="691"/>
      <point x="729" y="559"/>
      <point x="729" y="362" type="curve" smooth="yes"/>
      <point x="729" y="162"/>
      <point x="574" y="33"/>
    </contour>
    <contour>
      <point x="404" y="575" type="curve" smooth="yes"/>
      <point x="296" y="575"/>
      <point x="220" y="488"/>
      <point x="220" y="364" type="curve" smooth="yes"/>
      <point x="220" y="239"/>
      <point x="294" y="155"/>
      <point x="404" y="155" type="curve" smooth="yes"/>
      <point x="470" y="155"/>
      <point x="525" y="194"/>
      <point x="563" y="256" type="curve"/>
      <point x="532" y="275" type="line"/>
      <point x="506" y="226"/>
      <point x="460" y="193"/>
      <point x="406" y="193" type="curve" smooth="yes"/>
      <point x="323" y="193"/>
      <point x="263" y="263"/>
      <point x="263" y="366" type="curve" smooth="yes"/>
      <point x="263" y="467"/>
      <point x="323" y="537"/>
      <point x="407" y="537" type="curve" smooth="yes"/>
      <point x="452" y="537"/>
      <point x="492" y="512"/>
      <point x="524" y="461" type="curve"/>
      <point x="560" y="482" type="line"/>
      <point x="522" y="535"/>
      <point x="474" y="575"/>
    </contour>
  </outline>
</glyph>
<glyph name="ordfeminine" format="1">
  <advance width="406"/>
  <unicode hex="00AA"/>
  <outline>
    <contour>
      <point x="164" y="395" type="curve" smooth="yes"/>
      <point x="210" y="395"/>
      <point x="244" y="412"/>
      <point x="280" y="451" type="curve"/>
      <point x="288" y="401" type="line"/>
      <point x="326" y="401" type="line"/>
      <point x="320" y="443" type="line"/>
      <point x="317" y="468"/>
      <point x="316" y="488"/>
      <point x="316" y="508" type="curve" smooth="yes"/>
      <point x="316" y="527"/>
      <point x="316" y="566"/>
      <point x="316" y="618" type="curve" smooth="yes"/>
      <point x="316" y="687"/>
      <point x="272" y="730"/>
      <point x="195" y="730" type="curve" smooth="yes"/>
      <point x="134" y="730"/>
      <point x="86" y="703"/>
      <point x="63" y="657" type="curve"/>
      <point x="94" y="644" type="line"/>
      <point x="121" y="685"/>
      <point x="149" y="697"/>
      <point x="191" y="697" type="curve" smooth="yes"/>
      <point x="249" y="697"/>
      <point x="281" y="673"/>
      <point x="281" y="622" type="curve" smooth="yes"/>
      <point x="281" y="597" type="line"/>
      <point x="210" y="590" type="line" smooth="yes"/>
      <point x="108" y="580"/>
      <point x="55" y="546"/>
      <point x="55" y="484" type="curve" smooth="yes"/>
      <point x="55" y="428"/>
      <point x="96" y="395"/>
    </contour>
    <contour>
      <point x="172" y="426" type="curve" smooth="yes"/>
      <point x="125" y="426"/>
      <point x="93" y="449"/>
      <point x="93" y="485" type="curve" smooth="yes"/>
      <point x="93" y="527"/>
      <point x="133" y="554"/>
      <point x="222" y="561" type="curve" smooth="yes"/>
      <point x="281" y="566" type="line"/>
      <point x="281" y="508" type="line" smooth="yes"/>
      <point x="281" y="490"/>
      <point x="270" y="474"/>
      <point x="251" y="457" type="curve" smooth="yes"/>
      <point x="228" y="436"/>
      <point x="203" y="426"/>
    </contour>
  </outline>
</glyph>
<glyph name="guillemetleft" format="1">
  <advance width="408"/>
  <unicode hex="00AB"/>
  <outline>
    <contour>
      <point x="245" y="251" type="line"/>
      <point x="365" y="434" type="line"/>
      <point x="337" y="434" type="line"/>
      <point x="193" y="251" type="line"/>
      <point x="336" y="76" type="line"/>
      <point x="363" y="76" type="line"/>
    </contour>
    <contour>
      <point x="82" y="251" type="line"/>
      <point x="202" y="434" type="line"/>
      <point x="174" y="434" type="line"/>
      <point x="30" y="251" type="line"/>
      <point x="173" y="76" type="line"/>
      <point x="200" y="76" type="line"/>
    </contour>
  </outline>
</glyph>
<glyph name="logicalnot" format="1">
  <advance width="521"/>
  <unicode hex="00AC"/>
  <outline>
    <contour>
      <point x="456" y="382" type="line"/>
      <point x="65" y="381" type="line"/>
      <point x="65" y="344" type="line"/>
      <point x="456" y="345" type="line"/>
    </contour>
    <contour>
      <point x="456" y="375" type="line"/>
      <point x="419" y="375" type="line"/>
      <point x="420" y="209" type="line"/>
      <point x="456" y="209" type="line"/>
    </contour>
  </outline>
</glyph>
<glyph name="registered" format="1">
  <advance width="525"/>
  <unicode hex="00AE"/>
  <outline>
    <contour>
      <point x="263" y="268" type="curve" smooth="yes"/>
      <point x="391" y="268"/>
      <point x="495" y="371"/>
      <point x="495" y="500" type="curve" smooth="yes"/>
      <point x="495" y="629"/>
      <point x="391" y="733"/>
      <point x="263" y="733" type="curve" smooth="yes"/>
      <point x="133" y="733"/>
      <point x="30" y="629"/>
      <point x="30" y="500" type="curve" smooth="yes"/>
      <point x="30" y="371"/>
      <point x="133" y="268"/>
    </contour>
    <contour>
      <point x="263" y="302" type="curve" smooth="yes"/>
      <point x="146" y="302"/>
      <point x="65" y="379"/>
      <point x="65" y="500" type="curve" smooth="yes"/>
      <point x="65" y="620"/>
      <point x="146" y="699"/>
      <point x="263" y="699" type="curve" smooth="yes"/>
      <point x="378" y="699"/>
      <point x="460" y="620"/>
      <point x="460" y="500" type="curve" smooth="yes"/>
      <point x="460" y="379"/>
      <point x="378" y="302"/>
    </contour>
    <contour>
      <point x="178" y="383" type="line"/>
      <point x="207" y="383" type="line"/>
      <point x="207" y="494" type="line"/>
      <point x="271" y="494" type="line"/>
      <point x="313" y="383" type="line"/>
      <point x="344" y="383" type="line"/>
      <point x="300" y="496" type="line"/>
      <point x="323" y="504"/>
      <point x="350" y="519"/>
      <point x="350" y="558" type="curve" smooth="yes"/>
      <point x="350" y="595"/>
      <point x="324" y="614"/>
      <point x="278" y="614" type="curve" smooth="yes"/>
      <point x="178" y="614" type="line"/>
    </contour>
    <contour>
      <point x="207" y="522" type="line"/>
      <point x="207" y="587" type="line"/>
      <point x="268" y="587" type="line" smooth="yes"/>
      <point x="311" y="587"/>
      <point x="320" y="571"/>
      <point x="320" y="554" type="curve" smooth="yes"/>
      <point x="320" y="528"/>
      <point x="297" y="522"/>
      <point x="271" y="522" type="curve" smooth="yes"/>
    </contour>
  </outline>
</glyph>
<glyph name="degree" format="1">
  <advance width="452"/>
  <unicode hex="00B0"/>
  <outline>
    <contour>
      <point x="372" y="690" type="curve" smooth="yes"/>
      <point x="372" y="776"/>
      <point x="310" y="837"/>
      <point x="226" y="837" type="curve" smooth="yes"/>
      <point x="141" y="837"/>
      <point x="80" y="776"/>
      <point x="80" y="690" type="curve" smooth="yes"/>
      <point x="80" y="605"/>
      <point x="141" y="544"/>
      <point x="226" y="544" type="curve" smooth="yes"/>
      <point x="310" y="544"/>
      <point x="372" y="605"/>
    </contour>
    <contour>
      <point x="330" y="689" type="curve" smooth="yes"/>
      <point x="330" y="624"/>
      <point x="290" y="579"/>
      <point x="225" y="579" type="curve" smooth="yes"/>
      <point x="160" y="579"/>
      <point x="120" y="624"/>
      <point x="119" y="689" type="curve" smooth="yes"/>
      <point x="118" y="754"/>
      <point x="160" y="799"/>
      <point x="224" y="799" type="curve" smooth="yes"/>
      <point x="290" y="799"/>
      <point x="330" y="754"/>
    </contour>
  </outline>
</glyph>
<glyph name="plusminus" format="1">
  <advance width="521"/>
  <unicode hex="00B1"/>
  <outline>
    <contour>
      <point x="456" y="119" type="line"/>
      <point x="65" y="118" type="line"/>
      <point x="65" y="81" type="line"/>
      <point x="456" y="82" type="line"/>
    </contour>
    <contour>
      <point x="456" y="450" type="line"/>
      <point x="65" y="449" type="line"/>
      <point x="65" y="412" type="line"/>
      <point x="456" y="413" type="line"/>
    </contour>
    <contour>
      <point x="279" y="236" type="line"/>
      <point x="279" y="627" type="line"/>
      <point x="242" y="627" type="line"/>
      <point x="243" y="236" type="line"/>
    </contour>
  </outline>
</glyph>
<glyph name="micro" format="1">
  <advance width="577"/>
  <unicode hex="00B5"/>
  <outline>
    <contour>
      <point x="90" y="-165" type="line"/>
      <point x="130" y="-165" type="line"/>
      <point x="130" y="37" type="line"/>
      <point x="165" y="2"/>
      <point x="206" y="-10"/>
      <point x="256" y="-10" type="curve" smooth="yes"/>
      <point x="319" y="-10"/>
      <point x="367" y="15"/>
      <point x="450" y="82" type="curve"/>
      <point x="450" y="0" type="line"/>
      <point x="487" y="0" type="line"/>
      <point x="487" y="530" type="line"/>
      <point x="447" y="530" type="line"/>
      <point x="447" y="134" type="line"/>
      <point x="382" y="69"/>
      <point x="319" y="28"/>
      <point x="254" y="28" type="curve" smooth="yes"/>
      <point x="186" y="28"/>
      <point x="130" y="79"/>
      <point x="130" y="137" type="curve" smooth="yes"/>
      <point x="130" y="530" type="line"/>
      <point x="90" y="530" type="line"/>
    </contour>
  </outline>
</glyph>
<glyph name="paragraph" format="1">
  <advance width="529"/>
  <unicode hex="00B6"/>
  <outline>
    <contour>
      <point x="439" y="692" type="line"/>
      <point x="439" y="723" type="line"/>
      <point x="281" y="723" type="line" smooth="yes"/>
      <point x="128" y="723"/>
      <point x="55" y="610"/>
      <point x="55" y="501" type="curve" smooth="yes"/>
      <point x="55" y="398"/>
      <point x="129" y="296"/>
      <point x="270" y="296" type="curve"/>
      <point x="270" y="-83" type="line"/>
      <point x="304" y="-83" type="line"/>
      <point x="304" y="692" type="line"/>
      <point x="347" y="692" type="line"/>
      <point x="347" y="-83" type="line"/>
      <point x="380" y="-83" type="line"/>
      <point x="380" y="692" type="line"/>
    </contour>
  </outline>
</glyph>
<glyph name="periodcentered" format="1">
  <advance width="200"/>
  <unicode hex="00B7"/>
  <outline>
    <contour>
      <point x="140" y="403" type="line"/>
      <point x="60" y="403" type="line"/>
      <point x="60" y="326" type="line"/>
      <point x="140" y="326" type="line"/>
    </contour>
  </outline>
</glyph>
<glyph name="ordmasculine" format="1">
  <advance width="818"/>
  <unicode hex="00BA"/>
  <outline>
    <contour>
      <point x="408" y="1464" type="curve" smooth="yes"/>
      <point x="224" y="1464"/>
      <point x="110" y="1328"/>
      <point x="110" y="1126" type="curve" smooth="yes"/>
      <point x="110" y="932"/>
      <point x="214" y="794"/>
      <point x="408" y="794" type="curve" smooth="yes"/>
      <point x="602" y="794"/>
      <point x="708" y="932"/>
      <point x="708" y="1126" type="curve" smooth="yes"/>
      <point x="708" y="1328"/>
      <point x="594" y="1464"/>
    </contour>
    <contour>
      <point x="408" y="1396" type="curve" smooth="yes"/>
      <point x="552" y="1396"/>
      <point x="628" y="1288"/>
      <point x="628" y="1132" type="curve" smooth="yes"/>
      <point x="628" y="966"/>
      <point x="552" y="858"/>
      <point x="408" y="858" type="curve" smooth="yes"/>
      <point x="264" y="858"/>
      <point x="190" y="966"/>
      <point x="190" y="1132" type="curve" smooth="yes"/>
      <point x="190" y="1288"/>
      <point x="264" y="1396"/>
    </contour>
  </outline>
</glyph>
<glyph name="guillemetright" format="1">
  <advance width="409"/>
  <unicode hex="00BB"/>
  <outline>
    <contour>
      <point x="165" y="251" type="line"/>
      <point x="47" y="76" type="line"/>
      <point x="73" y="76" type="line"/>
      <point x="216" y="251" type="line"/>
      <point x="72" y="434" type="line"/>
      <point x="45" y="434" type="line"/>
    </contour>
    <contour>
      <point x="328" y="251" type="line"/>
      <point x="210" y="76" type="line"/>
      <point x="236" y="76" type="line"/>
      <point x="379" y="251" type="line"/>
      <point x="235" y="434" type="line"/>
      <point x="208" y="434" type="line"/>
    </contour>
  </outline>
</glyph>
<glyph name="questiondown" format="1">
  <advance width="492"/>
  <unicode hex="00BF"/>
  <outline>
    <contour>
      <point x="226" y="440" type="line"/>
      <point x="287" y="440" type="line"/>
      <point x="287" y="517" type="line"/>
      <point x="226" y="517" type="line"/>
    </contour>
    <contour>
      <point x="457" y="-46" type="curve"/>
      <point x="416" y="-26" type="line"/>
      <point x="394" y="-82"/>
      <point x="312" y="-130"/>
      <point x="236" y="-130" type="curve" smooth="yes"/>
      <point x="138" y="-130"/>
      <point x="75" y="-77"/>
      <point x="75" y="7" type="curve" smooth="yes"/>
      <point x="75" y="159"/>
      <point x="277" y="165"/>
      <point x="277" y="371" type="curve"/>
      <point x="236" y="371" type="line"/>
      <point x="236" y="179"/>
      <point x="30" y="174"/>
      <point x="30" y="7" type="curve" smooth="yes"/>
      <point x="30" y="-101"/>
      <point x="110" y="-171"/>
      <point x="236" y="-171" type="curve" smooth="yes"/>
      <point x="330" y="-171"/>
      <point x="415" y="-122"/>
    </contour>
  </outline>
</glyph>
<glyph name="AE" format="1">
  <advance width="911"/>
  <unicode hex="00C6"/>
  <outline>
    <contour>
      <point x="841" y="39" type="line"/>
      <point x="480" y="39" type="line"/>
      <point x="480" y="346" type="line"/>
      <point x="758" y="346" type="line"/>
      <point x="758" y="385" type="line"/>
      <point x="480" y="385" type="line"/>
      <point x="480" y="684" type="line"/>
      <point x="827" y="684" type="line"/>
      <point x="827" y="723" type="line"/>
      <point x="413" y="723" type="line"/>
      <point x="0" y="0" type="line"/>
      <point x="42" y="0" type="line"/>
      <point x="175" y="232" type="line"/>
      <point x="436" y="232" type="line"/>
      <point x="436" y="0" type="line"/>
      <point x="841" y="0" type="line"/>
    </contour>
    <contour>
      <point x="436" y="271" type="line"/>
      <point x="194" y="271" type="line"/>
      <point x="436" y="685" type="line"/>
    </contour>
    <contour>
      <point x="617" y="723" type="move" name="top"/>
    </contour>
  </outline>
</glyph>
<glyph name="Eth" format="1">
  <advance width="665"/>
  <unicode hex="00D0"/>
  <outline>
    <contour>
      <point x="334" y="385" type="line"/>
      <point x="35" y="385" type="line"/>
      <point x="35" y="344" type="line"/>
      <point x="334" y="344" type="line"/>
    </contour>
    <component base="D" xOffset="-2"/>
  </outline>
</glyph>
<glyph name="multiply" format="1">
  <advance width="503"/>
  <unicode hex="00D7"/>
  <outline>
    <contour>
      <point x="438" y="204" type="line"/>
      <point x="92" y="548" type="line"/>
      <point x="65" y="522" type="line"/>
      <point x="411" y="177" type="line"/>
    </contour>
    <contour>
      <point x="93" y="177" type="line"/>
      <point x="437" y="524" type="line"/>
      <point x="410" y="550" type="line"/>
      <point x="66" y="204" type="line"/>
    </contour>
  </outline>
</glyph>
<glyph name="Oslash" format="1">
  <advance width="729"/>
  <unicode hex="00D8"/>
  <outline>
    <contour>
      <point x="72" y="-13" type="line"/>
      <point x="153" y="79" type="line"/>
      <point x="202" y="20"/>
      <point x="274" y="-10"/>
      <point x="364" y="-10" type="curve" smooth="yes"/>
      <point x="547" y="-10"/>
      <point x="658" y="119"/>
      <point x="658" y="360" type="curve" smooth="yes"/>
      <point x="658" y="460"/>
      <point x="639" y="541"/>
      <point x="604" y="602" type="curve"/>
      <point x="692" y="704" type="line"/>
      <point x="656" y="735" type="line"/>
      <point x="576" y="643" type="line"/>
      <point x="525" y="702"/>
      <point x="454" y="733"/>
      <point x="365" y="733" type="curve" smooth="yes"/>
      <point x="182" y="733"/>
      <point x="71" y="602"/>
      <point x="71" y="358" type="curve" smooth="yes"/>
      <point x="71" y="259"/>
      <point x="89" y="179"/>
      <point x="124" y="120" type="curve"/>
      <point x="37" y="19" type="line"/>
    </contour>
    <contour>
      <point x="366" y="32" type="curve" smooth="yes"/>
      <point x="285" y="32"/>
      <point x="224" y="59"/>
      <point x="182" y="114" type="curve"/>
      <point x="572" y="566" type="line"/>
      <point x="596" y="513"/>
      <point x="608" y="445"/>
      <point x="608" y="360" type="curve" smooth="yes"/>
      <point x="608" y="138"/>
      <point x="527" y="32"/>
    </contour>
    <contour>
      <point x="156" y="157" type="line"/>
      <point x="132" y="209"/>
      <point x="120" y="276"/>
      <point x="120" y="360" type="curve" smooth="yes"/>
      <point x="120" y="582"/>
      <point x="204" y="691"/>
      <point x="365" y="691" type="curve" smooth="yes"/>
      <point x="445" y="691"/>
      <point x="505" y="664"/>
      <point x="546" y="609" type="curve"/>
    </contour>
    <contour>
      <point x="365" y="723" type="move" name="top"/>
    </contour>
  </outline>
</glyph>
<glyph name="Yacute" format="1">
  <advance width="1078"/>
  <unicode hex="00DD"/>
  <outline>
    <component base="Y"/>
    <component base="acutecomb" xOffset="276" yOffset="416"/>
    <contour>
      <point x="542" y="2" type="move" name="bottom"/>
    </contour>
  </outline>
</glyph>
<glyph name="Thorn" format="1">
  <advance width="625"/>
  <unicode hex="00DE"/>
  <outline>
    <contour>
      <point x="590" y="380" type="curve" smooth="yes"/>
      <point x="590" y="509"/>
      <point x="483" y="565"/>
      <point x="330" y="565" type="curve" smooth="yes"/>
      <point x="150" y="565" type="line"/>
      <point x="150" y="723" type="line"/>
      <point x="105" y="723" type="line"/>
      <point x="105" y="0" type="line"/>
      <point x="150" y="0" type="line"/>
      <point x="150" y="177" type="line"/>
      <point x="336" y="177" type="line" smooth="yes"/>
      <point x="483" y="177"/>
      <point x="590" y="233"/>
    </contour>
    <contour>
      <point x="543" y="380" type="curve" smooth="yes"/>
      <point x="543" y="261"/>
      <point x="461" y="216"/>
      <point x="336" y="216" type="curve" smooth="yes"/>
      <point x="150" y="216" type="line"/>
      <point x="150" y="526" type="line"/>
      <point x="329" y="526" type="line" smooth="yes"/>
      <point x="461" y="526"/>
      <point x="543" y="488"/>
    </contour>
  </outline>
</glyph>
<glyph name="germandbls" format="1">
  <advance width="1158"/>
  <unicode hex="00DF"/>
  <outline>
    <contour>
      <point x="606" y="1446" type="curve" smooth="yes"/>
      <point x="370" y="1446"/>
      <point x="206" y="1292"/>
      <point x="206" y="1034" type="curve"/>
      <point x="60" y="1034" type="line"/>
      <point x="60" y="966" type="line"/>
      <point x="208" y="966" type="line"/>
      <point x="208" y="0" type="line"/>
      <point x="286" y="0" type="line"/>
      <point x="286" y="1044" type="line" smooth="yes"/>
      <point x="286" y="1268"/>
      <point x="414" y="1372"/>
      <point x="590" y="1372" type="curve" smooth="yes"/>
      <point x="736" y="1372"/>
      <point x="820" y="1304"/>
      <point x="820" y="1194" type="curve" smooth="yes"/>
      <point x="820" y="1074"/>
      <point x="724" y="1038"/>
      <point x="640" y="994" type="curve" smooth="yes"/>
      <point x="500" y="924"/>
      <point x="440" y="872"/>
      <point x="440" y="774" type="curve" smooth="yes"/>
      <point x="440" y="636"/>
      <point x="558" y="608"/>
      <point x="652" y="580" type="curve" smooth="yes"/>
      <point x="798" y="534"/>
      <point x="946" y="482"/>
      <point x="946" y="302" type="curve" smooth="yes"/>
      <point x="946" y="146"/>
      <point x="832" y="54"/>
      <point x="648" y="54" type="curve" smooth="yes"/>
      <point x="552" y="54"/>
      <point x="494" y="80"/>
      <point x="428" y="118" type="curve"/>
      <point x="384" y="52" type="line"/>
      <point x="454" y="6"/>
      <point x="574" y="-20"/>
      <point x="662" y="-20" type="curve" smooth="yes"/>
      <point x="858" y="-20"/>
      <point x="1028" y="94"/>
      <point x="1028" y="308" type="curve" smooth="yes"/>
      <point x="1028" y="558"/>
      <point x="800" y="618"/>
      <point x="676" y="658" type="curve" smooth="yes"/>
      <point x="560" y="694"/>
      <point x="522" y="710"/>
      <point x="522" y="776" type="curve" smooth="yes"/>
      <point x="522" y="844"/>
      <point x="564" y="866"/>
      <point x="682" y="930" type="curve" smooth="yes"/>
      <point x="788" y="986"/>
      <point x="902" y="1030"/>
      <point x="902" y="1188" type="curve" smooth="yes"/>
      <point x="902" y="1306"/>
      <point x="836" y="1446"/>
    </contour>
  </outline>
</glyph>
<glyph name="ae" format="1">
  <advance width="923"/>
  <unicode hex="00E6"/>
  <outline>
    <contour>
      <point x="448" y="247" type="curve"/>
      <point x="868" y="248" type="line"/>
      <point x="868" y="426"/>
      <point x="778" y="527"/>
      <point x="644" y="527" type="curve" smooth="yes"/>
      <point x="553" y="527"/>
      <point x="483" y="488"/>
      <point x="444" y="410" type="curve"/>
      <point x="424" y="488"/>
      <point x="369" y="527"/>
      <point x="273" y="527" type="curve" smooth="yes"/>
      <point x="188" y="527"/>
      <point x="112" y="485"/>
      <point x="69" y="413" type="curve"/>
      <point x="99" y="392" type="line"/>
      <point x="146" y="455"/>
      <point x="201" y="489"/>
      <point x="265" y="489" type="curve" smooth="yes"/>
      <point x="363" y="489"/>
      <point x="415" y="437"/>
      <point x="415" y="354" type="curve" smooth="yes"/>
      <point x="415" y="310" type="line"/>
      <point x="288" y="300" type="line" smooth="yes"/>
      <point x="130" y="287"/>
      <point x="55" y="228"/>
      <point x="55" y="133" type="curve" smooth="yes"/>
      <point x="55" y="44"/>
      <point x="116" y="-10"/>
      <point x="217" y="-10" type="curve" smooth="yes"/>
      <point x="345" y="-10"/>
      <point x="402" y="60"/>
      <point x="437" y="105" type="curve" smooth="yes"/>
      <point x="439" y="108"/>
      <point x="440" y="108"/>
      <point x="442" y="105" type="curve" smooth="yes"/>
      <point x="470" y="63"/>
      <point x="522" y="-10"/>
      <point x="641" y="-10" type="curve" smooth="yes"/>
      <point x="738" y="-10"/>
      <point x="818" y="39"/>
      <point x="852" y="104" type="curve"/>
      <point x="821" y="126" type="line"/>
      <point x="792" y="83"/>
      <point x="748" y="27"/>
      <point x="643" y="27" type="curve" smooth="yes"/>
      <point x="534" y="27"/>
      <point x="448" y="143"/>
    </contour>
    <contour>
      <point x="641" y="489" type="curve" smooth="yes"/>
      <point x="749" y="489"/>
      <point x="826" y="397"/>
      <point x="826" y="283" type="curve"/>
      <point x="450" y="284" type="line"/>
      <point x="451" y="408"/>
      <point x="534" y="489"/>
    </contour>
    <contour>
      <point x="415" y="273" type="line"/>
      <point x="415" y="173" type="line"/>
      <point x="415" y="97"/>
      <point x="331" y="33"/>
      <point x="227" y="28" type="curve" smooth="yes"/>
      <point x="145" y="24"/>
      <point x="97" y="69"/>
      <point x="97" y="135" type="curve" smooth="yes"/>
      <point x="97" y="210"/>
      <point x="162" y="254"/>
      <point x="308" y="265" type="curve" smooth="yes"/>
    </contour>
    <contour>
      <point x="450" y="517" type="move" name="top"/>
    </contour>
  </outline>
</glyph>
<glyph name="eth" format="1">
  <advance width="584"/>
  <unicode hex="00F0"/>
  <outline>
    <contour>
      <point x="529" y="249" type="curve" smooth="yes"/>
      <point x="529" y="411"/>
      <point x="475" y="549"/>
      <point x="323" y="652" type="curve"/>
      <point x="414" y="703" type="line"/>
      <point x="398" y="735" type="line"/>
      <point x="290" y="675" type="line"/>
      <point x="253" y="696"/>
      <point x="214" y="716"/>
      <point x="168" y="734" type="curve"/>
      <point x="132" y="710" type="line"/>
      <point x="177" y="692"/>
      <point x="217" y="674"/>
      <point x="253" y="653" type="curve"/>
      <point x="96" y="566" type="line"/>
      <point x="115" y="535" type="line"/>
      <point x="286" y="632" type="line"/>
      <point x="370" y="575"/>
      <point x="421" y="510"/>
      <point x="451" y="440" type="curve"/>
      <point x="410" y="482"/>
      <point x="352" y="507"/>
      <point x="283" y="507" type="curve" smooth="yes"/>
      <point x="150" y="507"/>
      <point x="55" y="398"/>
      <point x="55" y="246" type="curve" smooth="yes"/>
      <point x="55" y="96"/>
      <point x="149" y="-10"/>
      <point x="290" y="-10" type="curve" smooth="yes"/>
      <point x="440" y="-10"/>
      <point x="529" y="98"/>
    </contour>
    <contour>
      <point x="294" y="27" type="curve" smooth="yes"/>
      <point x="180" y="27"/>
      <point x="96" y="125"/>
      <point x="96" y="248" type="curve" smooth="yes"/>
      <point x="96" y="371"/>
      <point x="180" y="470"/>
      <point x="293" y="470" type="curve" smooth="yes"/>
      <point x="404" y="470"/>
      <point x="488" y="371"/>
      <point x="488" y="248" type="curve" smooth="yes"/>
      <point x="488" y="124"/>
      <point x="406" y="27"/>
    </contour>
  </outline>
</glyph>
<glyph name="oslash" format="1">
  <advance width="560"/>
  <unicode hex="00F8"/>
  <outline>
    <contour>
      <point x="545" y="491" type="line"/>
      <point x="518" y="519" type="line"/>
      <point x="15" y="24" type="line"/>
      <point x="42" y="-4" type="line"/>
    </contour>
    <component base="o" xOffset="-5"/>
    <contour>
      <point x="281" y="517" type="move" name="top"/>
    </contour>
  </outline>
</glyph>
<glyph name="thorn" format="1">
  <advance width="580"/>
  <unicode hex="00FE"/>
  <outline>
    <contour>
      <point x="132" y="723" type="line"/>
      <point x="95" y="723" type="line"/>
      <point x="95" y="-161" type="line"/>
      <point x="134" y="-161" type="line"/>
      <point x="134" y="32" type="line" smooth="yes"/>
      <point x="134" y="45"/>
      <point x="137" y="48"/>
      <point x="147" y="39" type="curve" smooth="yes"/>
      <point x="176" y="16"/>
      <point x="224" y="-10"/>
      <point x="291" y="-10" type="curve" smooth="yes"/>
      <point x="434" y="-10"/>
      <point x="525" y="102"/>
      <point x="525" y="268" type="curve" smooth="yes"/>
      <point x="525" y="441"/>
      <point x="427" y="527"/>
      <point x="302" y="527" type="curve" smooth="yes"/>
      <point x="193" y="527"/>
      <point x="148" y="459"/>
      <point x="132" y="440" type="curve"/>
    </contour>
    <contour>
      <point x="134" y="101" type="curve"/>
      <point x="134" y="355" type="line" smooth="yes"/>
      <point x="134" y="413"/>
      <point x="200" y="489"/>
      <point x="297" y="489" type="curve" smooth="yes"/>
      <point x="395" y="489"/>
      <point x="484" y="419"/>
      <point x="484" y="264" type="curve" smooth="yes"/>
      <point x="484" y="116"/>
      <point x="402" y="27"/>
      <point x="290" y="27" type="curve" smooth="yes"/>
      <point x="230" y="27"/>
      <point x="181" y="56"/>
    </contour>
  </outline>
</glyph>
<glyph name="dcroat" format="1">
  <advance width="615"/>
  <unicode hex="0111"/>
  <outline>
    <contour>
      <point x="565" y="645" type="line"/>
      <point x="284" y="645" type="line"/>
      <point x="284" y="611" type="line"/>
      <point x="565" y="611" type="line"/>
    </contour>
    <component base="d"/>
  </outline>
</glyph>
<glyph name="gcommaaccent" format="1">
  <advance width="604"/>
  <unicode hex="0123"/>
  <outline>
    <contour>
      <point x="248" y="616" type="line"/>
      <point x="304" y="616" type="line"/>
      <point x="304" y="697" type="line"/>
      <point x="281" y="697" type="line"/>
      <point x="313" y="766" type="line"/>
      <point x="282" y="766" type="line"/>
      <point x="248" y="701" type="line"/>
    </contour>
    <component base="g"/>
    <contour>
      <point x="279" y="536" type="move" name="_top"/>
    </contour>
  </outline>
</glyph>
<glyph name="Hbar" format="1">
  <advance width="699"/>
  <unicode hex="0126"/>
  <outline>
    <contour>
      <point x="689" y="603" type="line"/>
      <point x="10" y="603" type="line"/>
      <point x="10" y="564" type="line"/>
      <point x="689" y="564" type="line"/>
    </contour>
    <component base="H" xOffset="1"/>
  </outline>
</glyph>
<glyph name="hbar" format="1">
  <advance width="1138"/>
  <unicode hex="0127"/>
  <outline>
    <contour>
      <point x="604" y="1290" type="line"/>
      <point x="40" y="1290" type="line"/>
      <point x="40" y="1222" type="line"/>
      <point x="604" y="1222" type="line"/>
    </contour>
    <component base="h" xOffset="-4"/>
  </outline>
</glyph>
<glyph name="idotless" format="1">
  <advance width="478"/>
  <unicode hex="0131"/>
  <outline>
    <contour>
      <point x="278" y="1034" type="line"/>
      <point x="200" y="1034" type="line"/>
      <point x="200" y="0" type="line"/>
      <point x="278" y="0" type="line"/>
    </contour>
    <contour>
      <point x="262" y="26" type="move" name="ogonek"/>
    </contour>
    <contour>
      <point x="238" y="1034" type="move" name="top"/>
    </contour>
  </outline>
</glyph>
<glyph name="kgreenlandic" format="1">
  <advance width="549"/>
  <unicode hex="0138"/>
  <outline>
    <contour>
      <point x="504" y="0" type="line"/>
      <point x="300" y="329" type="line"/>
      <point x="485" y="517" type="line"/>
      <point x="430" y="517" type="line"/>
      <point x="134" y="214" type="line"/>
      <point x="134" y="517" type="line"/>
      <point x="95" y="517" type="line"/>
      <point x="95" y="0" type="line"/>
      <point x="134" y="0" type="line"/>
      <point x="134" y="158" type="line"/>
      <point x="270" y="296" type="line"/>
      <point x="454" y="0" type="line"/>
    </contour>
  </outline>
</glyph>
<glyph name="Lslash" format="1">
  <advance width="547"/>
  <unicode hex="0141"/>
  <outline>
    <contour>
      <point x="317" y="428" type="line"/>
      <point x="30" y="355" type="line"/>
      <point x="30" y="317" type="line"/>
      <point x="317" y="392" type="line"/>
    </contour>
    <component base="L" xOffset="-5"/>
  </outline>
</glyph>
<glyph name="lslash" format="1">
  <advance width="216"/>
  <unicode hex="0142"/>
  <outline>
    <contour>
      <point x="231" y="431" type="line"/>
      <point x="0" y="215" type="line"/>
      <point x="0" y="170" type="line"/>
      <point x="231" y="388" type="line"/>
    </contour>
    <component base="l" xOffset="4"/>
  </outline>
</glyph>
<glyph name="Eng" format="1">
  <advance width="723"/>
  <unicode hex="014A"/>
  <outline>
    <contour>
      <point x="612" y="723" type="curve" smooth="yes"/>
      <point x="587" y="723" type="line" smooth="yes"/>
      <point x="581" y="723"/>
      <point x="579" y="721"/>
      <point x="579" y="715" type="curve" smooth="yes"/>
      <point x="579" y="104" type="line" smooth="yes"/>
      <point x="579" y="98"/>
      <point x="572" y="92"/>
      <point x="565" y="101" type="curve" smooth="yes"/>
      <point x="150" y="717" type="line" smooth="yes"/>
      <point x="146" y="722"/>
      <point x="143" y="723"/>
      <point x="136" y="723" type="curve" smooth="yes"/>
      <point x="116" y="723" type="line" smooth="yes"/>
      <point x="109" y="723"/>
      <point x="107" y="722"/>
      <point x="107" y="714" type="curve" smooth="yes"/>
      <point x="107" y="10" type="line" smooth="yes"/>
      <point x="107" y="3"/>
      <point x="109" y="0"/>
      <point x="116" y="0" type="curve" smooth="yes"/>
      <point x="140" y="0" type="line" smooth="yes"/>
      <point x="147" y="0"/>
      <point x="150" y="3"/>
      <point x="150" y="9" type="curve" smooth="yes"/>
      <point x="150" y="624" type="line" smooth="yes"/>
      <point x="150" y="632"/>
      <point x="152" y="634"/>
      <point x="159" y="624" type="curve" smooth="yes"/>
      <point x="576" y="12" type="line"/>
      <point x="576" y="-40" type="line" smooth="yes"/>
      <point x="576" y="-109"/>
      <point x="546" y="-132"/>
      <point x="493" y="-132" type="curve" smooth="yes"/>
      <point x="464" y="-132"/>
      <point x="441" y="-125"/>
      <point x="425" y="-119" type="curve" smooth="yes"/>
      <point x="420" y="-117"/>
      <point x="418" y="-118"/>
      <point x="417" y="-123" type="curve"/>
      <point x="414" y="-147" type="line"/>
      <point x="414" y="-151"/>
      <point x="415" y="-154"/>
      <point x="418" y="-156" type="curve" smooth="yes"/>
      <point x="425" y="-161"/>
      <point x="457" y="-171"/>
      <point x="497" y="-171" type="curve" smooth="yes"/>
      <point x="589" y="-171"/>
      <point x="621" y="-121"/>
      <point x="621" y="-45" type="curve" smooth="yes"/>
      <point x="621" y="714" type="line" smooth="yes"/>
      <point x="621" y="722"/>
      <point x="619" y="723"/>
    </contour>
  </outline>
</glyph>
<glyph name="eng" format="1">
  <advance width="575"/>
  <unicode hex="014B"/>
  <outline>
    <contour>
      <point x="375" y="-166" type="curve" smooth="yes"/>
      <point x="453" y="-166"/>
      <point x="486" y="-120"/>
      <point x="486" y="-40" type="curve" smooth="yes"/>
      <point x="486" y="383" type="line" smooth="yes"/>
      <point x="486" y="468"/>
      <point x="428" y="527"/>
      <point x="328" y="527" type="curve" smooth="yes"/>
      <point x="264" y="527"/>
      <point x="219" y="509"/>
      <point x="131" y="439" type="curve"/>
      <point x="131" y="517" type="line"/>
      <point x="95" y="517" type="line"/>
      <point x="95" y="0" type="line"/>
      <point x="134" y="0" type="line"/>
      <point x="134" y="398" type="line"/>
      <point x="197" y="454"/>
      <point x="261" y="490"/>
      <point x="323" y="490" type="curve" smooth="yes"/>
      <point x="415" y="490"/>
      <point x="447" y="438"/>
      <point x="447" y="362" type="curve" smooth="yes"/>
      <point x="447" y="-45" type="line" smooth="yes"/>
      <point x="447" y="-107"/>
      <point x="426" y="-131"/>
      <point x="374" y="-132" type="curve" smooth="yes"/>
      <point x="319" y="-133" type="line"/>
      <point x="319" y="-157" type="line" smooth="yes"/>
      <point x="319" y="-165"/>
      <point x="325" y="-166"/>
    </contour>
  </outline>
</glyph>
<glyph name="OE" format="1">
  <advance width="1108"/>
  <unicode hex="0152"/>
  <outline>
    <contour>
      <point x="1038" y="39" type="line"/>
      <point x="657" y="39" type="line"/>
      <point x="657" y="346" type="line"/>
      <point x="944" y="346" type="line"/>
      <point x="944" y="385" type="line"/>
      <point x="657" y="385" type="line"/>
      <point x="657" y="684" type="line"/>
      <point x="1023" y="684" type="line"/>
      <point x="1023" y="723" type="line"/>
      <point x="612" y="723" type="line"/>
      <point x="612" y="585" type="line"/>
      <point x="564" y="683"/>
      <point x="479" y="733"/>
      <point x="365" y="733" type="curve" smooth="yes"/>
      <point x="182" y="733"/>
      <point x="70" y="602"/>
      <point x="70" y="358" type="curve" smooth="yes"/>
      <point x="70" y="118"/>
      <point x="180" y="-10"/>
      <point x="364" y="-10" type="curve" smooth="yes"/>
      <point x="478" y="-10"/>
      <point x="564" y="40"/>
      <point x="612" y="137" type="curve"/>
      <point x="612" y="0" type="line"/>
      <point x="1038" y="0" type="line"/>
    </contour>
    <contour>
      <point x="366" y="31" type="curve" smooth="yes"/>
      <point x="204" y="31"/>
      <point x="117" y="139"/>
      <point x="117" y="360" type="curve" smooth="yes"/>
      <point x="117" y="582"/>
      <point x="204" y="692"/>
      <point x="365" y="692" type="curve" smooth="yes"/>
      <point x="525" y="692"/>
      <point x="608" y="583"/>
      <point x="608" y="360" type="curve" smooth="yes"/>
      <point x="608" y="138"/>
      <point x="527" y="31"/>
    </contour>
  </outline>
</glyph>
<glyph name="oe" format="1">
  <advance width="1001"/>
  <unicode hex="0153"/>
  <outline>
    <contour>
      <point x="292" y="-10" type="curve" smooth="yes"/>
      <point x="385" y="-10"/>
      <point x="458" y="36"/>
      <point x="497" y="114" type="curve" smooth="yes"/>
      <point x="505" y="130"/>
      <point x="510" y="129"/>
      <point x="515" y="117" type="curve" smooth="yes"/>
      <point x="554" y="38"/>
      <point x="629" y="-10"/>
      <point x="723" y="-10" type="curve" smooth="yes"/>
      <point x="816" y="-10"/>
      <point x="885" y="28"/>
      <point x="931" y="104" type="curve"/>
      <point x="898" y="126" type="line"/>
      <point x="862" y="62"/>
      <point x="802" y="28"/>
      <point x="723" y="28" type="curve" smooth="yes"/>
      <point x="616" y="28"/>
      <point x="528" y="128"/>
      <point x="528" y="248" type="curve"/>
      <point x="946" y="248" type="line"/>
      <point x="946" y="422"/>
      <point x="863" y="527"/>
      <point x="720" y="527" type="curve" smooth="yes"/>
      <point x="626" y="527"/>
      <point x="550" y="475"/>
      <point x="514" y="392" type="curve" smooth="yes"/>
      <point x="510" y="383"/>
      <point x="506" y="383"/>
      <point x="501" y="392" type="curve" smooth="yes"/>
      <point x="464" y="476"/>
      <point x="389" y="527"/>
      <point x="293" y="527" type="curve" smooth="yes"/>
      <point x="150" y="527"/>
      <point x="55" y="417"/>
      <point x="55" y="255" type="curve" smooth="yes"/>
      <point x="55" y="96"/>
      <point x="148" y="-10"/>
    </contour>
    <contour>
      <point x="294" y="28" type="curve" smooth="yes"/>
      <point x="175" y="28"/>
      <point x="96" y="120"/>
      <point x="96" y="257" type="curve" smooth="yes"/>
      <point x="96" y="395"/>
      <point x="175" y="488"/>
      <point x="293" y="488" type="curve" smooth="yes"/>
      <point x="409" y="488"/>
      <point x="488" y="395"/>
      <point x="488" y="257" type="curve" smooth="yes"/>
      <point x="488" y="119"/>
      <point x="412" y="28"/>
    </contour>
    <contour>
      <point x="722" y="488" type="curve" smooth="yes"/>
      <point x="831" y="488"/>
      <point x="906" y="398"/>
      <point x="906" y="283" type="curve"/>
      <point x="530" y="284" type="line"/>
      <point x="529" y="402"/>
      <point x="610" y="488"/>
    </contour>
  </outline>
</glyph>
<glyph name="Tbar" format="1">
  <advance width="543"/>
  <unicode hex="0166"/>
  <outline>
    <contour>
      <point x="464" y="392" type="line"/>
      <point x="107" y="392" type="line"/>
      <point x="107" y="351" type="line"/>
      <point x="464" y="351" type="line"/>
    </contour>
    <component base="T"/>
  </outline>
</glyph>
<glyph name="tbar" format="1">
  <advance width="330"/>
  <unicode hex="0167"/>
  <outline>
    <contour>
      <point x="268" y="307" type="line"/>
      <point x="45" y="307" type="line"/>
      <point x="45" y="273" type="line"/>
      <point x="268" y="273" type="line"/>
    </contour>
    <component base="t" xOffset="-4"/>
  </outline>
</glyph>
<glyph name="Schwa" format="1">
  <advance width="726"/>
  <unicode hex="018F"/>
  <outline>
    <contour>
      <point x="606" y="376" type="curve" smooth="yes"/>
      <point x="606" y="371"/>
      <point x="605" y="371"/>
      <point x="600" y="371" type="curve" smooth="yes"/>
      <point x="78" y="371" type="line" smooth="yes"/>
      <point x="70" y="371"/>
      <point x="70" y="366"/>
      <point x="70" y="360" type="curve" smooth="yes"/>
      <point x="70" y="170"/>
      <point x="135" y="-10"/>
      <point x="364" y="-10" type="curve" smooth="yes"/>
      <point x="587" y="-10"/>
      <point x="656" y="176"/>
      <point x="656" y="357" type="curve" smooth="yes"/>
      <point x="656" y="518"/>
      <point x="608" y="733"/>
      <point x="364" y="733" type="curve" smooth="yes"/>
      <point x="142" y="733"/>
      <point x="99" y="546"/>
      <point x="84" y="509" type="curve" smooth="yes"/>
      <point x="82" y="504"/>
      <point x="81" y="501"/>
      <point x="85" y="500" type="curve" smooth="yes"/>
      <point x="122" y="488" type="line" smooth="yes"/>
      <point x="126" y="487"/>
      <point x="128" y="486"/>
      <point x="129" y="488" type="curve" smooth="yes"/>
      <point x="143" y="518"/>
      <point x="160" y="691"/>
      <point x="364" y="691" type="curve" smooth="yes"/>
      <point x="576" y="691"/>
      <point x="606" y="491"/>
    </contour>
    <contour>
      <point x="606" y="330" type="line"/>
      <point x="603" y="186"/>
      <point x="555" y="32"/>
      <point x="364" y="32" type="curve" smooth="yes"/>
      <point x="172" y="32"/>
      <point x="121" y="187"/>
      <point x="121" y="324" type="curve" smooth="yes"/>
      <point x="121" y="328"/>
      <point x="123" y="330"/>
      <point x="129" y="330" type="curve" smooth="yes"/>
    </contour>
  </outline>
</glyph>
<glyph name="florin" format="1">
  <advance width="393"/>
  <unicode hex="0192"/>
  <outline>
    <contour>
      <point x="318" y="517" type="line"/>
      <point x="175" y="517" type="line"/>
      <point x="191" y="607" type="line" smooth="yes"/>
      <point x="200" y="657"/>
      <point x="231" y="689"/>
      <point x="273" y="689" type="curve" smooth="yes"/>
      <point x="353" y="689" type="line"/>
      <point x="358" y="723" type="line"/>
      <point x="283" y="723" type="line" smooth="yes"/>
      <point x="210" y="723"/>
      <point x="165" y="683"/>
      <point x="151" y="603" type="curve" smooth="yes"/>
      <point x="136" y="517" type="line"/>
      <point x="53" y="517" type="line"/>
      <point x="47" y="483" type="line"/>
      <point x="130" y="483" type="line"/>
      <point x="38" y="-45" type="line" smooth="yes"/>
      <point x="27" y="-107"/>
      <point x="3" y="-131"/>
      <point x="-49" y="-132" type="curve" smooth="yes"/>
      <point x="-105" y="-133" type="line"/>
      <point x="-110" y="-166" type="line"/>
      <point x="-55" y="-166" type="line" smooth="yes"/>
      <point x="23" y="-166"/>
      <point x="64" y="-120"/>
      <point x="78" y="-40" type="curve" smooth="yes"/>
      <point x="169" y="483" type="line"/>
      <point x="312" y="483" type="line"/>
    </contour>
  </outline>
</glyph>
<glyph name="Aringacute" format="1">
  <advance width="619"/>
  <unicode hex="01FA"/>
  <outline>
    <contour>
      <point x="35" y="0" type="line"/>
      <point x="75" y="0" type="line"/>
      <point x="154" y="232" type="line"/>
      <point x="458" y="232" type="line"/>
      <point x="537" y="0" type="line"/>
      <point x="583" y="0" type="line"/>
      <point x="340" y="723" type="line"/>
      <point x="283" y="723" type="line"/>
    </contour>
    <contour>
      <point x="167" y="271" type="line"/>
      <point x="307" y="683" type="line"/>
      <point x="446" y="271" type="line"/>
    </contour>
    <contour>
      <point x="309" y="684" type="curve" smooth="yes"/>
      <point x="364" y="684"/>
      <point x="407" y="726"/>
      <point x="407" y="782" type="curve" smooth="yes"/>
      <point x="407" y="836"/>
      <point x="364" y="878"/>
      <point x="309" y="878" type="curve" smooth="yes"/>
      <point x="255" y="878"/>
      <point x="212" y="836"/>
      <point x="212" y="784" type="curve" smooth="yes"/>
      <point x="212" y="727"/>
      <point x="254" y="684"/>
    </contour>
    <contour>
      <point x="308" y="723" type="curve" smooth="yes"/>
      <point x="278" y="723"/>
      <point x="251" y="751"/>
      <point x="251" y="781" type="curve" smooth="yes"/>
      <point x="251" y="815"/>
      <point x="278" y="839"/>
      <point x="308" y="839" type="curve" smooth="yes"/>
      <point x="340" y="839"/>
      <point x="365" y="815"/>
      <point x="365" y="781" type="curve" smooth="yes"/>
      <point x="365" y="751"/>
      <point x="340" y="723"/>
    </contour>
    <contour>
      <point x="294" y="853" type="line"/>
      <point x="331" y="853" type="line"/>
      <point x="368" y="940" type="line"/>
      <point x="315" y="940" type="line"/>
    </contour>
  </outline>
</glyph>
<glyph name="oinvertedbreve" format="1">
  <advance width="555"/>
  <unicode hex="020F"/>
  <outline>
    <component base="o"/>
    <component base="breveinvertedcomb" xOffset="150"/>
    <contour>
      <point x="282" y="517" type="move" name="top"/>
    </contour>
  </outline>
</glyph>
<glyph name="jdotless" format="1">
  <advance width="428"/>
  <unicode hex="0237"/>
  <outline>
    <contour>
      <point x="258" y="-100" type="curve" smooth="yes"/>
      <point x="258" y="1034" type="line"/>
      <point x="180" y="1034" type="line"/>
      <point x="180" y="-90" type="line" smooth="yes"/>
      <point x="180" y="-214"/>
      <point x="138" y="-258"/>
      <point x="36" y="-260" type="curve" smooth="yes"/>
      <point x="-90" y="-262" type="line"/>
      <point x="-90" y="-314" type="line" smooth="yes"/>
      <point x="-90" y="-330"/>
      <point x="-78" y="-332"/>
      <point x="38" y="-332" type="curve" smooth="yes"/>
      <point x="214" y="-332"/>
      <point x="258" y="-260"/>
    </contour>
    <contour>
      <point x="218" y="1034" type="move" name="top"/>
    </contour>
  </outline>
</glyph>
<glyph name="commaturnedmod" format="1">
  <advance width="168"/>
  <unicode hex="02BB"/>
  <outline>
    <contour>
      <point x="133" y="681" type="line"/>
      <point x="133" y="708" type="line"/>
      <point x="99" y="716"/>
      <point x="50" y="669"/>
      <point x="50" y="603" type="curve"/>
      <point x="50" y="534" type="line"/>
      <point x="133" y="534" type="line"/>
      <point x="133" y="612" type="line"/>
      <point x="86" y="612" type="line"/>
      <point x="86" y="616" type="line"/>
      <point x="86" y="646"/>
      <point x="105" y="681"/>
      <point x="128" y="681" type="curve"/>
    </contour>
  </outline>
</glyph>
<glyph name="gravecomb" format="1">
  <advance width="526"/>
  <unicode hex="0300"/>
  <outline>
    <contour>
      <point x="42" y="1462" type="line"/>
      <point x="14" y="1372" type="line"/>
      <point x="492" y="1216" type="line"/>
      <point x="512" y="1278" type="line"/>
    </contour>
    <contour>
      <point x="298" y="1034" type="move" name="_top"/>
    </contour>
  </outline>
</glyph>
<glyph name="acutecomb" format="1">
  <advance width="526"/>
  <unicode hex="0301"/>
  <outline>
    <contour>
      <point x="484" y="1462" type="line"/>
      <point x="14" y="1278" type="line"/>
      <point x="34" y="1216" type="line"/>
      <point x="512" y="1372" type="line"/>
    </contour>
    <contour>
      <point x="264" y="1034" type="move" name="_top"/>
    </contour>
  </outline>
</glyph>
<glyph name="circumflexcomb" format="1">
  <advance width="540"/>
  <unicode hex="0302"/>
  <outline>
    <contour>
      <point x="418" y="1256" type="line"/>
      <point x="538" y="1256" type="line"/>
      <point x="304" y="1446" type="line"/>
      <point x="240" y="1446" type="line"/>
      <point x="2" y="1256" type="line"/>
      <point x="114" y="1256" type="line"/>
      <point x="270" y="1376" type="line"/>
    </contour>
    <contour>
      <point x="270" y="1034" type="move" name="_top"/>
    </contour>
  </outline>
</glyph>
<glyph name="tildecomb" format="1">
  <advance width="273"/>
  <unicode hex="0303"/>
  <outline>
    <contour>
      <point x="265" y="679" type="curve"/>
      <point x="251" y="709" type="line"/>
      <point x="232" y="696"/>
      <point x="219" y="688"/>
      <point x="194" y="688" type="curve" smooth="yes"/>
      <point x="151" y="688"/>
      <point x="121" y="713"/>
      <point x="78" y="713" type="curve" smooth="yes"/>
      <point x="47" y="713"/>
      <point x="28" y="700"/>
      <point x="8" y="684" type="curve"/>
      <point x="20" y="656" type="line"/>
      <point x="35" y="665"/>
      <point x="50" y="680"/>
      <point x="82" y="680" type="curve" smooth="yes"/>
      <point x="122" y="680"/>
      <point x="142" y="656"/>
      <point x="193" y="656" type="curve" smooth="yes"/>
      <point x="232" y="656"/>
      <point x="251" y="670"/>
    </contour>
    <contour>
      <point x="136" y="517" type="move" name="_top"/>
    </contour>
  </outline>
</glyph>
<glyph name="macroncomb" format="1">
  <advance width="526"/>
  <unicode hex="0304"/>
  <outline>
    <contour>
      <point x="508" y="1408" type="line"/>
      <point x="18" y="1408" type="line"/>
      <point x="18" y="1334" type="line"/>
      <point x="508" y="1334" type="line"/>
    </contour>
    <contour>
      <point x="264" y="1034" type="move" name="_top"/>
    </contour>
  </outline>
</glyph>
<glyph name="brevecomb" format="1">
  <advance width="271"/>
  <unicode hex="0306"/>
  <outline>
    <contour>
      <point x="263" y="723" type="curve"/>
      <point x="214" y="723" type="line"/>
      <point x="202" y="704"/>
      <point x="179" y="674"/>
      <point x="133" y="674" type="curve" smooth="yes"/>
      <point x="81" y="674"/>
      <point x="64" y="709"/>
      <point x="55" y="723" type="curve"/>
      <point x="8" y="723" type="line"/>
      <point x="17" y="683"/>
      <point x="56" y="634"/>
      <point x="133" y="634" type="curve" smooth="yes"/>
      <point x="212" y="634"/>
      <point x="253" y="689"/>
    </contour>
    <contour>
      <point x="130" y="519" type="move" name="_top"/>
    </contour>
  </outline>
</glyph>
<glyph name="dotaccentcomb" format="1">
  <advance width="66"/>
  <unicode hex="0307"/>
  <outline>
    <contour>
      <point x="9" y="628" type="line"/>
      <point x="57" y="628" type="line"/>
      <point x="57" y="688" type="line"/>
      <point x="9" y="688" type="line"/>
    </contour>
    <contour>
      <point x="33" y="517" type="move" name="_top"/>
    </contour>
  </outline>
</glyph>
<glyph name="dieresiscomb" format="1">
  <advance width="348"/>
  <unicode hex="0308"/>
  <outline>
    <contour>
      <point x="252" y="1294" type="line"/>
      <point x="348" y="1294" type="line"/>
      <point x="348" y="1414" type="line"/>
      <point x="252" y="1414" type="line"/>
    </contour>
    <contour>
      <point x="0" y="1294" type="line"/>
      <point x="96" y="1294" type="line"/>
      <point x="96" y="1414" type="line"/>
      <point x="0" y="1414" type="line"/>
    </contour>
    <contour>
      <point x="176" y="1034" type="move" name="_top"/>
    </contour>
  </outline>
</glyph>
<glyph name="hookabovecomb" format="1">
  <advance width="600"/>
  <unicode hex="0309"/>
  <outline>
    <contour>
      <point x="246" y="730" type="line"/>
      <point x="298" y="763"/>
      <point x="350" y="757"/>
      <point x="375" y="720" type="curve" smooth="yes"/>
      <point x="405" y="676"/>
      <point x="382" y="630"/>
      <point x="331" y="598" type="curve"/>
      <point x="311" y="628" type="line"/>
      <point x="342" y="648"/>
      <point x="359" y="677"/>
      <point x="345" y="699" type="curve" smooth="yes"/>
      <point x="330" y="723"/>
      <point x="296" y="719"/>
      <point x="266" y="699" type="curve"/>
    </contour>
    <contour>
      <point x="313" y="530" type="move" name="_top"/>
    </contour>
    <contour>
      <point x="271" y="584" type="move" name="_topviet"/>
    </contour>
  </outline>
</glyph>
<glyph name="ringcomb" format="1">
  <advance width="424"/>
  <unicode hex="030A"/>
  <outline>
    <contour>
      <point x="408" y="1366" type="curve" smooth="yes"/>
      <point x="408" y="1474"/>
      <point x="322" y="1558"/>
      <point x="212" y="1558" type="curve" smooth="yes"/>
      <point x="106" y="1558"/>
      <point x="18" y="1474"/>
      <point x="18" y="1370" type="curve" smooth="yes"/>
      <point x="18" y="1258"/>
      <point x="104" y="1172"/>
      <point x="212" y="1172" type="curve" smooth="yes"/>
      <point x="322" y="1172"/>
      <point x="408" y="1256"/>
    </contour>
    <contour>
      <point x="324" y="1366" type="curve" smooth="yes"/>
      <point x="324" y="1304"/>
      <point x="274" y="1250"/>
      <point x="210" y="1250" type="curve" smooth="yes"/>
      <point x="150" y="1250"/>
      <point x="96" y="1304"/>
      <point x="96" y="1366" type="curve" smooth="yes"/>
      <point x="96" y="1434"/>
      <point x="150" y="1480"/>
      <point x="210" y="1480" type="curve" smooth="yes"/>
      <point x="274" y="1480"/>
      <point x="324" y="1434"/>
    </contour>
    <contour>
      <point x="212" y="1034" type="move" name="_top"/>
    </contour>
  </outline>
</glyph>
<glyph name="hungarumlautcomb" format="1">
  <advance width="342"/>
  <unicode hex="030B"/>
  <outline>
    <contour>
      <point x="149" y="733" type="line"/>
      <point x="26" y="595" type="line"/>
      <point x="44" y="569" type="line"/>
      <point x="179" y="696" type="line"/>
    </contour>
    <contour>
      <point x="286" y="733" type="line"/>
      <point x="164" y="595" type="line"/>
      <point x="181" y="568" type="line"/>
      <point x="317" y="696" type="line"/>
    </contour>
    <contour>
      <point x="124" y="517" type="move" name="_top"/>
    </contour>
  </outline>
</glyph>
<glyph name="caroncomb" format="1">
  <advance width="542"/>
  <unicode hex="030C"/>
  <outline>
    <contour>
      <point x="418" y="1446" type="line"/>
      <point x="270" y="1326" type="line"/>
      <point x="114" y="1446" type="line"/>
      <point x="0" y="1446" type="line"/>
      <point x="240" y="1256" type="line"/>
      <point x="304" y="1256" type="line"/>
      <point x="538" y="1446" type="line"/>
    </contour>
    <contour>
      <point x="270" y="1034" type="move" name="_top"/>
    </contour>
  </outline>
</glyph>
<glyph name="dblgravecomb" format="1">
  <advance width="684"/>
  <unicode hex="030F"/>
  <outline>
    <contour>
      <point x="112" y="1466" type="line"/>
      <point x="52" y="1392" type="line"/>
      <point x="324" y="1138" type="line"/>
      <point x="358" y="1190" type="line"/>
    </contour>
    <contour>
      <point x="386" y="1466" type="line"/>
      <point x="326" y="1392" type="line"/>
      <point x="596" y="1138" type="line"/>
      <point x="632" y="1190" type="line"/>
    </contour>
    <contour>
      <point x="436" y="1034" type="move" name="_top"/>
    </contour>
  </outline>
</glyph>
<glyph name="breveinvertedcomb" format="1">
  <advance width="520"/>
  <unicode hex="0311"/>
  <outline>
    <component base="brevecomb" yScale="-1" xOffset="-12" yOffset="2800"/>
    <contour>
      <point x="260" y="1034" type="move" name="_top"/>
    </contour>
  </outline>
</glyph>
<glyph name="horncomb" format="1">
  <advance width="128"/>
  <unicode hex="031B"/>
  <outline>
    <contour>
      <point x="128" y="619" type="curve"/>
      <point x="77" y="619" type="line"/>
      <point x="75" y="546"/>
      <point x="56" y="530"/>
      <point x="0" y="531" type="curve"/>
      <point x="0" y="490" type="line"/>
      <point x="86" y="481"/>
      <point x="128" y="524"/>
    </contour>
    <contour>
      <point x="0" y="490" type="move" name="_horn"/>
    </contour>
    <contour>
      <point x="63" y="530" type="move" name="_topright"/>
    </contour>
    <contour>
      <point x="63" y="530" type="move" name="topright"/>
    </contour>
  </outline>
</glyph>
<glyph name="dotbelowcomb" format="1">
  <advance width="66"/>
  <unicode hex="0323"/>
  <outline>
    <component base="dotaccentcomb" yOffset="-784"/>
    <contour>
      <point x="34" y="0" type="move" name="_bottom"/>
    </contour>
  </outline>
</glyph>
<glyph name="commaaccentcomb" format="1">
  <advance width="80"/>
  <unicode hex="0326"/>
  <outline>
    <component base="comma" xOffset="-57" yOffset="-160"/>
    <contour>
      <point x="40" y="0" type="move" name="_bottom"/>
    </contour>
  </outline>
</glyph>
<glyph name="cedillacomb" format="1">
  <advance width="189"/>
  <unicode hex="0327"/>
  <outline>
    <contour>
      <point x="180" y="-126" type="curve" smooth="yes"/>
      <point x="180" y="-95"/>
      <point x="163" y="-62"/>
      <point x="102" y="-57" type="curve"/>
      <point x="127" y="5" type="line"/>
      <point x="94" y="5" type="line"/>
      <point x="58" y="-77" type="line" smooth="yes"/>
      <point x="57" y="-79"/>
      <point x="57" y="-81"/>
      <point x="62" y="-81" type="curve" smooth="yes"/>
      <point x="113" y="-83"/>
      <point x="137" y="-97"/>
      <point x="137" y="-128" type="curve" smooth="yes"/>
      <point x="137" y="-155"/>
      <point x="120" y="-170"/>
      <point x="79" y="-170" type="curve" smooth="yes"/>
      <point x="49" y="-170"/>
      <point x="33" y="-161"/>
      <point x="19" y="-148" type="curve"/>
      <point x="8" y="-176" type="line"/>
      <point x="29" y="-191"/>
      <point x="53" y="-199"/>
      <point x="83" y="-199" type="curve" smooth="yes"/>
      <point x="136" y="-199"/>
      <point x="180" y="-175"/>
    </contour>
    <contour>
      <point x="109" y="0" type="move" name="_bottom"/>
    </contour>
  </outline>
</glyph>
<glyph name="ogonekcomb" format="1">
  <advance width="188"/>
  <unicode hex="0328"/>
  <outline>
    <contour>
      <point x="9" y="-88" type="curve" smooth="yes"/>
      <point x="9" y="-132"/>
      <point x="36" y="-164"/>
      <point x="98" y="-164" type="curve" smooth="yes"/>
      <point x="130" y="-164"/>
      <point x="160" y="-156"/>
      <point x="174" y="-149" type="curve" smooth="yes"/>
      <point x="178" y="-147"/>
      <point x="179" y="-146"/>
      <point x="179" y="-141" type="curve" smooth="yes"/>
      <point x="179" y="-122" type="line" smooth="yes"/>
      <point x="179" y="-117"/>
      <point x="177" y="-116"/>
      <point x="172" y="-119" type="curve" smooth="yes"/>
      <point x="164" y="-123"/>
      <point x="138" y="-131"/>
      <point x="108" y="-131" type="curve" smooth="yes"/>
      <point x="68" y="-131"/>
      <point x="52" y="-117"/>
      <point x="52" y="-90" type="curve" smooth="yes"/>
      <point x="52" y="-52"/>
      <point x="85" y="-28"/>
      <point x="150" y="2" type="curve"/>
      <point x="117" y="11" type="line"/>
      <point x="35" y="-13"/>
      <point x="9" y="-45"/>
    </contour>
    <contour>
      <point x="145" y="12" type="move" name="_ogonek"/>
    </contour>
  </outline>
</glyph>
<glyph name="Delta" format="1">
  <advance width="619"/>
  <unicode hex="0394"/>
  <outline>
    <contour>
      <point x="38" y="0" type="line"/>
      <point x="581" y="0" type="line"/>
      <point x="581" y="51" type="line"/>
      <point x="334" y="723" type="line"/>
      <point x="287" y="724" type="line"/>
      <point x="38" y="48" type="line"/>
    </contour>
    <contour>
      <point x="80" y="41" type="line"/>
      <point x="310" y="672" type="line"/>
      <point x="540" y="41" type="line"/>
    </contour>
  </outline>
</glyph>
<glyph name="Omega" format="1">
  <advance width="746"/>
  <unicode hex="03A9"/>
  <outline>
    <contour>
      <point x="372" y="691" type="curve"/>
      <point x="549" y="691"/>
      <point x="629" y="539"/>
      <point x="629" y="393" type="curve" smooth="yes"/>
      <point x="629" y="199"/>
      <point x="485" y="96"/>
      <point x="412" y="44" type="curve"/>
      <point x="412" y="0" type="line"/>
      <point x="641" y="0" type="line"/>
      <point x="641" y="41" type="line"/>
      <point x="487" y="41" type="line" smooth="yes"/>
      <point x="479" y="41"/>
      <point x="475" y="45"/>
      <point x="483" y="52" type="curve" smooth="yes"/>
      <point x="501" y="68"/>
      <point x="677" y="176"/>
      <point x="677" y="399" type="curve" smooth="yes"/>
      <point x="677" y="572"/>
      <point x="569" y="733"/>
      <point x="372" y="733" type="curve"/>
      <point x="175" y="733"/>
      <point x="68" y="573"/>
      <point x="68" y="398" type="curve" smooth="yes"/>
      <point x="68" y="167"/>
      <point x="252" y="59"/>
      <point x="275" y="41" type="curve"/>
      <point x="104" y="41" type="line"/>
      <point x="104" y="0" type="line"/>
      <point x="332" y="0" type="line"/>
      <point x="332" y="29" type="line" smooth="yes"/>
      <point x="332" y="43"/>
      <point x="328" y="48"/>
      <point x="322" y="52" type="curve" smooth="yes"/>
      <point x="253" y="101"/>
      <point x="116" y="202"/>
      <point x="116" y="393" type="curve" smooth="yes"/>
      <point x="116" y="539"/>
      <point x="196" y="691"/>
    </contour>
  </outline>
</glyph>
<glyph name="mu" format="1">
  <advance width="577"/>
  <unicode hex="03BC"/>
  <outline>
    <contour>
      <point x="255" y="27" type="curve" smooth="yes"/>
      <point x="188" y="27"/>
      <point x="134" y="77"/>
      <point x="134" y="134" type="curve" smooth="yes"/>
      <point x="134" y="517" type="line"/>
      <point x="95" y="517" type="line"/>
      <point x="95" y="-161" type="line"/>
      <point x="134" y="-161" type="line"/>
      <point x="134" y="36" type="line"/>
      <point x="168" y="2"/>
      <point x="208" y="-10"/>
      <point x="257" y="-10" type="curve" smooth="yes"/>
      <point x="318" y="-10"/>
      <point x="365" y="15"/>
      <point x="446" y="80" type="curve"/>
      <point x="446" y="0" type="line"/>
      <point x="482" y="0" type="line"/>
      <point x="482" y="517" type="line"/>
      <point x="443" y="517" type="line"/>
      <point x="443" y="130" type="line"/>
      <point x="379" y="66"/>
      <point x="318" y="27"/>
    </contour>
  </outline>
</glyph>
<glyph name="pi" format="1">
  <advance width="643"/>
  <unicode hex="03C0"/>
  <outline>
    <contour>
      <point x="613" y="483" type="line"/>
      <point x="613" y="517" type="line"/>
      <point x="30" y="517" type="line"/>
      <point x="30" y="483" type="line"/>
      <point x="131" y="483" type="line" smooth="yes"/>
      <point x="136" y="483"/>
      <point x="139" y="479"/>
      <point x="139" y="473" type="curve" smooth="yes"/>
      <point x="139" y="283"/>
      <point x="112" y="110"/>
      <point x="83" y="0" type="curve"/>
      <point x="116" y="0" type="line"/>
      <point x="148" y="95"/>
      <point x="175" y="284"/>
      <point x="175" y="483" type="curve"/>
      <point x="442" y="483" type="line"/>
      <point x="443" y="0" type="line"/>
      <point x="482" y="0" type="line"/>
      <point x="482" y="483" type="line"/>
    </contour>
  </outline>
</glyph>
<glyph name="endash" format="1">
  <advance width="525"/>
  <unicode hex="2013"/>
  <outline>
    <contour>
      <point x="458" y="273" type="line"/>
      <point x="67" y="272" type="line"/>
      <point x="67" y="233" type="line"/>
      <point x="458" y="234" type="line"/>
    </contour>
  </outline>
</glyph>
<glyph name="emdash" format="1">
  <advance width="834"/>
  <unicode hex="2014"/>
  <outline>
    <contour>
      <point x="769" y="273" type="line"/>
      <point x="65" y="272" type="line"/>
      <point x="65" y="233" type="line"/>
      <point x="769" y="234" type="line"/>
    </contour>
  </outline>
</glyph>
<glyph name="quoteright" format="1">
  <advance width="186"/>
  <unicode hex="2019"/>
  <outline>
    <contour>
      <point x="50" y="532" type="line"/>
      <point x="82" y="532" type="line"/>
      <point x="151" y="655" type="line"/>
      <point x="151" y="723" type="line"/>
      <point x="68" y="723" type="line"/>
      <point x="68" y="644" type="line"/>
      <point x="103" y="644" type="line"/>
    </contour>
  </outline>
</glyph>
<glyph name="quotesinglbase" format="1">
  <advance width="206"/>
  <unicode hex="201A"/>
  <outline>
    <contour>
      <point x="40" y="-111" type="line"/>
      <point x="72" y="-111" type="line"/>
      <point x="141" y="12" type="line"/>
      <point x="141" y="80" type="line"/>
      <point x="58" y="80" type="line"/>
      <point x="58" y="0" type="line"/>
      <point x="93" y="0" type="line"/>
    </contour>
  </outline>
</glyph>
<glyph name="quotedblleft" format="1">
  <advance width="359"/>
  <unicode hex="201C"/>
  <outline>
    <contour>
      <point x="212" y="532" type="line"/>
      <point x="295" y="532" type="line"/>
      <point x="295" y="612" type="line"/>
      <point x="259" y="612" type="line"/>
      <point x="313" y="723" type="line"/>
      <point x="281" y="723" type="line"/>
      <point x="212" y="601" type="line"/>
    </contour>
    <contour>
      <point x="69" y="532" type="line"/>
      <point x="152" y="532" type="line"/>
      <point x="152" y="612" type="line"/>
      <point x="117" y="612" type="line"/>
      <point x="171" y="723" type="line"/>
      <point x="139" y="723" type="line"/>
      <point x="69" y="601" type="line"/>
    </contour>
  </outline>
</glyph>
<glyph name="quotedblright" format="1">
  <advance width="328"/>
  <unicode hex="201D"/>
  <outline>
    <contour>
      <point x="192" y="532" type="line"/>
      <point x="224" y="532" type="line"/>
      <point x="293" y="655" type="line"/>
      <point x="293" y="723" type="line"/>
      <point x="211" y="723" type="line"/>
      <point x="211" y="644" type="line"/>
      <point x="246" y="644" type="line"/>
    </contour>
    <contour>
      <point x="50" y="532" type="line"/>
      <point x="82" y="532" type="line"/>
      <point x="151" y="655" type="line"/>
      <point x="151" y="723" type="line"/>
      <point x="68" y="723" type="line"/>
      <point x="68" y="644" type="line"/>
      <point x="103" y="644" type="line"/>
    </contour>
  </outline>
</glyph>
<glyph name="dagger" format="1">
  <advance width="394"/>
  <unicode hex="2020"/>
  <outline>
    <contour>
      <point x="394" y="454" type="line"/>
      <point x="217" y="449" type="line"/>
      <point x="224" y="723" type="line"/>
      <point x="172" y="723" type="line"/>
      <point x="178" y="449" type="line"/>
      <point x="0" y="454" type="line"/>
      <point x="0" y="408" type="line"/>
      <point x="181" y="414" type="line"/>
      <point x="172" y="-161" type="line"/>
      <point x="224" y="-161" type="line"/>
      <point x="214" y="414" type="line"/>
      <point x="394" y="408" type="line"/>
    </contour>
  </outline>
</glyph>
<glyph name="daggerdbl" format="1">
  <advance width="394"/>
  <unicode hex="2021"/>
  <outline>
    <contour>
      <point x="214" y="414" type="line"/>
      <point x="394" y="408" type="line"/>
      <point x="394" y="454" type="line"/>
      <point x="217" y="449" type="line"/>
      <point x="224" y="723" type="line"/>
      <point x="172" y="723" type="line"/>
      <point x="178" y="449" type="line"/>
      <point x="0" y="454" type="line"/>
      <point x="0" y="408" type="line"/>
      <point x="181" y="414" type="line"/>
      <point x="181" y="148" type="line"/>
      <point x="0" y="155" type="line"/>
      <point x="0" y="108" type="line"/>
      <point x="178" y="113" type="line"/>
      <point x="172" y="-161" type="line"/>
      <point x="224" y="-161" type="line"/>
      <point x="217" y="113" type="line"/>
      <point x="394" y="108" type="line"/>
      <point x="394" y="155" type="line"/>
      <point x="214" y="148" type="line"/>
    </contour>
  </outline>
</glyph>
<glyph name="bullet" format="1">
  <advance width="280"/>
  <unicode hex="2022"/>
  <outline>
    <contour>
      <point x="140" y="297" type="curve" smooth="yes"/>
      <point x="179" y="297"/>
      <point x="210" y="329"/>
      <point x="210" y="368" type="curve" smooth="yes"/>
      <point x="210" y="407"/>
      <point x="179" y="438"/>
      <point x="140" y="438" type="curve" smooth="yes"/>
      <point x="101" y="438"/>
      <point x="70" y="407"/>
      <point x="70" y="368" type="curve" smooth="yes"/>
      <point x="70" y="329"/>
      <point x="101" y="297"/>
    </contour>
  </outline>
</glyph>
<glyph name="perthousand" format="1">
  <advance width="1256"/>
  <unicode hex="2030"/>
  <outline>
    <contour>
      <point x="220" y="734" type="curve" smooth="yes"/>
      <point x="127" y="734"/>
      <point x="60" y="663"/>
      <point x="60" y="527" type="curve" smooth="yes"/>
      <point x="60" y="390"/>
      <point x="127" y="319"/>
      <point x="220" y="319" type="curve" smooth="yes"/>
      <point x="313" y="319"/>
      <point x="378" y="390"/>
      <point x="378" y="527" type="curve" smooth="yes"/>
      <point x="378" y="663"/>
      <point x="313" y="734"/>
    </contour>
    <contour>
      <point x="219" y="348" type="curve" smooth="yes"/>
      <point x="143" y="348"/>
      <point x="94" y="424"/>
      <point x="94" y="527" type="curve" smooth="yes"/>
      <point x="94" y="629"/>
      <point x="143" y="705"/>
      <point x="219" y="705" type="curve" smooth="yes"/>
      <point x="295" y="705"/>
      <point x="344" y="630"/>
      <point x="344" y="527" type="curve" smooth="yes"/>
      <point x="344" y="423"/>
      <point x="295" y="348"/>
    </contour>
    <contour>
      <point x="651" y="406" type="curve" smooth="yes"/>
      <point x="558" y="406"/>
      <point x="491" y="334"/>
      <point x="491" y="199" type="curve" smooth="yes"/>
      <point x="491" y="61"/>
      <point x="558" y="-10"/>
      <point x="651" y="-10" type="curve" smooth="yes"/>
      <point x="744" y="-10"/>
      <point x="809" y="61"/>
      <point x="809" y="199" type="curve" smooth="yes"/>
      <point x="809" y="334"/>
      <point x="744" y="406"/>
    </contour>
    <contour>
      <point x="650" y="20" type="curve" smooth="yes"/>
      <point x="577" y="20"/>
      <point x="525" y="98"/>
      <point x="525" y="198" type="curve" smooth="yes"/>
      <point x="525" y="297"/>
      <point x="577" y="376"/>
      <point x="650" y="376" type="curve" smooth="yes"/>
      <point x="723" y="376"/>
      <point x="775" y="298"/>
      <point x="775" y="198" type="curve" smooth="yes"/>
      <point x="775" y="98"/>
      <point x="723" y="20"/>
    </contour>
    <contour>
      <point x="1038" y="406" type="curve" smooth="yes"/>
      <point x="945" y="406"/>
      <point x="878" y="334"/>
      <point x="878" y="199" type="curve" smooth="yes"/>
      <point x="878" y="61"/>
      <point x="945" y="-10"/>
      <point x="1038" y="-10" type="curve" smooth="yes"/>
      <point x="1131" y="-10"/>
      <point x="1196" y="61"/>
      <point x="1196" y="199" type="curve" smooth="yes"/>
      <point x="1196" y="334"/>
      <point x="1131" y="406"/>
    </contour>
    <contour>
      <point x="1037" y="20" type="curve" smooth="yes"/>
      <point x="964" y="20"/>
      <point x="912" y="98"/>
      <point x="912" y="198" type="curve" smooth="yes"/>
      <point x="912" y="297"/>
      <point x="964" y="376"/>
      <point x="1037" y="376" type="curve" smooth="yes"/>
      <point x="1110" y="376"/>
      <point x="1162" y="298"/>
      <point x="1162" y="198" type="curve" smooth="yes"/>
      <point x="1162" y="98"/>
      <point x="1110" y="20"/>
    </contour>
    <component base="fraction" xOffset="328"/>
  </outline>
</glyph>
<glyph name="guilsinglleft" format="1">
  <advance width="245"/>
  <unicode hex="2039"/>
  <outline>
    <contour>
      <point x="82" y="251" type="line"/>
      <point x="202" y="434" type="line"/>
      <point x="174" y="434" type="line"/>
      <point x="30" y="251" type="line"/>
      <point x="173" y="76" type="line"/>
      <point x="200" y="76" type="line"/>
    </contour>
  </outline>
</glyph>
<glyph name="guilsinglright" format="1">
  <advance width="246"/>
  <unicode hex="203A"/>
  <outline>
    <contour>
      <point x="165" y="251" type="line"/>
      <point x="47" y="76" type="line"/>
      <point x="73" y="76" type="line"/>
      <point x="216" y="251" type="line"/>
      <point x="72" y="434" type="line"/>
      <point x="45" y="434" type="line"/>
    </contour>
  </outline>
</glyph>
<glyph name="fraction" format="1">
  <advance width="245"/>
  <unicode hex="2044"/>
  <outline>
    <contour>
      <point x="385" y="731" type="line"/>
      <point x="348" y="731" type="line"/>
      <point x="-140" y="-4" type="line"/>
      <point x="-101" y="-4" type="line"/>
    </contour>
  </outline>
</glyph>
<glyph name="colonsign" format="1">
  <advance width="567"/>
  <unicode hex="20A1"/>
  <outline>
    <contour>
      <point x="279" y="594" type="line"/>
      <point x="314" y="723" type="line"/>
      <point x="272" y="723" type="line"/>
      <point x="240" y="604" type="line"/>
    </contour>
    <contour>
      <point x="373" y="594" type="line"/>
      <point x="408" y="723" type="line"/>
      <point x="367" y="723" type="line"/>
      <point x="334" y="604" type="line"/>
    </contour>
    <contour>
      <point x="290" y="0" type="line"/>
      <point x="323" y="120" type="line"/>
      <point x="284" y="130" type="line"/>
      <point x="249" y="0" type="line"/>
    </contour>
    <contour>
      <point x="196" y="0" type="line"/>
      <point x="228" y="120" type="line"/>
      <point x="189" y="130" type="line"/>
      <point x="154" y="0" type="line"/>
    </contour>
    <component base="c" yOffset="103"/>
  </outline>
</glyph>
<glyph name="franc" format="1">
  <advance width="590"/>
  <unicode hex="20A3"/>
  <outline>
    <contour>
      <point x="324" y="185" type="line"/>
      <point x="5" y="184" type="line"/>
      <point x="5" y="147" type="line"/>
      <point x="324" y="148" type="line"/>
    </contour>
    <contour>
      <point x="102" y="723" type="line"/>
      <point x="102" y="0" type="line"/>
      <point x="147" y="0" type="line"/>
      <point x="147" y="333" type="line"/>
      <point x="503" y="333" type="line"/>
      <point x="503" y="372" type="line"/>
      <point x="147" y="372" type="line"/>
      <point x="147" y="684" type="line"/>
      <point x="532" y="684" type="line"/>
      <point x="532" y="723" type="line"/>
    </contour>
  </outline>
</glyph>
<glyph name="lira" format="1">
  <advance width="578"/>
  <unicode hex="20A4"/>
  <outline>
    <contour>
      <point x="523" y="107" type="curve"/>
      <point x="487" y="122" type="line"/>
      <point x="463" y="60"/>
      <point x="415" y="39"/>
      <point x="343" y="39" type="curve"/>
      <point x="130" y="39" type="line"/>
      <point x="177" y="93"/>
      <point x="192" y="186"/>
      <point x="185" y="257" type="curve"/>
      <point x="343" y="257" type="line"/>
      <point x="343" y="294" type="line"/>
      <point x="179" y="293" type="line"/>
      <point x="160" y="403" type="line"/>
      <point x="343" y="404" type="line"/>
      <point x="343" y="441" type="line"/>
      <point x="163" y="440" type="line" smooth="yes"/>
      <point x="158" y="440"/>
      <point x="154" y="443"/>
      <point x="153" y="448" type="curve" smooth="yes"/>
      <point x="145" y="494"/>
      <point x="139" y="533"/>
      <point x="139" y="553" type="curve" smooth="yes"/>
      <point x="139" y="641"/>
      <point x="209" y="691"/>
      <point x="294" y="691" type="curve" smooth="yes"/>
      <point x="366" y="691"/>
      <point x="406" y="665"/>
      <point x="430" y="620" type="curve"/>
      <point x="467" y="639" type="line"/>
      <point x="448" y="685"/>
      <point x="374" y="733"/>
      <point x="292" y="733" type="curve" smooth="yes"/>
      <point x="168" y="733"/>
      <point x="74" y="666"/>
      <point x="108" y="461" type="curve" smooth="yes"/>
      <point x="112" y="440" type="line"/>
      <point x="27" y="440" type="line"/>
      <point x="27" y="403" type="line"/>
      <point x="119" y="403" type="line"/>
      <point x="138" y="293" type="line"/>
      <point x="27" y="293" type="line"/>
      <point x="27" y="256" type="line"/>
      <point x="136" y="256" type="line" smooth="yes"/>
      <point x="141" y="256"/>
      <point x="143" y="255"/>
      <point x="144" y="251" type="curve" smooth="yes"/>
      <point x="145" y="233"/>
      <point x="146" y="220"/>
      <point x="146" y="209" type="curve" smooth="yes"/>
      <point x="146" y="91"/>
      <point x="102" y="37"/>
      <point x="51" y="38" type="curve" smooth="yes"/>
      <point x="10" y="38" type="line"/>
      <point x="10" y="0" type="line"/>
      <point x="343" y="0" type="line" smooth="yes"/>
      <point x="430" y="0"/>
      <point x="493" y="35"/>
    </contour>
  </outline>
</glyph>
<glyph name="naira" format="1">
  <advance width="1378"/>
  <unicode hex="20A6"/>
  <outline>
    <contour>
      <point x="1368" y="942" type="line"/>
      <point x="10" y="940" type="line"/>
      <point x="10" y="866" type="line"/>
      <point x="1368" y="868" type="line"/>
    </contour>
    <contour>
      <point x="1368" y="630" type="line"/>
      <point x="10" y="628" type="line"/>
      <point x="10" y="554" type="line"/>
      <point x="1368" y="556" type="line"/>
    </contour>
    <component base="N" xOffset="-2"/>
  </outline>
</glyph>
<glyph name="won" format="1">
  <advance width="964"/>
  <unicode hex="20A9"/>
  <outline>
    <contour>
      <point x="954" y="471" type="line"/>
      <point x="15" y="470" type="line"/>
      <point x="15" y="433" type="line"/>
      <point x="954" y="434" type="line"/>
    </contour>
    <contour>
      <point x="954" y="315" type="line"/>
      <point x="15" y="314" type="line"/>
      <point x="15" y="277" type="line"/>
      <point x="954" y="278" type="line"/>
    </contour>
    <component base="W" xOffset="-3"/>
  </outline>
</glyph>
<glyph name="dong" format="1">
  <advance width="481"/>
  <unicode hex="20AB"/>
  <outline>
    <contour>
      <point x="369" y="131" type="line"/>
      <point x="404" y="131" type="line"/>
      <point x="404" y="722" type="line"/>
      <point x="367" y="722" type="line"/>
      <point x="367" y="520" type="line" smooth="yes"/>
      <point x="367" y="510"/>
      <point x="366" y="507"/>
      <point x="356" y="515" type="curve" smooth="yes"/>
      <point x="331" y="536"/>
      <point x="301" y="562"/>
      <point x="238" y="562" type="curve" smooth="yes"/>
      <point x="122" y="562"/>
      <point x="45" y="470"/>
      <point x="45" y="334" type="curve" smooth="yes"/>
      <point x="45" y="194"/>
      <point x="128" y="123"/>
      <point x="229" y="123" type="curve" smooth="yes"/>
      <point x="318" y="123"/>
      <point x="355" y="178"/>
      <point x="369" y="195" type="curve"/>
    </contour>
    <contour>
      <point x="364" y="466" type="curve"/>
      <point x="364" y="266" type="line" smooth="yes"/>
      <point x="364" y="220"/>
      <point x="312" y="161"/>
      <point x="237" y="161" type="curve" smooth="yes"/>
      <point x="159" y="161"/>
      <point x="90" y="216"/>
      <point x="90" y="337" type="curve" smooth="yes"/>
      <point x="90" y="454"/>
      <point x="153" y="522"/>
      <point x="241" y="522" type="curve" smooth="yes"/>
      <point x="289" y="522"/>
      <point x="328" y="502"/>
    </contour>
    <contour>
      <point x="466" y="653" type="line"/>
      <point x="215" y="653" type="line"/>
      <point x="215" y="619" type="line"/>
      <point x="466" y="619" type="line"/>
    </contour>
    <contour>
      <point x="409" y="34" type="line"/>
      <point x="64" y="34" type="line"/>
      <point x="64" y="0" type="line"/>
      <point x="409" y="0" type="line"/>
    </contour>
  </outline>
</glyph>
<glyph name="euro" format="1">
  <advance width="547"/>
  <unicode hex="20AC"/>
  <outline>
    <contour>
      <point x="361" y="-10" type="curve" smooth="yes"/>
      <point x="417" y="-10"/>
      <point x="469" y="7"/>
      <point x="512" y="35" type="curve"/>
      <point x="488" y="69" type="line"/>
      <point x="454" y="46"/>
      <point x="412" y="32"/>
      <point x="365" y="32" type="curve" smooth="yes"/>
      <point x="196" y="32"/>
      <point x="113" y="149"/>
      <point x="113" y="359" type="curve" smooth="yes"/>
      <point x="113" y="576"/>
      <point x="198" y="691"/>
      <point x="357" y="691" type="curve" smooth="yes"/>
      <point x="404" y="691"/>
      <point x="444" y="673"/>
      <point x="479" y="646" type="curve"/>
      <point x="507" y="684" type="line"/>
      <point x="462" y="715"/>
      <point x="408" y="733"/>
      <point x="355" y="733" type="curve" smooth="yes"/>
      <point x="172" y="733"/>
      <point x="65" y="595"/>
      <point x="65" y="359" type="curve" smooth="yes"/>
      <point x="65" y="124"/>
      <point x="172" y="-10"/>
    </contour>
    <contour>
      <point x="348" y="461" type="line"/>
      <point x="-20" y="460" type="line"/>
      <point x="-20" y="423" type="line"/>
      <point x="348" y="424" type="line"/>
    </contour>
    <contour>
      <point x="348" y="305" type="line"/>
      <point x="-20" y="304" type="line"/>
      <point x="-20" y="267" type="line"/>
      <point x="348" y="268" type="line"/>
    </contour>
  </outline>
</glyph>
<glyph name="rupeeIndian" format="1">
  <advance width="526"/>
  <unicode hex="20B9"/>
  <outline>
    <contour>
      <point x="0" y="395" type="line"/>
      <point x="0" y="356" type="line"/>
      <point x="230" y="356" type="line"/>
      <point x="361" y="0" type="line"/>
      <point x="410" y="0" type="line"/>
      <point x="279" y="359" type="line" smooth="yes"/>
      <point x="278" y="362"/>
      <point x="279" y="365"/>
      <point x="283" y="366" type="curve" smooth="yes"/>
      <point x="350" y="386"/>
      <point x="431" y="432"/>
      <point x="431" y="551" type="curve" smooth="yes"/>
      <point x="431" y="665"/>
      <point x="349" y="723"/>
      <point x="209" y="723" type="curve" smooth="yes"/>
      <point x="0" y="723" type="line"/>
      <point x="0" y="684" type="line"/>
      <point x="208" y="684" type="line" smooth="yes"/>
      <point x="326" y="684"/>
      <point x="383" y="639"/>
      <point x="383" y="550" type="curve" smooth="yes"/>
      <point x="383" y="437"/>
      <point x="314" y="395"/>
      <point x="174" y="395" type="curve" smooth="yes"/>
    </contour>
    <contour>
      <point x="511" y="724" type="line"/>
      <point x="2" y="723" type="line"/>
      <point x="2" y="686" type="line"/>
      <point x="511" y="687" type="line"/>
    </contour>
    <contour>
      <point x="511" y="568" type="line"/>
      <point x="2" y="567" type="line"/>
      <point x="2" y="530" type="line"/>
      <point x="511" y="531" type="line"/>
    </contour>
  </outline>
</glyph>
<glyph name="liraTurkish" format="1">
  <advance width="479"/>
  <unicode hex="20BA"/>
  <outline>
    <contour>
      <point x="208" y="0" type="line" smooth="yes"/>
      <point x="327" y="0"/>
      <point x="425" y="71"/>
      <point x="469" y="212" type="curve"/>
      <point x="427" y="223" type="line"/>
      <point x="378" y="90"/>
      <point x="309" y="39"/>
      <point x="207" y="39" type="curve" smooth="yes"/>
      <point x="146" y="39" type="line"/>
      <point x="146" y="723" type="line"/>
      <point x="101" y="723" type="line"/>
      <point x="101" y="0" type="line"/>
    </contour>
    <contour>
      <point x="295" y="507" type="line"/>
      <point x="15" y="405" type="line"/>
      <point x="29" y="363" type="line"/>
      <point x="311" y="465" type="line"/>
    </contour>
    <contour>
      <point x="295" y="344" type="line"/>
      <point x="15" y="242" type="line"/>
      <point x="29" y="200" type="line"/>
      <point x="311" y="302" type="line"/>
    </contour>
  </outline>
</glyph>
<glyph name="literSign" format="1">
  <advance width="440"/>
  <unicode hex="2113"/>
  <outline>
    <contour>
      <point x="361" y="119" type="line"/>
      <point x="355" y="111"/>
      <point x="356" y="111"/>
      <point x="356" y="111" type="curve" smooth="yes"/>
      <point x="329" y="68"/>
      <point x="304" y="29"/>
      <point x="236" y="29" type="curve" smooth="yes"/>
      <point x="169" y="29"/>
      <point x="140" y="67"/>
      <point x="140" y="201" type="curve"/>
      <point x="140" y="218" type="line"/>
      <point x="241" y="315"/>
      <point x="370" y="441"/>
      <point x="370" y="586" type="curve" smooth="yes"/>
      <point x="370" y="672"/>
      <point x="326" y="733"/>
      <point x="249" y="733" type="curve" smooth="yes"/>
      <point x="170" y="733"/>
      <point x="101" y="667"/>
      <point x="101" y="519" type="curve" smooth="yes"/>
      <point x="101" y="240" type="line"/>
      <point x="25" y="186" type="line"/>
      <point x="46" y="153" type="line"/>
      <point x="95" y="188" type="line" smooth="yes"/>
      <point x="98" y="190"/>
      <point x="100" y="191"/>
      <point x="101" y="186" type="curve" smooth="yes"/>
      <point x="106" y="164"/>
      <point x="85" y="-10"/>
      <point x="239" y="-10" type="curve" smooth="yes"/>
    </contour>
    <contour>
      <point x="140" y="487" type="line" smooth="yes"/>
      <point x="140" y="641"/>
      <point x="179" y="692"/>
      <point x="248" y="692" type="curve" smooth="yes"/>
      <point x="302" y="692"/>
      <point x="332" y="659"/>
      <point x="332" y="597" type="curve" smooth="yes"/>
      <point x="332" y="455"/>
      <point x="211" y="330"/>
      <point x="140" y="269" type="curve"/>
    </contour>
  </outline>
</glyph>
<glyph name="published" format="1">
  <advance width="803"/>
  <unicode hex="2117"/>
  <outline>
    <contour>
      <point x="402" y="-10" type="curve" smooth="yes"/>
      <point x="606" y="-10"/>
      <point x="773" y="155"/>
      <point x="773" y="362" type="curve" smooth="yes"/>
      <point x="773" y="566"/>
      <point x="606" y="733"/>
      <point x="402" y="733" type="curve" smooth="yes"/>
      <point x="196" y="733"/>
      <point x="30" y="566"/>
      <point x="30" y="362" type="curve" smooth="yes"/>
      <point x="30" y="155"/>
      <point x="196" y="-10"/>
    </contour>
    <contour>
      <point x="402" y="33" type="curve" smooth="yes"/>
      <point x="225" y="33"/>
      <point x="74" y="162"/>
      <point x="74" y="362" type="curve" smooth="yes"/>
      <point x="74" y="559"/>
      <point x="225" y="691"/>
      <point x="402" y="691" type="curve" smooth="yes"/>
      <point x="574" y="691"/>
      <point x="729" y="559"/>
      <point x="729" y="362" type="curve" smooth="yes"/>
      <point x="729" y="162"/>
      <point x="574" y="33"/>
    </contour>
    <contour>
      <point x="555" y="454" type="curve" smooth="yes"/>
      <point x="555" y="524"/>
      <point x="497" y="554"/>
      <point x="415" y="554" type="curve" smooth="yes"/>
      <point x="279" y="554" type="line"/>
      <point x="279" y="164" type="line"/>
      <point x="318" y="164" type="line"/>
      <point x="318" y="331" type="line"/>
      <point x="418" y="331" type="line" smooth="yes"/>
      <point x="497" y="331"/>
      <point x="555" y="371"/>
    </contour>
    <contour>
      <point x="515" y="444" type="curve" smooth="yes"/>
      <point x="515" y="390"/>
      <point x="471" y="366"/>
      <point x="418" y="366" type="curve" smooth="yes"/>
      <point x="318" y="366" type="line"/>
      <point x="318" y="519" type="line"/>
      <point x="414" y="519" type="line" smooth="yes"/>
      <point x="471" y="519"/>
      <point x="515" y="503"/>
    </contour>
  </outline>
</glyph>
<glyph name="Ohm" format="1">
  <advance width="767"/>
  <unicode hex="2126"/>
  <outline>
    <contour>
      <point x="383" y="709" type="curve"/>
      <point x="564" y="709"/>
      <point x="646" y="553"/>
      <point x="646" y="403" type="curve" smooth="yes"/>
      <point x="646" y="204"/>
      <point x="499" y="98"/>
      <point x="424" y="45" type="curve"/>
      <point x="424" y="0" type="line"/>
      <point x="658" y="0" type="line"/>
      <point x="658" y="42" type="line"/>
      <point x="481" y="42" type="line"/>
      <point x="639" y="172"/>
      <point x="695" y="254"/>
      <point x="695" y="409" type="curve" smooth="yes"/>
      <point x="695" y="587"/>
      <point x="585" y="752"/>
      <point x="383" y="752" type="curve"/>
      <point x="181" y="752"/>
      <point x="71" y="588"/>
      <point x="71" y="408" type="curve" smooth="yes"/>
      <point x="71" y="171"/>
      <point x="260" y="61"/>
      <point x="283" y="42" type="curve"/>
      <point x="108" y="42" type="line"/>
      <point x="108" y="0" type="line"/>
      <point x="342" y="0" type="line"/>
      <point x="342" y="45" type="line"/>
      <point x="187" y="158"/>
      <point x="120" y="256"/>
      <point x="120" y="403" type="curve" smooth="yes"/>
      <point x="120" y="553"/>
      <point x="202" y="709"/>
    </contour>
  </outline>
</glyph>
<glyph name="partialdiff" format="1">
  <advance width="575"/>
  <unicode hex="2202"/>
  <outline>
    <contour>
      <point x="110" y="639" type="line"/>
      <point x="150" y="666"/>
      <point x="188" y="690"/>
      <point x="255" y="690" type="curve" smooth="yes"/>
      <point x="391" y="690"/>
      <point x="470" y="591"/>
      <point x="470" y="376" type="curve" smooth="yes"/>
      <point x="470" y="372"/>
      <point x="468" y="370"/>
      <point x="458" y="375" type="curve" smooth="yes"/>
      <point x="405" y="407"/>
      <point x="370" y="425"/>
      <point x="297" y="425" type="curve" smooth="yes"/>
      <point x="145" y="425"/>
      <point x="55" y="345"/>
      <point x="55" y="217" type="curve" smooth="yes"/>
      <point x="55" y="88"/>
      <point x="148" y="-10"/>
      <point x="278" y="-10" type="curve" smooth="yes"/>
      <point x="430" y="-10"/>
      <point x="520" y="125"/>
      <point x="520" y="367" type="curve" smooth="yes"/>
      <point x="520" y="611"/>
      <point x="428" y="733"/>
      <point x="273" y="733" type="curve" smooth="yes"/>
      <point x="206" y="733"/>
      <point x="129" y="709"/>
      <point x="93" y="668" type="curve"/>
    </contour>
    <contour>
      <point x="269" y="32" type="line" smooth="yes"/>
      <point x="177" y="32"/>
      <point x="102" y="115"/>
      <point x="102" y="214" type="curve" smooth="yes"/>
      <point x="102" y="312"/>
      <point x="177" y="383"/>
      <point x="283" y="383" type="curve" smooth="yes"/>
      <point x="352" y="383"/>
      <point x="431" y="352"/>
      <point x="465" y="313" type="curve" smooth="yes"/>
      <point x="472" y="306"/>
      <point x="473" y="299"/>
      <point x="471" y="278" type="curve" smooth="yes"/>
      <point x="457" y="130"/>
      <point x="372" y="32"/>
      <point x="270" y="32" type="curve" smooth="yes"/>
    </contour>
  </outline>
</glyph>
<glyph name="emptyset" format="1">
  <advance width="561"/>
  <unicode hex="2205"/>
  <outline>
    <contour>
      <point x="281" y="170" type="curve" smooth="yes"/>
      <point x="387" y="170"/>
      <point x="475" y="257"/>
      <point x="475" y="364" type="curve" smooth="yes"/>
      <point x="475" y="470"/>
      <point x="387" y="557"/>
      <point x="281" y="557" type="curve" smooth="yes"/>
      <point x="174" y="557"/>
      <point x="88" y="470"/>
      <point x="88" y="364" type="curve" smooth="yes"/>
      <point x="88" y="257"/>
      <point x="174" y="170"/>
    </contour>
    <contour>
      <point x="281" y="205" type="curve" smooth="yes"/>
      <point x="193" y="205"/>
      <point x="123" y="276"/>
      <point x="123" y="364" type="curve" smooth="yes"/>
      <point x="123" y="450"/>
      <point x="193" y="522"/>
      <point x="281" y="522" type="curve" smooth="yes"/>
      <point x="369" y="522"/>
      <point x="440" y="450"/>
      <point x="440" y="364" type="curve" smooth="yes"/>
      <point x="440" y="276"/>
      <point x="369" y="205"/>
    </contour>
    <contour>
      <point x="496" y="529" type="line"/>
      <point x="471" y="556" type="line"/>
      <point x="65" y="184" type="line"/>
      <point x="92" y="157" type="line"/>
    </contour>
  </outline>
</glyph>
<glyph name="increment" format="1">
  <advance width="637"/>
  <unicode hex="2206"/>
  <outline>
    <contour>
      <point x="22" y="0" type="line"/>
      <point x="618" y="0" type="line"/>
      <point x="319" y="723" type="line"/>
    </contour>
    <contour>
      <point x="83" y="42" type="line"/>
      <point x="319" y="605" type="line"/>
      <point x="555" y="42" type="line"/>
    </contour>
  </outline>
</glyph>
<glyph name="product" format="1">
  <advance width="614"/>
  <unicode hex="220F"/>
  <outline>
    <contour>
      <point x="599" y="723" type="line"/>
      <point x="15" y="723" type="line"/>
      <point x="15" y="683" type="line"/>
      <point x="123" y="683" type="line"/>
      <point x="123" y="0" type="line"/>
      <point x="168" y="0" type="line"/>
      <point x="168" y="683" type="line"/>
      <point x="446" y="683" type="line"/>
      <point x="446" y="0" type="line"/>
      <point x="490" y="0" type="line"/>
      <point x="490" y="683" type="line"/>
      <point x="599" y="683" type="line"/>
    </contour>
  </outline>
</glyph>
<glyph name="summation" format="1">
  <advance width="485"/>
  <unicode hex="2211"/>
  <outline>
    <contour>
      <point x="465" y="0" type="line"/>
      <point x="465" y="39" type="line"/>
      <point x="81" y="39" type="line"/>
      <point x="297" y="363" type="line"/>
      <point x="96" y="684" type="line"/>
      <point x="447" y="684" type="line"/>
      <point x="447" y="723" type="line"/>
      <point x="40" y="723" type="line"/>
      <point x="40" y="688" type="line"/>
      <point x="246" y="362" type="line"/>
      <point x="25" y="33" type="line"/>
      <point x="25" y="0" type="line"/>
    </contour>
  </outline>
</glyph>
<glyph name="minus" format="1">
  <advance width="521"/>
  <unicode hex="2212"/>
  <outline>
    <contour>
      <point x="456" y="382" type="line"/>
      <point x="65" y="381" type="line"/>
      <point x="65" y="344" type="line"/>
      <point x="456" y="345" type="line"/>
    </contour>
  </outline>
</glyph>
<glyph name="bulletoperator" format="1">
  <advance width="282"/>
  <unicode hex="2219"/>
  <outline>
    <contour>
      <point x="141" y="321" type="curve" smooth="yes"/>
      <point x="167" y="321"/>
      <point x="187" y="342"/>
      <point x="187" y="368" type="curve" smooth="yes"/>
      <point x="187" y="394"/>
      <point x="167" y="414"/>
      <point x="141" y="414" type="curve" smooth="yes"/>
      <point x="115" y="414"/>
      <point x="95" y="394"/>
      <point x="95" y="368" type="curve" smooth="yes"/>
      <point x="95" y="342"/>
      <point x="115" y="321"/>
    </contour>
  </outline>
</glyph>
<glyph name="radical" format="1">
  <advance width="580"/>
  <unicode hex="221A"/>
  <outline>
    <contour>
      <point x="585" y="825" type="line"/>
      <point x="545" y="825" type="line"/>
      <point x="300" y="-105" type="line"/>
      <point x="132" y="374" type="line"/>
      <point x="15" y="329" type="line"/>
      <point x="28" y="293" type="line"/>
      <point x="100" y="322" type="line"/>
      <point x="279" y="-161" type="line"/>
      <point x="327" y="-161" type="line"/>
    </contour>
  </outline>
</glyph>
